<?xml version="1.0" encoding="UTF-8" standalone="no"?><svg xmlns="http://www.w3.org/2000/svg" xmlns:xlink="http://www.w3.org/1999/xlink" clip-rule="evenodd" stroke-miterlimit="10" viewBox="0 0 1024 768"><desc>SVG generated by Keynote</desc><defs><linearGradient id="gradSh1.0" x1="0.0" y1="0.0" x2="100.0" y2="0.0" gradientUnits="userSpaceOnUse" gradientTransform="matrix(0.63, -3.59, -5.30, -0.93, 479.5, 558.9)"><stop offset="0.00000" stop-color="#E5EAE8"></stop><stop offset="0.01246" stop-color="#E4EAE8"></stop><stop offset="1.00000" stop-color="#C5CFDE"></stop></linearGradient></defs><g transform="matrix(1.00, 0.00, -0.00, -1.00, 0.0, 768.0)"><path d="M 0.0 768.0 L 1024.0 768.0 L 1024.0 0.0 L 0.0 0.0 Z M 0.0 768.0 " fill="#00A6AC"></path><g opacity="0.37"><g><clipPath id="clip0x610000caed60"><path d="M 55.0 0.0 L 968.0 0.0 L 968.0 768.0 L 55.0 768.0 Z M 55.0 0.0 "></path></clipPath><g clip-path="url(#clip0x610000caed60)"><path d="M 781.0 685.2 C 958.5 533.8 982.0 265.3 833.4 85.5 C 684.9 -94.4 420.6 -117.5 243.0 33.8 C 65.5 185.2 42.0 453.6 190.6 633.5 C 339.1 813.4 603.4 836.5 781.0 685.2 Z M 781.0 685.2 " fill="#FEFFFE"></path></g></g></g><g><clipPath id="clip0x610000caefa0"><path d="M 272.1 191.9 L 222.5 473.3 C 218.7 494.3 232.8 514.4 253.8 518.1 L 705.6 597.8 C 726.6 601.5 746.7 587.4 750.4 566.4 L 800.0 285.0 C 803.7 264.0 789.7 243.9 768.6 240.2 L 316.8 160.6 C 295.8 156.9 275.8 170.9 272.1 191.9 Z M 272.1 191.9 "></path></clipPath><g clip-path="url(#clip0x610000caefa0)"><path d="M 272.1 191.9 L 222.5 473.3 C 218.7 494.3 232.8 514.4 253.8 518.1 L 705.6 597.8 C 726.6 601.5 746.7 587.4 750.4 566.4 L 800.0 285.0 C 803.7 264.0 789.7 243.9 768.6 240.2 L 316.8 160.6 C 295.8 156.9 275.8 170.9 272.1 191.9 Z M 272.1 191.9 " fill="url(#gradSh1.0)"></path></g></g><g><clipPath id="clip0x610000eaf2a0"><path d="M 305.9 510.4 L 282.4 502.1 L 274.1 490.3 L 293.5 385.4 L 317.6 241.9 L 333.5 187.4 L 348.7 179.8 L 746.9 252.3 L 757.2 263.3 L 756.5 283.3 L 723.4 401.3 L 713.1 446.2 L 693.7 511.7 L 675.8 556.6 L 660.6 571.8 Z M 305.9 510.4 "></path></clipPath><g clip-path="url(#clip0x610000eaf2a0)"><g><clipPath id="clip0x610000eaf420"><path d="M 103.7 81.1 L 920.3 81.1 L 920.3 679.9 L 103.7 679.9 Z M 103.7 81.1 "></path></clipPath><g clip-path="url(#clip0x610000eaf420)"><image xlink:href="91CC59CC76A4F95AF7B790D6E3146FB4.png" width="2590.00" height="1776.00" transform="matrix(0.23, 0.04, 0.04, -0.23, 181.7, 532.8)"></image></g></g></g></g><g><clipPath id="clip0x6180008a5ac0"><path d="M 103.7 679.9 L 920.3 679.9 L 920.3 81.1 L 103.7 81.1 Z M 103.7 679.9 "></path></clipPath><g clip-path="url(#clip0x6180008a5ac0)"><g><clipPath id="clip0x6180008aa740"><path d="M 103.7 81.1 L 920.3 81.1 L 920.3 679.9 L 103.7 679.9 Z M 103.7 81.1 "></path></clipPath><g clip-path="url(#clip0x6180008aa740)"><path d="M 920.3 207.3 C 919.3 206.4 918.4 206.1 916.9 206.3 C 908.8 207.0 901.4 210.2 893.8 212.9 C 873.4 220.0 854.4 230.4 835.3 240.3 C 831.1 242.4 827.3 245.2 823.8 248.3 C 822.2 249.7 822.0 251.5 821.8 253.3 C 821.7 254.0 822.6 255.1 823.3 255.6 C 825.9 257.2 828.7 257.2 831.2 255.5 C 849.8 243.0 870.0 233.4 890.1 223.6 C 898.6 219.5 907.3 215.4 915.8 211.3 C 917.4 210.6 918.8 209.6 920.3 208.7 Z M 920.3 207.3 " fill="#000000"></path><path d="M 746.1 246.4 C 746.1 246.6 746.1 246.9 746.1 247.1 C 745.8 247.3 745.4 247.5 745.0 247.8 C 742.4 249.4 742.2 250.7 744.1 253.0 C 745.2 254.5 746.5 255.9 747.9 257.0 C 752.6 260.7 754.4 265.7 753.8 271.3 C 753.1 278.1 752.1 284.8 750.8 291.4 C 749.1 299.4 747.2 307.3 745.0 315.2 C 740.6 331.0 735.7 346.7 731.4 362.5 C 728.4 373.7 725.7 385.0 721.4 395.8 C 717.0 406.8 714.7 418.3 713.5 430.0 C 712.3 441.7 708.9 452.9 705.5 464.1 C 703.0 472.8 700.1 481.4 697.3 490.1 C 692.7 504.4 689.1 519.0 682.1 532.5 C 678.5 539.5 676.8 547.4 672.6 554.2 C 670.1 558.2 667.7 562.0 664.0 564.8 C 662.0 566.3 659.9 567.0 657.5 566.4 C 655.2 565.8 652.9 565.1 650.5 564.5 C 649.4 564.1 648.2 564.0 647.4 565.1 C 646.5 566.2 646.6 567.5 647.5 568.6 C 651.0 573.3 659.7 577.6 666.5 573.8 C 669.8 572.0 672.6 569.5 674.6 566.4 C 676.9 562.9 679.0 559.2 681.0 555.4 C 682.4 552.6 683.6 549.6 684.9 546.6 C 686.0 543.9 686.9 541.0 688.1 538.3 C 691.7 530.1 695.6 522.0 698.2 513.4 C 702.8 498.1 707.6 482.9 712.2 467.7 C 714.6 459.6 717.0 451.6 718.9 443.4 C 720.3 437.8 720.8 431.9 721.6 426.1 C 722.9 416.5 725.1 407.2 728.6 398.1 C 731.4 390.6 733.6 382.8 735.8 375.1 C 740.1 359.8 743.8 344.2 748.5 329.0 C 753.9 311.9 758.3 294.5 761.2 276.8 C 762.8 267.6 760.2 259.3 753.2 252.7 C 751.9 251.4 750.5 250.2 749.2 248.9 C 748.7 248.4 748.5 247.7 748.1 247.1 C 748.2 246.9 748.4 246.7 748.5 246.5 C 757.3 248.6 766.1 250.6 774.9 252.9 C 778.5 253.9 782.0 255.5 785.4 257.2 C 789.4 259.2 792.8 262.1 795.1 266.2 C 797.4 269.9 798.3 274.1 798.6 278.3 C 799.7 294.8 798.4 311.2 793.8 327.1 C 791.9 333.7 789.4 340.2 787.3 346.8 C 784.4 356.1 781.6 365.4 778.8 374.8 C 776.6 382.1 774.0 389.5 772.6 397.0 C 769.2 414.3 764.9 431.3 760.0 448.1 C 756.5 460.2 752.9 472.1 750.7 484.5 C 748.0 499.4 745.4 514.3 740.2 528.7 C 736.3 539.6 733.2 550.8 727.5 561.0 C 724.0 567.2 720.2 573.1 714.7 577.6 C 710.0 581.6 704.4 584.2 698.2 584.6 C 687.5 585.4 676.8 584.7 666.4 581.7 C 647.8 576.3 628.8 572.0 609.8 568.4 C 593.1 565.3 576.2 563.1 559.3 560.7 C 542.2 558.3 524.9 556.3 507.7 554.2 C 498.3 553.0 488.9 552.3 479.6 551.0 C 471.5 549.9 463.5 548.3 455.5 546.9 C 433.9 543.0 412.0 541.1 390.1 539.3 C 382.7 538.7 375.2 538.2 367.8 537.5 C 357.5 536.5 347.2 535.4 336.9 534.3 C 330.5 533.6 324.2 532.5 318.0 530.7 C 305.2 526.9 292.4 523.3 279.6 519.8 C 273.4 518.1 267.1 516.7 261.5 513.4 C 263.0 509.9 262.9 509.8 259.1 509.3 C 257.1 509.0 255.0 508.7 253.0 509.0 C 250.5 509.2 248.7 508.5 247.2 506.7 C 244.5 503.7 242.0 500.5 240.7 496.6 C 239.8 494.3 239.1 491.8 238.9 489.3 C 238.7 485.4 238.9 481.4 239.1 477.4 C 239.1 475.2 239.2 473.0 239.5 470.9 C 241.7 458.6 244.0 446.5 246.0 434.2 C 248.4 420.4 250.6 406.6 252.8 392.7 C 255.0 379.2 257.2 365.8 259.2 352.2 C 261.9 334.4 264.3 316.5 266.8 298.7 C 268.3 287.7 269.8 276.8 272.9 266.2 C 276.4 254.2 277.3 241.8 279.8 229.6 C 282.0 218.7 284.3 207.8 288.2 197.3 C 291.6 188.2 296.6 180.3 304.0 173.9 C 308.5 170.1 313.4 168.6 319.3 169.8 C 329.1 171.8 339.0 173.4 348.8 175.3 C 366.1 178.5 383.4 181.7 400.6 184.9 C 412.7 187.2 424.8 189.5 436.9 191.7 C 450.2 194.0 463.6 196.3 476.7 199.9 C 488.0 202.9 499.2 206.4 510.7 208.5 C 521.3 210.3 531.7 212.7 542.2 214.5 C 550.8 216.0 559.5 216.7 568.2 218.1 C 581.8 220.2 595.4 222.2 608.9 225.1 C 629.5 229.5 650.4 232.0 671.2 235.0 C 691.9 238.0 712.6 240.9 733.3 244.0 C 737.6 244.6 741.8 245.6 746.1 246.4 M 689.1 594.0 C 694.1 593.5 699.3 593.6 704.1 592.2 C 712.2 589.9 719.8 586.2 725.9 580.2 C 731.5 574.6 735.5 568.0 739.2 561.0 C 744.2 551.2 747.2 540.7 750.7 530.4 C 753.7 521.9 756.5 513.4 758.1 504.6 C 759.6 496.7 761.0 488.8 762.5 480.9 C 764.3 471.2 767.2 461.7 769.8 452.2 C 775.0 434.0 780.0 415.7 783.7 397.1 C 785.6 387.6 788.8 378.3 791.6 369.0 C 795.3 356.9 799.2 344.9 802.9 332.8 C 806.3 321.4 808.7 309.9 809.3 298.0 C 809.8 290.4 810.1 282.8 809.1 275.3 C 808.8 272.4 808.2 269.6 807.5 266.8 C 806.0 261.1 802.4 256.9 797.7 253.5 C 791.6 249.0 784.6 246.3 777.3 244.6 C 767.5 242.3 757.6 240.1 747.6 238.5 C 722.5 234.6 697.4 231.0 672.3 227.3 C 660.7 225.6 649.0 224.3 637.5 222.4 C 627.1 220.8 616.9 218.8 606.6 216.8 C 590.2 213.5 573.6 211.2 556.9 209.2 C 546.2 207.9 535.6 205.4 525.0 203.6 C 511.0 201.3 497.4 197.5 483.8 193.8 C 468.7 189.7 453.3 187.1 437.9 184.6 C 428.8 183.1 419.8 181.1 410.8 179.5 C 391.1 176.0 371.4 172.5 351.8 169.0 C 343.1 167.4 334.4 165.7 325.7 164.3 C 319.4 163.3 313.1 162.6 306.8 163.4 C 302.0 164.0 297.8 165.9 294.0 168.9 C 285.1 176.1 279.6 185.5 275.7 196.0 C 270.9 208.9 268.5 222.3 265.9 235.7 C 264.1 245.2 263.3 254.8 260.6 264.1 C 258.9 270.2 257.6 276.4 256.6 282.6 C 254.7 294.0 253.2 305.3 251.6 316.7 C 249.4 332.4 247.4 348.1 245.2 363.8 C 244.0 372.1 242.3 380.3 240.9 388.6 C 238.7 402.1 236.6 415.6 234.4 429.1 C 232.5 440.5 230.3 451.9 228.4 463.3 C 227.6 468.0 227.2 472.8 226.6 477.6 C 226.3 480.4 226.3 483.1 225.9 485.8 C 225.4 489.3 225.8 492.5 227.0 495.7 C 229.2 501.8 232.8 507.2 237.0 512.1 C 238.3 513.6 240.6 514.3 242.5 515.3 C 243.9 516.0 245.5 516.3 246.9 517.1 C 254.2 521.4 261.9 524.3 270.2 526.3 C 280.2 528.7 290.3 531.3 300.0 534.7 C 309.8 538.1 319.7 540.8 330.1 541.8 C 346.5 543.4 363.0 544.7 379.5 546.4 C 405.2 549.0 431.0 550.5 456.4 555.7 C 470.7 558.7 485.3 560.2 499.8 561.6 C 509.8 562.5 519.8 564.3 529.8 565.7 C 551.1 568.6 572.4 571.5 593.7 574.6 C 600.2 575.5 606.5 577.0 612.9 578.4 C 623.7 580.8 634.5 583.1 645.2 585.7 C 652.1 587.3 659.0 589.2 665.9 591.0 C 673.5 593.0 681.3 593.5 689.1 594.0 " fill="#000000"></path><path d="M 912.9 520.1 C 912.6 517.3 910.9 516.3 909.3 515.6 C 905.7 514.1 902.1 512.8 898.4 511.5 C 880.5 505.3 862.5 499.5 844.7 492.9 C 833.7 488.9 823.2 483.7 812.4 479.3 C 808.5 477.6 804.4 476.2 800.3 475.1 C 796.9 474.3 794.8 476.3 794.7 479.8 C 794.6 481.7 796.0 483.4 798.5 484.0 C 806.5 485.6 813.5 489.7 821.0 492.6 C 836.0 498.5 851.1 504.5 866.6 509.0 C 877.2 512.1 887.8 515.1 898.4 518.1 C 901.6 519.0 904.9 519.5 908.2 520.1 C 909.6 520.3 911.1 520.1 912.9 520.1 " fill="#000000"></path><path d="M 744.2 609.7 C 741.9 609.7 740.8 610.8 740.3 612.2 C 739.6 613.8 739.0 615.4 740.6 617.0 C 744.1 620.1 747.5 623.4 750.9 626.6 C 762.8 637.8 775.0 648.7 787.8 658.7 C 796.9 665.9 806.7 672.1 817.2 677.1 C 819.3 678.1 821.3 679.1 823.5 679.8 C 824.2 680.1 825.2 679.7 826.1 679.6 C 825.9 678.7 825.9 677.6 825.4 676.9 C 824.6 675.7 823.5 674.6 822.3 673.7 C 816.0 669.0 809.5 664.4 803.1 659.8 C 793.7 653.1 785.2 645.4 776.9 637.5 C 770.1 631.0 763.5 624.3 756.5 618.0 C 753.4 615.1 749.7 612.9 746.2 610.5 C 745.5 610.0 744.5 609.8 744.2 609.7 " fill="#000000"></path><path d="M 187.8 521.4 C 182.0 520.8 177.1 521.8 172.4 523.3 C 158.6 527.5 145.6 533.5 133.3 541.0 C 131.5 542.1 129.4 543.0 127.6 544.2 C 125.7 545.6 123.8 547.1 122.1 548.8 C 120.6 550.4 121.2 552.2 123.4 552.4 C 125.3 552.6 127.4 552.5 129.1 551.8 C 134.7 550.0 140.2 547.9 145.6 545.7 C 152.8 542.8 159.9 539.7 167.2 536.7 C 173.5 534.2 180.0 532.4 186.7 531.3 C 189.2 530.9 191.7 531.3 194.3 531.2 C 195.9 531.1 197.9 531.5 198.8 529.6 C 199.7 527.7 198.9 526.0 198.0 524.4 C 196.8 522.2 195.3 520.8 192.5 521.3 C 190.7 521.7 188.8 521.4 187.8 521.4 " fill="#000000"></path><path d="M 193.5 81.1 C 194.4 83.3 195.0 85.1 196.0 86.7 C 203.1 98.5 211.6 109.1 220.7 119.3 C 226.5 125.9 232.1 132.6 237.8 139.2 C 240.0 141.8 242.1 144.6 244.5 147.0 C 246.8 149.1 249.7 149.9 252.8 149.0 C 256.0 148.1 256.4 146.8 254.6 144.0 C 250.4 137.2 244.8 131.6 239.4 125.8 C 228.6 114.3 217.9 102.8 207.2 91.3 C 204.7 88.7 202.3 86.1 199.8 83.7 C 198.3 82.3 196.7 80.8 193.5 81.1 " fill="#000000"></path><path d="M 169.9 376.2 C 174.8 375.4 180.7 374.6 186.5 373.5 C 188.6 373.2 189.0 372.4 188.4 370.4 C 187.3 366.5 183.8 364.1 179.8 364.4 C 179.2 364.5 178.7 364.5 178.1 364.7 C 168.9 367.2 159.7 366.2 150.5 364.3 C 139.6 362.0 128.7 359.7 117.8 357.5 C 114.1 356.8 110.4 356.1 106.6 357.0 C 105.4 357.2 104.2 357.3 103.8 358.6 C 103.4 360.2 104.6 361.1 105.7 361.5 C 108.6 362.8 111.6 364.3 114.6 365.0 C 128.7 368.4 142.8 371.6 156.9 374.7 C 160.8 375.5 164.8 375.6 169.9 376.2 " fill="#000000"></path><path d="M 918.3 392.5 C 916.9 389.9 915.0 389.1 912.8 388.6 C 907.0 387.3 901.2 387.3 895.3 387.2 C 879.6 386.9 863.9 386.6 848.2 386.4 C 841.9 386.4 835.6 386.5 829.3 386.8 C 825.7 386.9 824.2 388.6 824.2 391.9 C 824.1 393.3 824.7 394.2 825.9 394.9 C 827.7 395.8 829.4 395.9 831.3 395.7 C 833.2 395.5 835.2 395.2 837.1 395.2 C 856.5 395.1 875.9 395.2 895.2 395.0 C 901.5 394.9 907.8 394.3 914.1 393.7 C 915.5 393.6 916.8 392.9 918.3 392.5 " fill="#000000"></path><path d="M 203.8 269.7 C 203.7 267.4 201.9 266.4 200.4 265.2 C 195.3 261.2 190.1 257.1 184.9 253.2 C 171.7 243.2 158.9 232.8 146.6 221.7 C 144.7 219.9 142.7 218.1 140.6 216.5 C 139.6 215.6 138.4 214.9 137.1 214.3 C 136.4 214.0 135.2 213.9 134.6 214.3 C 133.6 215.0 134.1 216.2 134.7 217.0 C 137.4 220.4 140.0 223.9 143.0 227.1 C 151.5 236.3 160.8 244.7 170.7 252.4 C 177.9 257.9 185.0 263.5 192.2 269.0 C 194.5 270.7 197.1 271.7 199.9 271.6 C 201.5 271.5 202.9 271.2 203.8 269.7 " fill="#000000"></path><path d="M 291.4 507.7 C 292.3 503.6 292.0 503.0 289.1 501.2 C 287.2 500.1 285.1 498.9 283.1 497.9 C 281.7 497.1 280.8 495.9 280.7 494.3 C 280.4 490.1 279.8 485.8 280.1 481.6 C 280.6 474.6 281.8 467.7 283.6 460.9 C 286.4 450.1 289.0 439.3 291.2 428.4 C 293.0 419.3 294.2 410.0 295.6 400.8 C 296.3 396.1 296.7 391.3 297.4 386.5 C 298.3 380.9 299.6 375.5 300.4 369.9 C 301.2 364.7 301.4 359.3 302.4 354.2 C 304.4 343.5 306.9 332.8 308.9 322.1 C 310.5 314.1 311.7 306.0 312.9 298.0 C 315.1 284.4 316.9 270.7 319.3 257.1 C 320.5 250.5 322.5 244.0 324.3 237.4 C 325.7 232.6 327.6 227.9 329.1 223.1 C 329.9 220.3 330.3 217.4 330.9 214.7 C 332.0 210.3 332.6 205.8 334.3 201.7 C 335.9 197.7 338.3 194.0 340.8 190.4 C 342.7 187.7 346.1 186.9 349.0 185.6 C 350.8 184.8 352.9 184.2 353.1 181.9 C 353.4 179.4 351.2 178.5 349.4 177.5 C 345.0 175.2 340.7 176.0 336.6 178.3 C 333.2 180.2 330.9 183.1 328.9 186.5 C 324.2 194.2 322.5 202.8 320.8 211.5 C 319.8 217.1 317.8 222.5 316.2 228.0 C 313.4 237.6 310.7 247.2 309.4 257.2 C 308.6 263.0 307.4 268.7 306.6 274.5 C 304.7 287.9 303.3 301.4 301.2 314.8 C 299.6 324.7 297.2 334.4 295.4 344.2 C 294.4 349.4 293.9 354.7 293.1 359.9 C 292.5 363.5 291.9 367.1 291.4 370.8 C 290.5 377.1 289.6 383.5 288.7 389.9 C 287.6 397.2 286.4 404.6 285.3 412.0 C 284.2 419.0 283.5 426.1 282.0 433.1 C 280.0 442.7 277.3 452.3 275.3 461.9 C 273.1 473.1 272.1 484.4 274.1 495.8 C 274.6 498.5 275.7 500.7 277.9 502.1 C 281.1 504.1 284.5 505.8 287.9 507.4 C 288.9 507.9 290.1 507.6 291.4 507.7 " fill="#000000"></path><path d="M 740.3 438.4 C 739.3 436.5 738.7 434.6 737.6 433.4 C 736.2 432.0 735.8 430.6 735.9 428.8 C 736.2 423.1 741.4 416.8 747.2 414.9 C 750.0 414.0 751.1 414.7 751.2 417.7 C 751.3 423.0 750.5 428.1 748.2 433.0 C 747.8 433.8 747.3 434.6 746.7 435.3 C 745.0 437.3 742.9 438.5 740.3 438.4 M 732.2 439.5 C 731.2 440.1 730.6 440.4 730.0 440.7 C 728.7 441.4 727.7 442.5 728.1 443.7 C 728.5 444.7 729.8 445.7 730.8 446.0 C 735.8 447.0 740.8 447.5 745.9 446.3 C 748.2 445.7 750.1 444.5 751.5 442.6 C 757.4 435.2 759.9 426.7 759.5 417.3 C 759.5 416.6 759.3 415.9 759.2 415.2 C 757.5 408.4 752.5 405.1 745.6 406.5 C 738.6 407.8 733.6 411.7 730.6 417.9 C 729.4 420.3 728.3 422.8 727.9 425.3 C 727.0 430.5 727.9 435.4 732.2 439.5 " fill="#000000"></path></g></g></g></g><text xml:space="preserve" font-family="HelveticaNeue-Bold,Helvetica Neue" font-weight="bold" font-size="36.0" fill="#FEFFFF" transform="matrix(1.00, 0.00, -0.00, -1.00, 111.9, 691.0)">B</text><text xml:space="preserve" font-family="HelveticaNeue-Bold,Helvetica Neue" font-weight="bold" font-size="36.0" fill="#FEFFFF" transform="matrix(1.00, 0.00, -0.00, -1.00, 137.2, 691.0)">u</text><text xml:space="preserve" font-family="HelveticaNeue-Bold,Helvetica Neue" font-weight="bold" font-size="36.0" fill="#FEFFFF" transform="matrix(1.00, 0.00, -0.00, -1.00, 158.6, 691.0)">t</text><text xml:space="preserve" font-family="HelveticaNeue-Bold,Helvetica Neue" font-weight="bold" font-size="36.0" fill="#FEFFFF" transform="matrix(1.00, 0.00, -0.00, -1.00, 171.3, 691.0)"> </text><text xml:space="preserve" font-family="HelveticaNeue-Bold,Helvetica Neue" font-weight="bold" font-size="36.0" fill="#FEFFFF" transform="matrix(1.00, 0.00, -0.00, -1.00, 181.3, 691.0)">t</text><text xml:space="preserve" font-family="HelveticaNeue-Bold,Helvetica Neue" font-weight="bold" font-size="36.0" fill="#FEFFFF" transform="matrix(1.00, 0.00, -0.00, -1.00, 193.9, 691.0)">h</text><text xml:space="preserve" font-family="HelveticaNeue-Bold,Helvetica Neue" font-weight="bold" font-size="36.0" fill="#FEFFFF" transform="matrix(1.00, 0.00, -0.00, -1.00, 215.3, 691.0)">e</text><text xml:space="preserve" font-family="HelveticaNeue-Bold,Helvetica Neue" font-weight="bold" font-size="36.0" fill="#FEFFFF" transform="matrix(1.00, 0.00, -0.00, -1.00, 236.0, 691.0)">n</text><text xml:space="preserve" font-family="HelveticaNeue-Bold,Helvetica Neue" font-weight="bold" font-size="36.0" fill="#FEFFFF" transform="matrix(1.00, 0.00, -0.00, -1.00, 257.3, 691.0)"> </text><text xml:space="preserve" font-family="HelveticaNeue-Bold,Helvetica Neue" font-weight="bold" font-size="36.0" fill="#FEFFFF" transform="matrix(1.00, 0.00, -0.00, -1.00, 267.3, 691.0)">h</text><text xml:space="preserve" font-family="HelveticaNeue-Bold,Helvetica Neue" font-weight="bold" font-size="36.0" fill="#FEFFFF" transform="matrix(1.00, 0.00, -0.00, -1.00, 288.7, 691.0)">e</text><text xml:space="preserve" font-family="HelveticaNeue-Bold,Helvetica Neue" font-weight="bold" font-size="36.0" fill="#FEFFFF" transform="matrix(1.00, 0.00, -0.00, -1.00, 309.3, 691.0)"> </text><text xml:space="preserve" font-family="HelveticaNeue-Bold,Helvetica Neue" font-weight="bold" font-size="36.0" fill="#FEFFFF" transform="matrix(1.00, 0.00, -0.00, -1.00, 319.3, 691.0)">f</text><text xml:space="preserve" font-family="HelveticaNeue-Bold,Helvetica Neue" font-weight="bold" font-size="36.0" fill="#FEFFFF" transform="matrix(1.00, 0.00, -0.00, -1.00, 331.3, 691.0)">o</text><text xml:space="preserve" font-family="HelveticaNeue-Bold,Helvetica Neue" font-weight="bold" font-size="36.0" fill="#FEFFFF" transform="matrix(1.00, 0.00, -0.00, -1.00, 353.3, 691.0)">u</text><text xml:space="preserve" font-family="HelveticaNeue-Bold,Helvetica Neue" font-weight="bold" font-size="36.0" fill="#FEFFFF" transform="matrix(1.00, 0.00, -0.00, -1.00, 374.7, 691.0)">n</text><text xml:space="preserve" font-family="HelveticaNeue-Bold,Helvetica Neue" font-weight="bold" font-size="36.0" fill="#FEFFFF" transform="matrix(1.00, 0.00, -0.00, -1.00, 396.0, 691.0)">d</text><text xml:space="preserve" font-family="HelveticaNeue-Bold,Helvetica Neue" font-weight="bold" font-size="36.0" fill="#FEFFFF" transform="matrix(1.00, 0.00, -0.00, -1.00, 418.0, 691.0)"> </text><text xml:space="preserve" font-family="HelveticaNeue-Bold,Helvetica Neue" font-weight="bold" font-size="36.0" fill="#FEFFFF" transform="matrix(1.00, 0.00, -0.00, -1.00, 428.0, 691.0)">t</text><text xml:space="preserve" font-family="HelveticaNeue-Bold,Helvetica Neue" font-weight="bold" font-size="36.0" fill="#FEFFFF" transform="matrix(1.00, 0.00, -0.00, -1.00, 440.7, 691.0)">h</text><text xml:space="preserve" font-family="HelveticaNeue-Bold,Helvetica Neue" font-weight="bold" font-size="36.0" fill="#FEFFFF" transform="matrix(1.00, 0.00, -0.00, -1.00, 462.0, 691.0)">e</text><text xml:space="preserve" font-family="HelveticaNeue-Bold,Helvetica Neue" font-weight="bold" font-size="36.0" fill="#FEFFFF" transform="matrix(1.00, 0.00, -0.00, -1.00, 482.7, 691.0)"> </text><text xml:space="preserve" font-family="HelveticaNeue-Bold,Helvetica Neue" font-weight="bold" font-size="36.0" fill="#FEFFFF" transform="matrix(1.00, 0.00, -0.00, -1.00, 492.7, 691.0)">O</text><text xml:space="preserve" font-family="HelveticaNeue-Bold,Helvetica Neue" font-weight="bold" font-size="36.0" fill="#FEFFFF" transform="matrix(1.00, 0.00, -0.00, -1.00, 520.7, 691.0)">p</text><text xml:space="preserve" font-family="HelveticaNeue-Bold,Helvetica Neue" font-weight="bold" font-size="36.0" fill="#FEFFFF" transform="matrix(1.00, 0.00, -0.00, -1.00, 542.7, 691.0)">e</text><text xml:space="preserve" font-family="HelveticaNeue-Bold,Helvetica Neue" font-weight="bold" font-size="36.0" fill="#FEFFFF" transform="matrix(1.00, 0.00, -0.00, -1.00, 563.4, 691.0)">n</text><text xml:space="preserve" font-family="HelveticaNeue-Bold,Helvetica Neue" font-weight="bold" font-size="36.0" fill="#FEFFFF" transform="matrix(1.00, 0.00, -0.00, -1.00, 584.7, 691.0)"> </text><text xml:space="preserve" font-family="HelveticaNeue-Bold,Helvetica Neue" font-weight="bold" font-size="36.0" fill="#FEFFFF" transform="matrix(1.00, 0.00, -0.00, -1.00, 594.7, 691.0)">J</text><text xml:space="preserve" font-family="HelveticaNeue-Bold,Helvetica Neue" font-weight="bold" font-size="36.0" fill="#FEFFFF" transform="matrix(1.00, 0.00, -0.00, -1.00, 614.8, 691.0)">a</text><text xml:space="preserve" font-family="HelveticaNeue-Bold,Helvetica Neue" font-weight="bold" font-size="36.0" fill="#FEFFFF" transform="matrix(1.00, 0.00, -0.00, -1.00, 635.4, 691.0)">r</text><text xml:space="preserve" font-family="HelveticaNeue-Bold,Helvetica Neue" font-weight="bold" font-size="36.0" fill="#FEFFFF" transform="matrix(1.00, 0.00, -0.00, -1.00, 649.4, 691.0)"> </text><text xml:space="preserve" font-family="HelveticaNeue-Bold,Helvetica Neue" font-weight="bold" font-size="36.0" fill="#FEFFFF" transform="matrix(1.00, 0.00, -0.00, -1.00, 659.4, 691.0)">a</text><text xml:space="preserve" font-family="HelveticaNeue-Bold,Helvetica Neue" font-weight="bold" font-size="36.0" fill="#FEFFFF" transform="matrix(1.00, 0.00, -0.00, -1.00, 680.1, 691.0)">p</text><text xml:space="preserve" font-family="HelveticaNeue-Bold,Helvetica Neue" font-weight="bold" font-size="36.0" fill="#FEFFFF" transform="matrix(1.00, 0.00, -0.00, -1.00, 702.1, 691.0)">p</text><text xml:space="preserve" font-family="HelveticaNeue-Bold,Helvetica Neue" font-weight="bold" font-size="36.0" fill="#FEFFFF" transform="matrix(1.00, 0.00, -0.00, -1.00, 724.1, 691.0)">!</text><text xml:space="preserve" font-family="HelveticaNeue-Light,Helvetica Neue" font-size="36.0" fill="#FEFFFF" transform="matrix(1.00, 0.00, -0.00, -1.00, 437.3, 103.8)">O</text><text xml:space="preserve" font-family="HelveticaNeue-Light,Helvetica Neue" font-size="36.0" fill="#FEFFFF" transform="matrix(1.00, 0.00, -0.00, -1.00, 464.0, 103.8)">p</text><text xml:space="preserve" font-family="HelveticaNeue-Light,Helvetica Neue" font-size="36.0" fill="#FEFFFF" transform="matrix(1.00, 0.00, -0.00, -1.00, 484.7, 103.8)">e</text><text xml:space="preserve" font-family="HelveticaNeue-Light,Helvetica Neue" font-size="36.0" fill="#FEFFFF" transform="matrix(1.00, 0.00, -0.00, -1.00, 503.3, 103.8)">n</text><text xml:space="preserve" font-family="HelveticaNeue-Light,Helvetica Neue" font-size="36.0" fill="#FEFFFF" transform="matrix(1.00, 0.00, -0.00, -1.00, 522.7, 103.8)"> </text><text xml:space="preserve" font-family="HelveticaNeue-Light,Helvetica Neue" font-size="36.0" fill="#FEFFFF" transform="matrix(1.00, 0.00, -0.00, -1.00, 532.7, 103.8)">J</text><text xml:space="preserve" font-family="HelveticaNeue-Light,Helvetica Neue" font-size="36.0" fill="#FEFFFF" transform="matrix(1.00, 0.00, -0.00, -1.00, 550.7, 103.8)">a</text><text xml:space="preserve" font-family="HelveticaNeue-Light,Helvetica Neue" font-size="36.0" fill="#FEFFFF" transform="matrix(1.00, 0.00, -0.00, -1.00, 569.4, 103.8)">r</text><text xml:space="preserve" font-family="HelveticaNeue-Light,Helvetica Neue" font-size="36.0" fill="#FEFFFF" transform="matrix(1.00, 0.00, -0.00, -1.00, 580.7, 103.8)"> </text><text xml:space="preserve" font-family="HelveticaNeue-Light,Helvetica Neue" font-size="36.0" fill="#FEFFFF" transform="matrix(1.00, 0.00, -0.00, -1.00, 590.7, 103.8)">g</text><text xml:space="preserve" font-family="HelveticaNeue-Light,Helvetica Neue" font-size="36.0" fill="#FEFFFF" transform="matrix(1.00, 0.00, -0.00, -1.00, 610.7, 103.8)">i</text><text xml:space="preserve" font-family="HelveticaNeue-Light,Helvetica Neue" font-size="36.0" fill="#FEFFFF" transform="matrix(1.00, 0.00, -0.00, -1.00, 617.4, 103.8)">v</text><text xml:space="preserve" font-family="HelveticaNeue-Light,Helvetica Neue" font-size="36.0" fill="#FEFFFF" transform="matrix(1.00, 0.00, -0.00, -1.00, 634.1, 103.8)">e</text><text xml:space="preserve" font-family="HelveticaNeue-Light,Helvetica Neue" font-size="36.0" fill="#FEFFFF" transform="matrix(1.00, 0.00, -0.00, -1.00, 652.7, 103.8)">s</text><text xml:space="preserve" font-family="HelveticaNeue-Light,Helvetica Neue" font-size="36.0" fill="#FEFFFF" transform="matrix(1.00, 0.00, -0.00, -1.00, 670.1, 103.8)"> </text><text xml:space="preserve" font-family="HelveticaNeue-Light,Helvetica Neue" font-size="36.0" fill="#FEFFFF" transform="matrix(1.00, 0.00, -0.00, -1.00, 680.1, 103.8)">h</text><text xml:space="preserve" font-family="HelveticaNeue-Light,Helvetica Neue" font-size="36.0" fill="#FEFFFF" transform="matrix(1.00, 0.00, -0.00, -1.00, 699.4, 103.8)">i</text><text xml:space="preserve" font-family="HelveticaNeue-Light,Helvetica Neue" font-size="36.0" fill="#FEFFFF" transform="matrix(1.00, 0.00, -0.00, -1.00, 706.1, 103.8)">m</text><text xml:space="preserve" font-family="HelveticaNeue-Light,Helvetica Neue" font-size="36.0" fill="#FEFFFF" transform="matrix(1.00, 0.00, -0.00, -1.00, 736.0, 103.8)"> </text><text xml:space="preserve" font-family="HelveticaNeue-Light,Helvetica Neue" font-size="36.0" fill="#FEFFFF" transform="matrix(1.00, 0.00, -0.00, -1.00, 746.1, 103.8)">s</text><text xml:space="preserve" font-family="HelveticaNeue-Light,Helvetica Neue" font-size="36.0" fill="#FEFFFF" transform="matrix(1.00, 0.00, -0.00, -1.00, 763.4, 103.8)">u</text><text xml:space="preserve" font-family="HelveticaNeue-Light,Helvetica Neue" font-size="36.0" fill="#FEFFFF" transform="matrix(1.00, 0.00, -0.00, -1.00, 782.7, 103.8)">g</text><text xml:space="preserve" font-family="HelveticaNeue-Light,Helvetica Neue" font-size="36.0" fill="#FEFFFF" transform="matrix(1.00, 0.00, -0.00, -1.00, 802.7, 103.8)">g</text><text xml:space="preserve" font-family="HelveticaNeue-Light,Helvetica Neue" font-size="36.0" fill="#FEFFFF" transform="matrix(1.00, 0.00, -0.00, -1.00, 822.7, 103.8)">e</text><text xml:space="preserve" font-family="HelveticaNeue-Light,Helvetica Neue" font-size="36.0" fill="#FEFFFF" transform="matrix(1.00, 0.00, -0.00, -1.00, 841.4, 103.8)">s</text><text xml:space="preserve" font-family="HelveticaNeue-Light,Helvetica Neue" font-size="36.0" fill="#FEFFFF" transform="matrix(1.00, 0.00, -0.00, -1.00, 858.7, 103.8)">t</text><text xml:space="preserve" font-family="HelveticaNeue-Light,Helvetica Neue" font-size="36.0" fill="#FEFFFF" transform="matrix(1.00, 0.00, -0.00, -1.00, 869.4, 103.8)">i</text><text xml:space="preserve" font-family="HelveticaNeue-Light,Helvetica Neue" font-size="36.0" fill="#FEFFFF" transform="matrix(1.00, 0.00, -0.00, -1.00, 876.0, 103.8)">o</text><text xml:space="preserve" font-family="HelveticaNeue-Light,Helvetica Neue" font-size="36.0" fill="#FEFFFF" transform="matrix(1.00, 0.00, -0.00, -1.00, 896.1, 103.8)">n</text><text xml:space="preserve" font-family="HelveticaNeue-Light,Helvetica Neue" font-size="36.0" fill="#FEFFFF" transform="matrix(1.00, 0.00, -0.00, -1.00, 915.4, 103.8)">s</text><text xml:space="preserve" font-family="HelveticaNeue-Light,Helvetica Neue" font-size="36.0" fill="#FEFFFF" transform="matrix(1.00, 0.00, -0.00, -1.00, 932.7, 103.8)"> </text><text xml:space="preserve" font-family="HelveticaNeue-Light,Helvetica Neue" font-size="36.0" fill="#FEFFFF" transform="matrix(1.00, 0.00, -0.00, -1.00, 942.7, 103.8)"> </text><text xml:space="preserve" font-family="HelveticaNeue-Light,Helvetica Neue" font-size="36.0" fill="#FEFFFF" transform="matrix(1.00, 0.00, -0.00, -1.00, 437.3, 59.8)">b</text><text xml:space="preserve" font-family="HelveticaNeue-Light,Helvetica Neue" font-size="36.0" fill="#FEFFFF" transform="matrix(1.00, 0.00, -0.00, -1.00, 458.0, 59.8)">a</text><text xml:space="preserve" font-family="HelveticaNeue-Light,Helvetica Neue" font-size="36.0" fill="#FEFFFF" transform="matrix(1.00, 0.00, -0.00, -1.00, 476.7, 59.8)">s</text><text xml:space="preserve" font-family="HelveticaNeue-Light,Helvetica Neue" font-size="36.0" fill="#FEFFFF" transform="matrix(1.00, 0.00, -0.00, -1.00, 494.0, 59.8)">e</text><text xml:space="preserve" font-family="HelveticaNeue-Light,Helvetica Neue" font-size="36.0" fill="#FEFFFF" transform="matrix(1.00, 0.00, -0.00, -1.00, 512.7, 59.8)">d</text><text xml:space="preserve" font-family="HelveticaNeue-Light,Helvetica Neue" font-size="36.0" fill="#FEFFFF" transform="matrix(1.00, 0.00, -0.00, -1.00, 533.3, 59.8)"> </text><text xml:space="preserve" font-family="HelveticaNeue-Light,Helvetica Neue" font-size="36.0" fill="#FEFFFF" transform="matrix(1.00, 0.00, -0.00, -1.00, 543.3, 59.8)">o</text><text xml:space="preserve" font-family="HelveticaNeue-Light,Helvetica Neue" font-size="36.0" fill="#FEFFFF" transform="matrix(1.00, 0.00, -0.00, -1.00, 563.4, 59.8)">n</text><text xml:space="preserve" font-family="HelveticaNeue-Light,Helvetica Neue" font-size="36.0" fill="#FEFFFF" transform="matrix(1.00, 0.00, -0.00, -1.00, 582.7, 59.8)"> </text><text xml:space="preserve" font-family="HelveticaNeue-Light,Helvetica Neue" font-size="36.0" fill="#FEFFFF" transform="matrix(1.00, 0.00, -0.00, -1.00, 592.7, 59.8)">w</text><text xml:space="preserve" font-family="HelveticaNeue-Light,Helvetica Neue" font-size="36.0" fill="#FEFFFF" transform="matrix(1.00, 0.00, -0.00, -1.00, 619.4, 59.8)">h</text><text xml:space="preserve" font-family="HelveticaNeue-Light,Helvetica Neue" font-size="36.0" fill="#FEFFFF" transform="matrix(1.00, 0.00, -0.00, -1.00, 638.7, 59.8)">e</text><text xml:space="preserve" font-family="HelveticaNeue-Light,Helvetica Neue" font-size="36.0" fill="#FEFFFF" transform="matrix(1.00, 0.00, -0.00, -1.00, 657.4, 59.8)">n</text><text xml:space="preserve" font-family="HelveticaNeue-Light,Helvetica Neue" font-size="36.0" fill="#FEFFFF" transform="matrix(1.00, 0.00, -0.00, -1.00, 676.7, 59.8)"> </text><text xml:space="preserve" font-family="HelveticaNeue-Light,Helvetica Neue" font-size="36.0" fill="#FEFFFF" transform="matrix(1.00, 0.00, -0.00, -1.00, 686.7, 59.8)">h</text><text xml:space="preserve" font-family="HelveticaNeue-Light,Helvetica Neue" font-size="36.0" fill="#FEFFFF" transform="matrix(1.00, 0.00, -0.00, -1.00, 706.1, 59.8)">i</text><text xml:space="preserve" font-family="HelveticaNeue-Light,Helvetica Neue" font-size="36.0" fill="#FEFFFF" transform="matrix(1.00, 0.00, -0.00, -1.00, 712.7, 59.8)">s</text><text xml:space="preserve" font-family="HelveticaNeue-Light,Helvetica Neue" font-size="36.0" fill="#FEFFFF" transform="matrix(1.00, 0.00, -0.00, -1.00, 730.0, 59.8)"> </text><text xml:space="preserve" font-family="HelveticaNeue-Light,Helvetica Neue" font-size="36.0" fill="#FEFFFF" transform="matrix(1.00, 0.00, -0.00, -1.00, 740.0, 59.8)">f</text><text xml:space="preserve" font-family="HelveticaNeue-Light,Helvetica Neue" font-size="36.0" fill="#FEFFFF" transform="matrix(1.00, 0.00, -0.00, -1.00, 749.4, 59.8)">o</text><text xml:space="preserve" font-family="HelveticaNeue-Light,Helvetica Neue" font-size="36.0" fill="#FEFFFF" transform="matrix(1.00, 0.00, -0.00, -1.00, 769.4, 59.8)">o</text><text xml:space="preserve" font-family="HelveticaNeue-Light,Helvetica Neue" font-size="36.0" fill="#FEFFFF" transform="matrix(1.00, 0.00, -0.00, -1.00, 789.4, 59.8)">d</text><text xml:space="preserve" font-family="HelveticaNeue-Light,Helvetica Neue" font-size="36.0" fill="#FEFFFF" transform="matrix(1.00, 0.00, -0.00, -1.00, 810.1, 59.8)"> </text><text xml:space="preserve" font-family="HelveticaNeue-Light,Helvetica Neue" font-size="36.0" fill="#FEFFFF" transform="matrix(1.00, 0.00, -0.00, -1.00, 820.1, 59.8)">e</text><text xml:space="preserve" font-family="HelveticaNeue-Light,Helvetica Neue" font-size="36.0" fill="#FEFFFF" transform="matrix(1.00, 0.00, -0.00, -1.00, 838.8, 59.8)">x</text><text xml:space="preserve" font-family="HelveticaNeue-Light,Helvetica Neue" font-size="36.0" fill="#FEFFFF" transform="matrix(1.00, 0.00, -0.00, -1.00, 856.1, 59.8)">p</text><text xml:space="preserve" font-family="HelveticaNeue-Light,Helvetica Neue" font-size="36.0" fill="#FEFFFF" transform="matrix(1.00, 0.00, -0.00, -1.00, 876.7, 59.8)">i</text><text xml:space="preserve" font-family="HelveticaNeue-Light,Helvetica Neue" font-size="36.0" fill="#FEFFFF" transform="matrix(1.00, 0.00, -0.00, -1.00, 883.4, 59.8)">r</text><text xml:space="preserve" font-family="HelveticaNeue-Light,Helvetica Neue" font-size="36.0" fill="#FEFFFF" transform="matrix(1.00, 0.00, -0.00, -1.00, 894.1, 59.8)">e</text><text xml:space="preserve" font-family="HelveticaNeue-Light,Helvetica Neue" font-size="36.0" fill="#FEFFFF" transform="matrix(1.00, 0.00, -0.00, -1.00, 912.8, 59.8)">s</text><text xml:space="preserve" font-family="HelveticaNeue-Light,Helvetica Neue" font-size="36.0" fill="#FEFFFF" transform="matrix(1.00, 0.00, -0.00, -1.00, 930.1, 59.8)">.</text></g></svg>