<?xml version="1.0" encoding="UTF-8" standalone="no"?><svg xmlns="http://www.w3.org/2000/svg" xmlns:xlink="http://www.w3.org/1999/xlink" clip-rule="evenodd" stroke-miterlimit="10" viewBox="0 0 1024 768"><desc>SVG generated by Keynote</desc><defs></defs><g transform="matrix(1.00, 0.00, -0.00, -1.00, 0.0, 768.0)"><path d="M 0.0 768.0 L 1024.0 768.0 L 1024.0 0.0 L 0.0 0.0 Z M 0.0 768.0 " fill="#7ADA45"></path><g opacity="0.37"><g><clipPath id="clip0x600000aa4ce0"><path d="M 29.0 0.0 L 941.0 0.0 L 941.0 705.0 L 29.0 705.0 Z M 29.0 0.0 "></path></clipPath><g clip-path="url(#clip0x600000aa4ce0)"><path d="M 754.3 568.2 C 931.8 416.8 955.3 148.3 806.7 -31.5 C 658.2 -211.4 393.8 -234.5 216.3 -83.2 C 38.8 68.2 15.3 336.6 163.8 516.5 C 312.4 696.4 576.7 719.5 754.3 568.2 Z M 754.3 568.2 " fill="#FEFFFE"></path></g></g></g><g opacity="0.37"><g><clipPath id="clip0x600000aa4f80"><path d="M 171.0 0.0 L 800.0 0.0 L 800.0 543.0 L 171.0 543.0 Z M 171.0 0.0 "></path></clipPath><g clip-path="url(#clip0x600000aa4f80)"><path d="M 671.7 450.9 C 794.0 350.0 809.7 170.4 706.8 49.8 C 603.8 -70.9 421.2 -86.9 298.9 14.1 C 176.6 115.0 160.9 294.6 263.8 415.2 C 366.7 535.9 549.4 551.8 671.7 450.9 Z M 671.7 450.9 " fill="#FEFFFE"></path></g></g></g><path d="M 546.3 340.1 C 590.7 282.0 599.5 182.2 565.8 117.3 C 532.1 52.3 468.7 46.8 424.3 104.9 C 379.8 163.0 371.1 262.8 404.8 327.7 C 438.5 392.7 501.8 398.2 546.3 340.1 Z M 546.3 340.1 " fill="#E7A432"></path><g><clipPath id="clip0x600000aa5280"><path d="M 221.4 341.7 C 221.4 306.8 239.4 250.8 279.3 250.8 L 279.3 250.8 C 319.3 250.8 341.3 290.8 354.3 321.7 L 354.3 321.7 C 367.2 352.7 400.2 384.7 423.2 384.7 L 423.2 384.7 C 423.2 384.7 384.2 418.6 326.3 418.6 L 326.3 418.6 C 268.4 418.6 221.4 376.7 221.4 341.7 "></path></clipPath><g clip-path="url(#clip0x600000aa5280)"><g><clipPath id="clip0x600000aa5400"><path d="M 116.5 62.7 L 1011.5 62.7 L 1011.5 644.3 L 116.5 644.3 Z M 116.5 62.7 "></path></clipPath><g clip-path="url(#clip0x600000aa5400)"><image xlink:href="6F146F4E3F962553729F1E6D6E571557.png" width="332.00" height="207.00" transform="matrix(0.87, 0.00, -0.00, -0.87, 139.9, 424.7)"></image></g></g></g></g><g><clipPath id="clip0x6100012b9c20"><path d="M 821.1 631.2 C 758.4 631.2 686.9 614.8 627.9 582.4 L 627.9 582.4 C 526.1 526.5 517.1 408.6 517.1 408.6 L 517.1 408.6 C 517.1 408.6 547.1 440.5 623.0 447.6 L 623.0 447.6 C 686.9 453.6 716.8 419.6 793.8 419.6 L 793.8 419.6 C 870.7 419.6 933.2 492.0 939.6 515.5 L 939.6 515.5 C 944.4 533.3 959.6 603.4 897.6 621.4 L 897.6 621.4 C 875.1 627.9 849.0 631.2 821.1 631.2 L 821.1 631.2 C 821.1 631.2 821.1 631.2 821.1 631.2 "></path></clipPath><g clip-path="url(#clip0x6100012b9c20)"><g><clipPath id="clip0x6100012ba7c0"><path d="M 116.5 62.7 L 1011.5 62.7 L 1011.5 644.3 L 116.5 644.3 Z M 116.5 62.7 "></path></clipPath><g clip-path="url(#clip0x6100012ba7c0)"><image xlink:href="F8867611EA359564AB888DA28F710113.png" width="465.00" height="308.00" transform="matrix(0.93, 0.00, -0.00, -0.93, 516.2, 643.0)"></image></g></g></g></g><g><clipPath id="clip0x618000aa6c60"><path d="M 121.1 543.7 L 121.1 495.9 C 130.9 462.9 162.2 434.0 227.4 435.6 L 227.4 435.6 C 307.3 437.6 358.3 456.6 400.2 445.6 L 400.2 445.6 C 442.2 434.6 479.7 405.3 479.7 405.3 L 479.7 405.3 C 479.7 405.3 445.7 497.1 379.5 554.3 L 379.5 554.3 C 313.3 611.4 296.3 613.4 245.4 617.4 L 245.4 617.4 C 240.6 617.8 235.9 618.0 231.4 618.0 L 231.4 618.0 C 165.4 618.0 131.5 579.1 121.1 543.7 "></path></clipPath><g clip-path="url(#clip0x618000aa6c60)"><g><clipPath id="clip0x618000aa6d80"><path d="M 116.5 62.7 L 1011.5 62.7 L 1011.5 644.3 L 116.5 644.3 Z M 116.5 62.7 "></path></clipPath><g clip-path="url(#clip0x618000aa6d80)"><image xlink:href="A70E0CCE1712A38EF06B4CC8E6C667FC.png" width="402.00" height="268.00" transform="matrix(0.89, 0.00, -0.00, -0.89, 121.1, 644.3)"></image></g></g></g></g><g><clipPath id="clip0x618000aa6e40"><path d="M 581.0 372.7 C 595.0 357.7 617.0 294.8 656.9 204.9 L 656.9 204.9 C 696.9 115.0 751.8 92.0 773.8 89.0 L 773.8 89.0 C 795.8 86.0 820.7 115.0 851.7 147.9 L 851.7 147.9 C 882.7 180.9 895.6 227.8 873.7 297.8 L 873.7 297.8 C 851.7 367.7 785.8 395.7 746.8 396.7 L 746.8 396.7 C 707.9 397.7 548.0 402.6 548.0 402.6 L 548.0 402.6 C 548.0 402.6 567.0 387.7 581.0 372.7 "></path></clipPath><g clip-path="url(#clip0x618000aa6e40)"><g><clipPath id="clip0x618000aa70e0"><path d="M 116.5 62.7 L 1011.5 62.7 L 1011.5 644.3 L 116.5 644.3 Z M 116.5 62.7 "></path></clipPath><g clip-path="url(#clip0x618000aa70e0)"><image xlink:href="C30408EDB4A91597678AB01F926D5A8B.png" width="542.00" height="361.00" transform="matrix(0.90, 0.00, -0.00, -0.90, 526.3, 408.3)"></image></g></g></g></g><g><clipPath id="clip0x6080012b38c0"><path d="M 116.5 644.3 L 1011.5 644.3 L 1011.5 62.7 L 116.5 62.7 Z M 116.5 644.3 "></path></clipPath><g clip-path="url(#clip0x6080012b38c0)"><g><clipPath id="clip0x6080012b3e60"><path d="M 116.5 62.7 L 1011.5 62.7 L 1011.5 644.3 L 116.5 644.3 Z M 116.5 62.7 "></path></clipPath><g clip-path="url(#clip0x6080012b3e60)"><path d="M 811.6 103.4 C 811.9 103.9 812.2 104.5 812.7 104.9 C 818.6 110.0 824.5 115.0 830.5 119.9 C 840.2 127.8 848.7 136.7 855.2 147.5 C 858.1 152.4 861.5 156.9 864.9 161.4 C 872.0 171.0 877.5 181.4 881.4 192.7 C 885.5 205.0 887.3 217.7 887.4 230.6 C 887.4 239.0 887.6 247.5 886.9 255.9 C 885.8 270.5 881.6 284.5 876.8 298.4 C 874.4 305.4 871.5 312.3 867.8 318.7 C 865.7 322.3 863.5 326.0 861.1 329.4 C 856.1 336.3 851.1 343.3 845.7 349.8 C 836.3 361.2 825.3 370.7 812.5 378.2 C 802.1 384.4 791.3 389.7 779.8 393.4 C 771.5 396.1 762.9 397.4 754.3 398.6 C 739.6 400.5 724.8 401.4 709.9 401.7 C 698.0 401.9 686.2 401.7 674.4 400.8 C 665.1 400.1 655.8 401.3 646.5 401.9 C 630.0 402.9 613.5 403.5 597.0 404.2 C 596.6 404.2 596.1 404.3 595.7 404.2 C 586.9 403.1 578.2 404.1 569.5 404.7 C 565.0 404.9 560.6 405.4 556.3 406.1 C 553.8 406.6 551.4 407.7 549.1 408.6 C 547.5 409.2 546.1 409.5 544.9 407.7 C 545.2 404.6 547.7 403.2 550.1 401.9 C 551.7 401.0 553.6 400.4 555.4 400.2 C 565.5 399.2 575.6 397.4 585.6 397.8 C 601.1 398.3 616.6 397.4 632.1 396.8 C 643.0 396.4 654.0 395.4 665.0 395.1 C 671.9 394.9 678.9 395.8 685.9 395.8 C 698.5 395.9 711.1 395.8 723.8 395.7 C 737.4 395.5 751.0 393.7 764.5 391.7 C 776.6 390.0 787.8 385.7 798.7 380.3 C 807.9 375.7 816.8 370.5 824.9 364.0 C 831.4 358.9 837.0 353.0 842.3 346.7 C 849.3 338.4 855.8 329.7 861.4 320.4 C 866.2 312.6 869.7 304.2 872.7 295.6 C 876.0 286.0 878.7 276.1 880.7 266.1 C 882.7 256.4 883.1 246.6 882.8 236.7 C 882.6 228.8 882.2 221.0 881.4 213.2 C 880.6 205.5 878.4 198.2 875.8 191.0 C 873.3 184.0 870.3 177.2 866.2 171.0 C 862.0 164.7 857.3 158.6 852.9 152.4 C 850.3 148.6 847.7 144.7 845.1 140.9 C 840.6 134.5 834.7 129.4 828.8 124.3 C 821.2 117.7 813.6 110.9 805.7 104.4 C 797.9 98.0 789.4 92.9 779.1 91.8 C 771.7 90.9 764.6 92.6 757.6 95.1 C 744.7 99.6 733.5 106.8 723.9 116.4 C 717.3 123.0 710.9 130.0 704.8 137.2 C 698.7 144.5 692.8 152.0 687.4 159.8 C 682.4 167.0 678.1 174.6 673.8 182.2 C 668.3 192.0 663.0 201.9 658.1 211.9 C 654.6 218.9 651.7 226.2 648.6 233.4 C 643.8 244.5 639.2 255.6 634.4 266.7 C 627.4 282.6 620.3 298.5 613.2 314.3 C 606.5 329.4 599.8 344.5 592.7 359.4 C 587.2 371.1 579.1 380.9 568.8 388.8 C 563.9 392.5 558.3 395.2 553.0 398.4 C 551.0 399.6 549.0 400.8 547.1 402.0 C 545.9 402.7 544.8 402.9 543.8 401.8 C 542.8 400.8 542.9 399.4 544.2 398.3 C 546.0 397.0 547.9 395.8 549.8 394.7 C 555.1 391.5 560.8 388.8 565.7 385.0 C 576.4 376.9 584.7 366.6 590.2 354.1 C 600.5 330.8 610.9 307.5 621.1 284.2 C 628.5 267.2 636.1 250.3 643.1 233.2 C 650.8 214.7 659.5 196.8 669.5 179.6 C 673.7 172.5 677.5 165.2 681.9 158.3 C 686.3 151.7 691.1 145.2 696.1 139.0 C 703.8 129.6 711.9 120.5 720.7 112.0 C 732.6 100.3 746.7 92.4 762.8 88.3 C 773.4 85.6 783.9 86.2 793.8 91.3 C 795.6 92.3 797.5 93.3 799.3 94.2 C 803.4 97.3 807.5 100.3 811.6 103.4 " fill="#000000"></path><path d="M 463.1 429.1 C 458.5 439.3 453.9 449.5 449.3 459.7 C 447.8 462.9 446.1 466.0 444.2 469.0 C 440.4 475.4 436.4 481.6 432.6 488.0 C 423.7 502.7 412.7 516.0 401.6 529.1 C 394.4 537.6 387.2 546.1 379.5 554.3 C 364.6 570.1 347.8 583.6 328.3 593.6 C 314.4 600.7 300.0 606.8 284.9 611.0 C 275.0 613.7 264.9 615.0 254.7 614.7 C 246.4 614.5 238.1 614.1 229.8 613.6 C 220.9 613.1 212.3 610.9 203.9 607.9 C 195.6 605.0 187.5 601.9 179.4 598.4 C 169.6 594.1 161.0 587.8 152.9 580.9 C 145.7 574.7 139.4 567.7 135.3 559.1 C 131.1 550.5 127.1 541.8 125.6 532.3 C 123.9 521.5 123.1 510.5 124.6 499.6 C 126.1 488.3 131.1 478.7 138.6 470.4 C 147.9 460.0 159.0 452.3 172.0 447.5 C 187.2 441.9 202.9 438.9 219.1 438.3 C 241.0 437.5 263.0 437.9 284.8 439.8 C 292.9 440.5 300.8 442.0 308.9 443.1 C 316.2 444.0 323.6 444.9 331.0 445.6 C 340.0 446.5 349.0 447.3 358.1 448.0 C 364.3 448.5 370.5 448.9 376.7 448.8 C 394.4 448.5 411.9 446.1 429.0 441.1 C 440.1 437.8 451.0 434.1 460.7 427.5 C 461.9 426.6 463.1 425.8 464.4 425.0 C 464.6 425.1 464.7 425.3 464.9 425.4 C 464.3 426.6 463.6 427.9 463.1 429.1 M 118.1 492.3 C 118.2 492.8 118.3 493.4 118.3 493.9 C 117.9 496.6 117.2 499.3 117.0 502.1 C 115.6 518.0 116.8 533.7 122.9 548.8 C 126.8 558.6 131.1 568.2 138.3 576.1 C 140.6 578.6 143.2 580.9 145.7 583.2 C 153.1 590.2 161.2 596.1 170.2 600.6 C 180.1 605.6 190.5 609.6 201.0 613.0 C 209.3 615.6 217.7 617.6 226.3 618.3 C 234.7 618.9 243.1 618.9 251.5 619.2 C 260.3 619.5 269.0 618.4 277.6 616.7 C 290.2 614.3 302.1 609.8 313.8 604.8 C 328.3 598.5 342.2 591.3 355.2 582.1 C 367.1 573.7 377.9 564.1 387.8 553.4 C 395.6 544.9 403.2 536.0 410.6 527.1 C 419.8 516.2 429.1 505.4 436.9 493.3 C 442.2 484.9 447.9 476.7 452.5 467.8 C 460.0 453.3 466.7 438.3 473.8 423.5 C 475.4 420.0 476.9 416.3 479.2 413.3 C 481.4 410.2 483.6 407.2 485.0 403.7 C 485.4 402.7 486.0 401.9 485.1 401.0 C 484.0 400.0 482.8 399.4 481.4 400.2 C 480.5 400.8 479.8 401.6 479.1 402.4 C 478.4 403.2 477.9 404.3 477.2 405.1 C 473.9 408.5 470.7 411.8 467.4 415.0 C 459.4 422.8 450.4 428.9 439.9 432.8 C 427.3 437.4 414.3 440.7 401.0 442.5 C 389.5 444.0 378.0 444.9 366.5 444.0 C 344.7 442.4 323.0 440.4 301.3 437.3 C 290.1 435.7 278.6 434.8 267.3 434.3 C 255.1 433.7 242.9 433.9 230.7 433.8 C 212.1 433.7 193.9 436.5 176.1 442.1 C 163.7 446.0 152.3 451.7 142.2 460.0 C 133.4 467.3 125.8 475.5 121.1 486.1 C 120.5 487.4 119.6 488.5 118.9 489.7 C 118.6 490.6 118.4 491.4 118.1 492.3 " fill="#000000"></path><path d="M 421.9 141.5 C 421.8 140.9 421.7 140.4 421.8 140.0 C 422.3 134.5 422.7 129.0 423.4 123.5 C 424.3 116.0 426.5 108.8 430.8 102.4 C 433.0 99.1 435.1 95.7 437.6 92.6 C 443.6 85.1 451.0 79.1 459.3 74.3 C 465.5 70.8 472.2 68.9 479.3 68.9 C 488.8 68.9 498.2 69.7 507.0 73.6 C 511.7 75.6 516.4 77.9 521.0 80.4 C 527.8 84.0 533.9 88.6 538.2 95.1 C 542.2 101.1 546.1 107.2 549.8 113.3 C 552.2 117.3 553.8 121.7 554.6 126.4 C 554.9 127.9 555.5 129.6 554.2 131.2 C 552.5 129.9 551.1 128.5 549.5 127.5 C 542.8 123.1 536.0 119.0 529.4 114.5 C 521.6 109.1 512.8 107.0 503.8 106.4 C 494.6 105.8 485.4 106.5 476.2 107.0 C 470.2 107.4 464.4 109.3 459.2 112.4 C 454.1 115.4 448.9 118.4 444.1 122.1 C 436.4 128.0 428.2 133.1 422.6 141.2 C 422.6 141.3 422.4 141.3 421.9 141.5 M 577.8 209.7 L 577.4 209.7 C 577.4 215.1 577.4 220.6 577.4 226.0 C 577.4 229.2 577.5 232.4 577.1 235.6 C 576.5 240.7 575.5 245.7 574.9 250.7 C 574.2 256.2 574.1 261.8 573.1 267.2 C 571.2 277.7 569.0 288.1 566.5 298.4 C 563.9 309.6 559.1 320.0 553.9 330.2 C 548.3 341.1 539.2 349.1 530.1 356.7 C 521.3 364.0 510.6 367.8 499.3 369.1 C 483.0 371.2 466.6 371.0 450.3 368.0 C 439.1 365.9 429.1 361.1 420.7 353.2 C 407.2 340.4 399.3 324.2 393.9 306.8 C 391.1 297.6 389.8 288.0 389.5 278.3 C 389.4 274.0 389.2 269.7 389.1 265.3 C 388.9 257.8 388.7 250.3 388.9 242.7 C 389.0 232.7 391.6 223.0 393.5 213.2 C 396.7 197.6 400.6 182.1 404.0 166.6 C 404.6 164.1 406.2 163.1 408.1 162.3 C 410.7 161.2 413.3 160.4 416.0 159.5 C 425.9 156.0 435.8 152.6 445.7 149.0 C 452.0 146.7 458.0 143.7 464.4 141.6 C 473.4 138.7 482.6 136.8 492.2 137.0 C 499.0 137.1 505.9 137.7 512.8 137.7 C 530.7 137.5 547.7 141.5 564.0 148.8 C 571.8 152.3 571.8 152.4 573.6 160.8 C 575.1 167.9 576.1 175.2 576.4 182.5 C 576.7 191.6 577.3 200.6 577.8 209.7 M 405.6 158.8 C 404.5 159.0 403.5 159.3 402.5 159.2 C 399.0 159.0 398.8 159.0 398.0 162.4 C 396.0 171.1 394.1 179.7 392.1 188.3 C 390.5 195.1 388.7 201.9 387.5 208.7 C 385.4 219.9 382.4 231.0 381.9 242.4 C 381.6 250.6 382.1 258.8 382.3 267.0 C 382.3 269.4 382.5 271.7 382.4 274.0 C 382.2 284.8 383.9 295.5 386.5 305.9 C 388.0 312.1 390.8 318.0 393.2 323.9 C 397.9 336.0 405.1 346.4 414.1 355.6 C 420.0 361.5 427.3 365.6 435.2 368.6 C 446.8 372.9 458.9 373.9 471.2 374.3 C 483.0 374.6 494.9 374.2 506.6 372.0 C 513.5 370.7 520.0 368.2 526.2 365.0 C 533.3 361.3 539.3 356.3 544.8 350.6 C 548.3 346.9 552.0 343.4 555.3 339.5 C 561.6 331.9 565.0 322.7 568.9 313.7 C 573.3 303.8 575.1 293.2 577.6 282.7 C 579.7 273.8 580.9 264.7 581.7 255.5 C 582.1 251.1 583.0 246.7 583.7 242.4 C 584.9 235.7 584.9 228.9 584.5 222.2 C 584.2 218.0 584.2 213.7 584.4 209.5 C 585.1 198.3 584.4 187.1 583.2 176.0 C 582.6 170.1 581.7 164.1 580.7 158.3 C 580.2 155.5 579.3 152.6 578.1 150.0 C 577.5 148.5 576.0 147.4 574.7 146.2 C 574.0 145.6 573.0 145.2 571.9 144.7 C 571.9 141.3 570.6 138.3 568.7 135.5 C 568.3 135.0 568.1 134.3 568.0 133.7 C 566.5 127.1 563.1 121.4 559.3 115.9 C 558.9 115.3 558.6 114.5 558.3 113.8 C 553.3 103.5 547.2 93.9 539.8 85.2 C 537.5 82.6 534.8 80.4 531.9 78.5 C 524.1 73.3 515.8 68.7 506.7 66.0 C 495.0 62.5 483.0 61.4 471.0 64.5 C 463.2 66.5 456.0 70.0 449.7 75.0 C 444.6 79.0 439.6 83.0 435.0 87.6 C 430.0 92.6 426.1 98.6 422.6 104.8 C 420.9 107.6 419.8 110.8 418.4 113.8 C 417.9 114.9 417.3 116.0 416.8 117.1 C 416.3 118.0 415.6 119.0 415.3 120.0 C 413.6 125.7 412.0 131.5 410.3 137.2 C 410.1 138.0 410.0 139.0 409.6 139.7 C 407.3 144.4 407.0 149.5 405.9 154.5 C 405.6 155.7 405.7 156.9 405.6 158.8 " fill="#000000"></path><path d="M 519.6 415.7 C 520.5 416.1 520.9 416.2 521.3 416.4 C 527.7 419.8 534.0 423.2 540.5 426.5 C 548.5 430.5 556.4 434.7 564.6 438.2 C 570.1 440.6 575.9 442.2 581.7 443.8 C 593.3 447.2 605.2 449.4 617.3 449.7 C 629.1 449.9 640.9 449.4 652.5 447.9 C 664.1 446.5 675.7 445.1 687.0 442.7 C 703.6 439.2 719.9 434.7 736.4 430.7 C 744.7 428.6 753.0 426.5 761.4 425.0 C 775.0 422.6 788.7 422.5 802.5 423.6 C 812.1 424.3 821.6 426.2 830.9 428.6 C 843.4 431.8 855.5 435.9 866.2 443.5 C 874.4 449.3 882.6 454.9 890.7 460.7 C 895.8 464.4 901.1 468.0 905.5 472.5 C 912.6 479.7 919.2 487.6 925.9 495.2 C 929.4 499.3 932.0 503.9 934.0 508.9 C 937.2 517.3 939.1 526.1 940.9 534.8 C 941.8 538.7 942.1 542.7 942.4 546.7 C 942.8 551.9 942.8 557.1 943.4 562.3 C 944.4 570.3 942.7 577.5 938.8 584.6 C 932.9 595.2 924.3 603.4 915.0 611.0 C 909.7 615.2 903.8 618.4 897.3 620.7 C 888.4 623.8 879.3 626.4 869.9 627.2 C 858.8 628.1 847.6 628.4 836.5 629.0 C 823.4 629.6 810.4 628.6 797.4 627.0 C 783.7 625.3 770.0 623.4 756.2 621.7 C 743.8 620.1 731.5 617.9 719.4 614.7 C 703.2 610.3 686.8 606.2 671.1 600.0 C 663.4 597.0 655.6 594.2 648.1 590.6 C 639.7 586.6 631.6 582.2 623.6 577.4 C 617.8 574.0 612.2 570.1 606.8 566.0 C 592.1 554.8 579.9 541.0 567.8 527.1 C 559.7 517.7 553.8 506.9 547.5 496.4 C 538.5 481.5 532.3 465.3 527.1 448.8 C 524.2 439.2 522.3 429.3 519.9 419.5 C 519.7 418.4 519.7 417.3 519.6 415.7 M 823.7 634.0 C 839.4 633.3 854.2 632.8 869.0 631.8 C 876.6 631.3 884.1 629.6 891.4 627.1 C 896.3 625.5 901.3 623.9 906.0 621.7 C 913.1 618.6 918.8 613.4 924.6 608.5 C 932.7 601.7 939.0 593.5 943.8 584.1 C 946.6 578.6 948.3 572.8 947.8 566.5 C 947.1 556.6 947.1 546.5 945.7 536.7 C 943.7 523.5 941.0 510.5 934.4 498.7 C 931.3 493.2 927.3 488.5 923.1 483.9 C 917.0 477.4 911.6 470.1 904.4 464.6 C 897.6 459.4 890.6 454.5 883.7 449.5 C 879.6 446.5 875.4 443.6 871.3 440.6 C 859.9 432.2 847.1 427.4 833.6 423.9 C 816.7 419.5 799.6 417.3 782.2 417.9 C 768.4 418.4 754.9 420.7 741.6 424.2 C 723.9 428.8 706.2 433.4 688.4 437.4 C 679.5 439.5 670.4 440.8 661.2 441.8 C 650.6 443.0 639.9 443.9 629.1 444.5 C 620.8 444.9 612.5 444.7 604.3 443.4 C 595.7 442.1 587.4 440.0 579.0 437.6 C 570.0 435.1 561.7 431.0 553.4 426.8 C 545.1 422.6 536.8 418.5 528.4 414.4 C 524.0 412.2 519.9 409.6 516.6 405.9 C 514.8 403.9 513.5 403.5 512.4 404.3 C 511.1 405.1 511.0 406.4 512.4 409.0 C 513.9 412.0 514.0 415.2 514.6 418.3 C 517.5 433.8 521.2 449.0 526.6 463.9 C 534.4 485.1 545.5 504.4 558.3 522.9 C 562.6 529.1 568.0 534.7 573.0 540.4 C 584.1 553.0 596.2 564.6 609.9 574.3 C 616.5 578.9 623.7 582.8 630.6 586.9 C 644.7 595.3 660.0 601.0 675.4 606.4 C 692.4 612.4 709.8 617.2 727.4 621.4 C 736.0 623.4 744.8 624.6 753.5 626.0 C 764.6 627.6 775.7 629.2 786.8 630.4 C 799.3 631.8 811.9 632.9 823.7 634.0 " fill="#000000"></path><path d="M 240.9 386.7 C 250.5 395.9 260.0 402.6 270.7 407.6 C 286.9 415.3 304.0 419.3 321.9 420.3 C 338.1 421.2 354.0 419.0 369.6 414.8 C 373.2 413.8 377.0 413.3 380.6 412.1 C 390.1 408.7 399.3 404.6 407.6 398.7 C 410.5 396.7 413.5 394.8 416.2 392.7 C 418.0 391.3 417.6 388.8 415.7 387.7 C 414.8 387.1 413.7 387.0 413.0 387.9 C 411.4 390.0 409.1 391.1 406.8 392.1 C 406.5 392.3 406.2 392.5 406.0 392.7 C 399.1 398.2 391.0 401.3 383.1 404.6 C 378.2 406.7 372.9 407.6 367.8 409.1 C 357.2 412.2 346.3 413.8 335.4 414.6 C 321.5 415.6 307.8 414.0 294.2 410.6 C 283.8 407.9 273.8 404.4 264.6 399.0 C 252.3 391.8 241.7 382.9 235.2 369.6 C 231.0 360.9 228.1 351.9 226.7 342.5 C 225.4 332.9 226.2 323.4 228.7 314.1 C 231.9 302.7 236.8 291.9 241.5 281.0 C 245.5 271.8 252.5 265.6 261.3 261.2 C 267.5 258.1 273.9 255.6 280.6 254.0 C 288.5 252.1 296.0 253.6 303.2 257.1 C 313.4 262.0 321.4 269.3 327.6 278.9 C 335.6 291.3 342.6 304.3 349.4 317.4 C 354.6 327.5 359.8 337.7 366.9 346.7 C 369.0 349.3 370.4 352.5 372.6 354.9 C 377.3 360.2 382.0 365.6 387.4 370.1 C 392.6 374.5 398.2 378.7 405.1 380.5 C 407.4 381.1 409.8 381.5 412.2 381.8 C 414.3 382.0 415.7 380.4 415.7 378.3 C 415.7 376.5 414.6 375.3 412.6 375.1 C 406.9 374.6 401.8 372.6 396.8 369.6 C 388.2 364.4 381.4 357.3 375.0 349.8 C 369.2 343.1 364.3 335.5 360.1 327.6 C 352.2 312.8 345.1 297.6 336.2 283.5 C 332.1 277.1 328.1 270.7 323.2 265.0 C 317.5 258.1 310.1 253.2 301.8 249.7 C 295.8 247.2 289.7 245.7 283.3 246.6 C 278.9 247.2 274.4 248.4 270.1 249.8 C 263.2 252.1 256.5 255.1 250.4 259.2 C 244.4 263.4 239.7 268.8 236.5 275.4 C 231.5 286.0 226.8 296.6 223.7 307.9 C 219.9 321.3 219.0 335.0 222.7 348.9 C 225.6 359.5 229.4 369.6 235.2 378.9 C 237.1 382.0 239.6 384.9 240.9 386.7 " fill="#000000"></path><path d="M 485.1 174.7 C 480.0 174.8 475.9 175.5 472.2 177.4 C 467.7 179.6 465.1 183.8 462.9 188.3 C 462.0 190.3 461.3 192.4 460.5 194.4 C 460.1 195.6 459.9 196.8 460.9 197.8 C 461.8 198.6 463.6 198.3 464.8 197.2 C 466.7 195.5 468.1 193.5 468.5 191.0 C 469.1 188.0 470.4 185.3 472.6 183.1 C 473.8 181.9 475.3 180.8 476.9 180.3 C 483.7 178.0 492.8 182.0 496.2 188.4 C 496.9 189.6 496.9 190.5 496.4 191.8 C 495.5 193.9 494.8 196.1 494.2 198.4 C 493.9 199.5 493.9 200.7 495.1 201.3 C 496.3 201.8 497.3 201.3 498.0 200.2 C 498.9 198.8 499.9 197.3 500.7 195.7 C 501.2 194.6 501.5 193.4 502.1 192.4 C 503.6 189.7 503.4 187.2 501.9 184.5 C 497.9 177.6 491.5 175.3 485.1 174.7 " fill="#000000"></path><path d="M 553.9 267.2 C 552.1 266.1 550.8 266.7 549.5 267.3 C 546.4 268.7 543.8 270.7 541.7 273.4 C 540.7 274.7 539.5 275.3 537.9 275.5 C 531.7 276.3 526.0 275.1 520.6 271.9 C 517.1 269.9 513.6 267.8 510.1 265.6 C 508.5 264.7 505.1 264.8 504.1 266.3 C 503.7 266.8 503.7 268.0 504.1 268.6 C 504.7 269.5 505.6 270.2 506.6 270.8 C 511.1 273.4 515.6 276.0 520.2 278.4 C 523.8 280.2 527.8 280.7 531.9 280.5 C 534.1 280.4 536.3 280.2 538.5 279.9 C 540.9 279.7 542.9 278.8 544.6 277.0 C 546.9 274.6 549.4 272.4 551.8 270.1 C 552.6 269.3 553.1 268.2 553.9 267.2 " fill="#000000"></path><path d="M 414.8 256.4 C 413.6 256.5 412.0 256.5 410.5 256.8 C 409.0 257.0 408.4 258.2 408.9 259.4 C 409.5 261.1 410.3 263.1 411.6 264.2 C 418.8 270.4 426.5 275.7 436.0 277.8 C 440.0 278.6 443.9 278.5 447.5 276.1 C 449.1 275.0 450.8 273.9 452.4 272.7 C 453.2 272.1 453.2 272.1 453.6 270.2 C 452.0 269.6 450.6 269.9 449.2 270.5 C 448.3 270.9 447.3 271.3 446.5 271.9 C 443.8 274.1 441.0 273.7 437.9 272.8 C 430.1 270.5 424.0 265.6 417.9 260.7 C 416.7 259.8 416.1 258.3 414.8 256.4 " fill="#000000"></path><path d="M 526.7 232.0 C 522.0 232.0 518.9 234.6 519.0 238.3 C 519.0 240.3 519.9 241.9 521.8 242.8 C 525.2 244.5 531.2 243.4 533.4 238.8 C 533.8 238.1 533.7 236.8 533.2 236.1 C 531.6 233.7 529.3 232.2 526.7 232.0 " fill="#000000"></path><path d="M 438.3 248.6 C 440.4 249.3 441.8 248.2 443.0 246.6 C 443.7 245.7 444.4 244.9 445.2 244.1 C 446.6 242.4 446.7 241.3 445.0 239.9 C 444.2 239.2 443.1 238.7 442.1 238.2 C 441.6 237.9 441.0 237.6 440.5 237.2 C 438.7 235.7 436.9 236.0 435.7 238.0 C 435.2 238.9 434.9 239.9 434.1 240.5 C 432.3 241.9 431.8 243.8 432.5 245.8 C 433.2 248.0 435.1 248.7 437.2 248.6 C 437.6 248.6 437.9 248.6 438.3 248.6 " fill="#000000"></path></g></g></g></g><text xml:space="preserve" font-family="HelveticaNeue-Bold,Helvetica Neue" font-weight="bold" font-size="36.0" fill="#FEFFFF" transform="matrix(1.00, 0.00, -0.00, -1.00, 45.0, 699.6)">N</text><text xml:space="preserve" font-family="HelveticaNeue-Bold,Helvetica Neue" font-weight="bold" font-size="36.0" fill="#FEFFFF" transform="matrix(1.00, 0.00, -0.00, -1.00, 71.7, 699.6)">o</text><text xml:space="preserve" font-family="HelveticaNeue-Bold,Helvetica Neue" font-weight="bold" font-size="36.0" fill="#FEFFFF" transform="matrix(1.00, 0.00, -0.00, -1.00, 93.6, 699.6)">w</text><text xml:space="preserve" font-family="HelveticaNeue-Bold,Helvetica Neue" font-weight="bold" font-size="36.0" fill="#FEFFFF" transform="matrix(1.00, 0.00, -0.00, -1.00, 123.0, 699.6)"> </text><text xml:space="preserve" font-family="HelveticaNeue-Bold,Helvetica Neue" font-weight="bold" font-size="36.0" fill="#FEFFFF" transform="matrix(1.00, 0.00, -0.00, -1.00, 133.0, 699.6)">B</text><text xml:space="preserve" font-family="HelveticaNeue-Bold,Helvetica Neue" font-weight="bold" font-size="36.0" fill="#FEFFFF" transform="matrix(1.00, 0.00, -0.00, -1.00, 158.3, 699.6)">o</text><text xml:space="preserve" font-family="HelveticaNeue-Bold,Helvetica Neue" font-weight="bold" font-size="36.0" fill="#FEFFFF" transform="matrix(1.00, 0.00, -0.00, -1.00, 180.3, 699.6)">b</text><text xml:space="preserve" font-family="HelveticaNeue-Bold,Helvetica Neue" font-weight="bold" font-size="36.0" fill="#FEFFFF" transform="matrix(1.00, 0.00, -0.00, -1.00, 202.3, 699.6)"> </text><text xml:space="preserve" font-family="HelveticaNeue-Bold,Helvetica Neue" font-weight="bold" font-size="36.0" fill="#FEFFFF" transform="matrix(1.00, 0.00, -0.00, -1.00, 212.3, 699.6)">i</text><text xml:space="preserve" font-family="HelveticaNeue-Bold,Helvetica Neue" font-weight="bold" font-size="36.0" fill="#FEFFFF" transform="matrix(1.00, 0.00, -0.00, -1.00, 221.6, 699.6)">s</text><text xml:space="preserve" font-family="HelveticaNeue-Bold,Helvetica Neue" font-weight="bold" font-size="36.0" fill="#FEFFFF" transform="matrix(1.00, 0.00, -0.00, -1.00, 240.9, 699.6)"> </text><text xml:space="preserve" font-family="HelveticaNeue-Bold,Helvetica Neue" font-weight="bold" font-size="36.0" fill="#FEFFFF" transform="matrix(1.00, 0.00, -0.00, -1.00, 250.9, 699.6)">m</text><text xml:space="preserve" font-family="HelveticaNeue-Bold,Helvetica Neue" font-weight="bold" font-size="36.0" fill="#FEFFFF" transform="matrix(1.00, 0.00, -0.00, -1.00, 283.5, 699.6)">u</text><text xml:space="preserve" font-family="HelveticaNeue-Bold,Helvetica Neue" font-weight="bold" font-size="36.0" fill="#FEFFFF" transform="matrix(1.00, 0.00, -0.00, -1.00, 304.9, 699.6)">c</text><text xml:space="preserve" font-family="HelveticaNeue-Bold,Helvetica Neue" font-weight="bold" font-size="36.0" fill="#FEFFFF" transform="matrix(1.00, 0.00, -0.00, -1.00, 325.6, 699.6)">h</text><text xml:space="preserve" font-family="HelveticaNeue-Bold,Helvetica Neue" font-weight="bold" font-size="36.0" fill="#FEFFFF" transform="matrix(1.00, 0.00, -0.00, -1.00, 346.9, 699.6)"> </text><text xml:space="preserve" font-family="HelveticaNeue-Bold,Helvetica Neue" font-weight="bold" font-size="36.0" fill="#FEFFFF" transform="matrix(1.00, 0.00, -0.00, -1.00, 356.9, 699.6)">h</text><text xml:space="preserve" font-family="HelveticaNeue-Bold,Helvetica Neue" font-weight="bold" font-size="36.0" fill="#FEFFFF" transform="matrix(1.00, 0.00, -0.00, -1.00, 378.3, 699.6)">a</text><text xml:space="preserve" font-family="HelveticaNeue-Bold,Helvetica Neue" font-weight="bold" font-size="36.0" fill="#FEFFFF" transform="matrix(1.00, 0.00, -0.00, -1.00, 398.9, 699.6)">p</text><text xml:space="preserve" font-family="HelveticaNeue-Bold,Helvetica Neue" font-weight="bold" font-size="36.0" fill="#FEFFFF" transform="matrix(1.00, 0.00, -0.00, -1.00, 420.9, 699.6)">p</text><text xml:space="preserve" font-family="HelveticaNeue-Bold,Helvetica Neue" font-weight="bold" font-size="36.0" fill="#FEFFFF" transform="matrix(1.00, 0.00, -0.00, -1.00, 442.9, 699.6)">i</text><text xml:space="preserve" font-family="HelveticaNeue-Bold,Helvetica Neue" font-weight="bold" font-size="36.0" fill="#FEFFFF" transform="matrix(1.00, 0.00, -0.00, -1.00, 452.2, 699.6)">e</text><text xml:space="preserve" font-family="HelveticaNeue-Bold,Helvetica Neue" font-weight="bold" font-size="36.0" fill="#FEFFFF" transform="matrix(1.00, 0.00, -0.00, -1.00, 472.9, 699.6)">r</text><text xml:space="preserve" font-family="HelveticaNeue-Bold,Helvetica Neue" font-weight="bold" font-size="36.0" fill="#FEFFFF" transform="matrix(1.00, 0.00, -0.00, -1.00, 486.9, 699.6)">!</text><text xml:space="preserve" font-family="HelveticaNeue-Bold,Helvetica Neue" font-weight="bold" font-size="22.0" fill="#000000" transform="matrix(1.00, 0.00, -0.00, -1.00, 357.8, 615.6)">H</text><text xml:space="preserve" font-family="HelveticaNeue-Bold,Helvetica Neue" font-weight="bold" font-size="22.0" fill="#000000" transform="matrix(1.00, 0.00, -0.00, -1.00, 374.1, 615.6)">e</text><text xml:space="preserve" font-family="HelveticaNeue-Bold,Helvetica Neue" font-weight="bold" font-size="22.0" fill="#000000" transform="matrix(1.00, 0.00, -0.00, -1.00, 386.7, 615.6)"> </text><text xml:space="preserve" font-family="HelveticaNeue-Bold,Helvetica Neue" font-weight="bold" font-size="22.0" fill="#000000" transform="matrix(1.00, 0.00, -0.00, -1.00, 392.9, 615.6)">m</text><text xml:space="preserve" font-family="HelveticaNeue-Bold,Helvetica Neue" font-weight="bold" font-size="22.0" fill="#000000" transform="matrix(1.00, 0.00, -0.00, -1.00, 412.8, 615.6)">a</text><text xml:space="preserve" font-family="HelveticaNeue-Bold,Helvetica Neue" font-weight="bold" font-size="22.0" fill="#000000" transform="matrix(1.00, 0.00, -0.00, -1.00, 425.4, 615.6)">k</text><text xml:space="preserve" font-family="HelveticaNeue-Bold,Helvetica Neue" font-weight="bold" font-size="22.0" fill="#000000" transform="matrix(1.00, 0.00, -0.00, -1.00, 438.1, 615.6)">e</text><text xml:space="preserve" font-family="HelveticaNeue-Bold,Helvetica Neue" font-weight="bold" font-size="22.0" fill="#000000" transform="matrix(1.00, 0.00, -0.00, -1.00, 450.7, 615.6)">s</text><text xml:space="preserve" font-family="HelveticaNeue-Bold,Helvetica Neue" font-weight="bold" font-size="22.0" fill="#000000" transform="matrix(1.00, 0.00, -0.00, -1.00, 462.5, 615.6)"> </text><text xml:space="preserve" font-family="HelveticaNeue-Bold,Helvetica Neue" font-weight="bold" font-size="22.0" fill="#000000" transform="matrix(1.00, 0.00, -0.00, -1.00, 468.6, 615.6)">i</text><text xml:space="preserve" font-family="HelveticaNeue-Bold,Helvetica Neue" font-weight="bold" font-size="22.0" fill="#000000" transform="matrix(1.00, 0.00, -0.00, -1.00, 474.3, 615.6)">n</text><text xml:space="preserve" font-family="HelveticaNeue-Bold,Helvetica Neue" font-weight="bold" font-size="22.0" fill="#000000" transform="matrix(1.00, 0.00, -0.00, -1.00, 487.3, 615.6)">s</text><text xml:space="preserve" font-family="HelveticaNeue-Bold,Helvetica Neue" font-weight="bold" font-size="22.0" fill="#000000" transform="matrix(1.00, 0.00, -0.00, -1.00, 499.1, 615.6)">p</text><text xml:space="preserve" font-family="HelveticaNeue-Bold,Helvetica Neue" font-weight="bold" font-size="22.0" fill="#000000" transform="matrix(1.00, 0.00, -0.00, -1.00, 512.6, 615.6)">i</text><text xml:space="preserve" font-family="HelveticaNeue-Bold,Helvetica Neue" font-weight="bold" font-size="22.0" fill="#000000" transform="matrix(1.00, 0.00, -0.00, -1.00, 518.3, 615.6)">r</text><text xml:space="preserve" font-family="HelveticaNeue-Bold,Helvetica Neue" font-weight="bold" font-size="22.0" fill="#000000" transform="matrix(1.00, 0.00, -0.00, -1.00, 526.8, 615.6)">i</text><text xml:space="preserve" font-family="HelveticaNeue-Bold,Helvetica Neue" font-weight="bold" font-size="22.0" fill="#000000" transform="matrix(1.00, 0.00, -0.00, -1.00, 532.5, 615.6)">n</text><text xml:space="preserve" font-family="HelveticaNeue-Bold,Helvetica Neue" font-weight="bold" font-size="22.0" fill="#000000" transform="matrix(1.00, 0.00, -0.00, -1.00, 545.5, 615.6)">g</text><text xml:space="preserve" font-family="HelveticaNeue-Bold,Helvetica Neue" font-weight="bold" font-size="22.0" fill="#000000" transform="matrix(1.00, 0.00, -0.00, -1.00, 559.0, 615.6)"> </text><text xml:space="preserve" font-family="HelveticaNeue-Bold,Helvetica Neue" font-weight="bold" font-size="22.0" fill="#000000" transform="matrix(1.00, 0.00, -0.00, -1.00, 565.1, 615.6)">f</text><text xml:space="preserve" font-family="HelveticaNeue-Bold,Helvetica Neue" font-weight="bold" font-size="22.0" fill="#000000" transform="matrix(1.00, 0.00, -0.00, -1.00, 572.4, 615.6)">o</text><text xml:space="preserve" font-family="HelveticaNeue-Bold,Helvetica Neue" font-weight="bold" font-size="22.0" fill="#000000" transform="matrix(1.00, 0.00, -0.00, -1.00, 585.9, 615.6)">o</text><text xml:space="preserve" font-family="HelveticaNeue-Bold,Helvetica Neue" font-weight="bold" font-size="22.0" fill="#000000" transform="matrix(1.00, 0.00, -0.00, -1.00, 599.3, 615.6)">d</text><text xml:space="preserve" font-family="HelveticaNeue-Bold,Helvetica Neue" font-weight="bold" font-size="22.0" fill="#000000" transform="matrix(1.00, 0.00, -0.00, -1.00, 69.3, 193.6)">H</text><text xml:space="preserve" font-family="HelveticaNeue-Bold,Helvetica Neue" font-weight="bold" font-size="22.0" fill="#000000" transform="matrix(1.00, 0.00, -0.00, -1.00, 85.6, 193.6)">e</text><text xml:space="preserve" font-family="HelveticaNeue-Bold,Helvetica Neue" font-weight="bold" font-size="22.0" fill="#000000" transform="matrix(1.00, 0.00, -0.00, -1.00, 98.2, 193.6)"> </text><text xml:space="preserve" font-family="HelveticaNeue-Bold,Helvetica Neue" font-weight="bold" font-size="22.0" fill="#000000" transform="matrix(1.00, 0.00, -0.00, -1.00, 104.4, 193.6)">w</text><text xml:space="preserve" font-family="HelveticaNeue-Bold,Helvetica Neue" font-weight="bold" font-size="22.0" fill="#000000" transform="matrix(1.00, 0.00, -0.00, -1.00, 122.3, 193.6)">a</text><text xml:space="preserve" font-family="HelveticaNeue-Bold,Helvetica Neue" font-weight="bold" font-size="22.0" fill="#000000" transform="matrix(1.00, 0.00, -0.00, -1.00, 134.9, 193.6)">s</text><text xml:space="preserve" font-family="HelveticaNeue-Bold,Helvetica Neue" font-weight="bold" font-size="22.0" fill="#000000" transform="matrix(1.00, 0.00, -0.00, -1.00, 146.7, 193.6)">t</text><text xml:space="preserve" font-family="HelveticaNeue-Bold,Helvetica Neue" font-weight="bold" font-size="22.0" fill="#000000" transform="matrix(1.00, 0.00, -0.00, -1.00, 154.4, 193.6)">e</text><text xml:space="preserve" font-family="HelveticaNeue-Bold,Helvetica Neue" font-weight="bold" font-size="22.0" fill="#000000" transform="matrix(1.00, 0.00, -0.00, -1.00, 167.1, 193.6)">s</text><text xml:space="preserve" font-family="HelveticaNeue-Bold,Helvetica Neue" font-weight="bold" font-size="22.0" fill="#000000" transform="matrix(1.00, 0.00, -0.00, -1.00, 178.9, 193.6)"> </text><text xml:space="preserve" font-family="HelveticaNeue-Bold,Helvetica Neue" font-weight="bold" font-size="22.0" fill="#000000" transform="matrix(1.00, 0.00, -0.00, -1.00, 185.0, 193.6)">l</text><text xml:space="preserve" font-family="HelveticaNeue-Bold,Helvetica Neue" font-weight="bold" font-size="22.0" fill="#000000" transform="matrix(1.00, 0.00, -0.00, -1.00, 190.7, 193.6)">e</text><text xml:space="preserve" font-family="HelveticaNeue-Bold,Helvetica Neue" font-weight="bold" font-size="22.0" fill="#000000" transform="matrix(1.00, 0.00, -0.00, -1.00, 203.3, 193.6)">s</text><text xml:space="preserve" font-family="HelveticaNeue-Bold,Helvetica Neue" font-weight="bold" font-size="22.0" fill="#000000" transform="matrix(1.00, 0.00, -0.00, -1.00, 215.1, 193.6)">s</text><text xml:space="preserve" font-family="HelveticaNeue-Bold,Helvetica Neue" font-weight="bold" font-size="22.0" fill="#000000" transform="matrix(1.00, 0.00, -0.00, -1.00, 226.9, 193.6)"> </text><text xml:space="preserve" font-family="HelveticaNeue-Bold,Helvetica Neue" font-weight="bold" font-size="22.0" fill="#000000" transform="matrix(1.00, 0.00, -0.00, -1.00, 233.1, 193.6)">f</text><text xml:space="preserve" font-family="HelveticaNeue-Bold,Helvetica Neue" font-weight="bold" font-size="22.0" fill="#000000" transform="matrix(1.00, 0.00, -0.00, -1.00, 240.4, 193.6)">o</text><text xml:space="preserve" font-family="HelveticaNeue-Bold,Helvetica Neue" font-weight="bold" font-size="22.0" fill="#000000" transform="matrix(1.00, 0.00, -0.00, -1.00, 253.8, 193.6)">o</text><text xml:space="preserve" font-family="HelveticaNeue-Bold,Helvetica Neue" font-weight="bold" font-size="22.0" fill="#000000" transform="matrix(1.00, 0.00, -0.00, -1.00, 267.3, 193.6)">d</text><text xml:space="preserve" font-family="HelveticaNeue-Bold,Helvetica Neue" font-weight="bold" font-size="22.0" fill="#000000" transform="matrix(1.00, 0.00, -0.00, -1.00, 280.7, 193.6)"> </text><text xml:space="preserve" font-family="HelveticaNeue-Bold,Helvetica Neue" font-weight="bold" font-size="22.0" fill="#000000" transform="matrix(1.00, 0.00, -0.00, -1.00, 286.8, 193.6)">a</text><text xml:space="preserve" font-family="HelveticaNeue-Bold,Helvetica Neue" font-weight="bold" font-size="22.0" fill="#000000" transform="matrix(1.00, 0.00, -0.00, -1.00, 299.4, 193.6)">n</text><text xml:space="preserve" font-family="HelveticaNeue-Bold,Helvetica Neue" font-weight="bold" font-size="22.0" fill="#000000" transform="matrix(1.00, 0.00, -0.00, -1.00, 312.5, 193.6)">d</text><text xml:space="preserve" font-family="HelveticaNeue-Bold,Helvetica Neue" font-weight="bold" font-size="22.0" fill="#000000" transform="matrix(1.00, 0.00, -0.00, -1.00, 325.9, 193.6)"> </text><text xml:space="preserve" font-family="HelveticaNeue-Bold,Helvetica Neue" font-weight="bold" font-size="22.0" fill="#000000" transform="matrix(1.00, 0.00, -0.00, -1.00, 332.1, 193.6)"> </text><text xml:space="preserve" font-family="HelveticaNeue-Bold,Helvetica Neue" font-weight="bold" font-size="22.0" fill="#000000" transform="matrix(1.00, 0.00, -0.00, -1.00, 81.1, 166.6)">h</text><text xml:space="preserve" font-family="HelveticaNeue-Bold,Helvetica Neue" font-weight="bold" font-size="22.0" fill="#000000" transform="matrix(1.00, 0.00, -0.00, -1.00, 94.1, 166.6)">e</text><text xml:space="preserve" font-family="HelveticaNeue-Bold,Helvetica Neue" font-weight="bold" font-size="22.0" fill="#000000" transform="matrix(1.00, 0.00, -0.00, -1.00, 106.8, 166.6)">l</text><text xml:space="preserve" font-family="HelveticaNeue-Bold,Helvetica Neue" font-weight="bold" font-size="22.0" fill="#000000" transform="matrix(1.00, 0.00, -0.00, -1.00, 112.4, 166.6)">p</text><text xml:space="preserve" font-family="HelveticaNeue-Bold,Helvetica Neue" font-weight="bold" font-size="22.0" fill="#000000" transform="matrix(1.00, 0.00, -0.00, -1.00, 125.9, 166.6)">s</text><text xml:space="preserve" font-family="HelveticaNeue-Bold,Helvetica Neue" font-weight="bold" font-size="22.0" fill="#000000" transform="matrix(1.00, 0.00, -0.00, -1.00, 137.7, 166.6)"> </text><text xml:space="preserve" font-family="HelveticaNeue-Bold,Helvetica Neue" font-weight="bold" font-size="22.0" fill="#000000" transform="matrix(1.00, 0.00, -0.00, -1.00, 143.8, 166.6)">t</text><text xml:space="preserve" font-family="HelveticaNeue-Bold,Helvetica Neue" font-weight="bold" font-size="22.0" fill="#000000" transform="matrix(1.00, 0.00, -0.00, -1.00, 151.6, 166.6)">h</text><text xml:space="preserve" font-family="HelveticaNeue-Bold,Helvetica Neue" font-weight="bold" font-size="22.0" fill="#000000" transform="matrix(1.00, 0.00, -0.00, -1.00, 164.6, 166.6)">e</text><text xml:space="preserve" font-family="HelveticaNeue-Bold,Helvetica Neue" font-weight="bold" font-size="22.0" fill="#000000" transform="matrix(1.00, 0.00, -0.00, -1.00, 177.2, 166.6)"> </text><text xml:space="preserve" font-family="HelveticaNeue-Bold,Helvetica Neue" font-weight="bold" font-size="22.0" fill="#000000" transform="matrix(1.00, 0.00, -0.00, -1.00, 183.4, 166.6)">e</text><text xml:space="preserve" font-family="HelveticaNeue-Bold,Helvetica Neue" font-weight="bold" font-size="22.0" fill="#000000" transform="matrix(1.00, 0.00, -0.00, -1.00, 196.0, 166.6)">n</text><text xml:space="preserve" font-family="HelveticaNeue-Bold,Helvetica Neue" font-weight="bold" font-size="22.0" fill="#000000" transform="matrix(1.00, 0.00, -0.00, -1.00, 209.0, 166.6)">v</text><text xml:space="preserve" font-family="HelveticaNeue-Bold,Helvetica Neue" font-weight="bold" font-size="22.0" fill="#000000" transform="matrix(1.00, 0.00, -0.00, -1.00, 220.5, 166.6)">i</text><text xml:space="preserve" font-family="HelveticaNeue-Bold,Helvetica Neue" font-weight="bold" font-size="22.0" fill="#000000" transform="matrix(1.00, 0.00, -0.00, -1.00, 226.1, 166.6)">r</text><text xml:space="preserve" font-family="HelveticaNeue-Bold,Helvetica Neue" font-weight="bold" font-size="22.0" fill="#000000" transform="matrix(1.00, 0.00, -0.00, -1.00, 234.3, 166.6)">o</text><text xml:space="preserve" font-family="HelveticaNeue-Bold,Helvetica Neue" font-weight="bold" font-size="22.0" fill="#000000" transform="matrix(1.00, 0.00, -0.00, -1.00, 247.7, 166.6)">n</text><text xml:space="preserve" font-family="HelveticaNeue-Bold,Helvetica Neue" font-weight="bold" font-size="22.0" fill="#000000" transform="matrix(1.00, 0.00, -0.00, -1.00, 260.8, 166.6)">m</text><text xml:space="preserve" font-family="HelveticaNeue-Bold,Helvetica Neue" font-weight="bold" font-size="22.0" fill="#000000" transform="matrix(1.00, 0.00, -0.00, -1.00, 280.7, 166.6)">e</text><text xml:space="preserve" font-family="HelveticaNeue-Bold,Helvetica Neue" font-weight="bold" font-size="22.0" fill="#000000" transform="matrix(1.00, 0.00, -0.00, -1.00, 293.4, 166.6)">n</text><text xml:space="preserve" font-family="HelveticaNeue-Bold,Helvetica Neue" font-weight="bold" font-size="22.0" fill="#000000" transform="matrix(1.00, 0.00, -0.00, -1.00, 306.4, 166.6)">t</text><text xml:space="preserve" font-family="HelveticaNeue-Bold,Helvetica Neue" font-weight="bold" font-size="22.0" fill="#000000" transform="matrix(1.00, 0.00, -0.00, -1.00, 636.9, 37.1)">H</text><text xml:space="preserve" font-family="HelveticaNeue-Bold,Helvetica Neue" font-weight="bold" font-size="22.0" fill="#000000" transform="matrix(1.00, 0.00, -0.00, -1.00, 653.2, 37.1)">i</text><text xml:space="preserve" font-family="HelveticaNeue-Bold,Helvetica Neue" font-weight="bold" font-size="22.0" fill="#000000" transform="matrix(1.00, 0.00, -0.00, -1.00, 658.9, 37.1)">s</text><text xml:space="preserve" font-family="HelveticaNeue-Bold,Helvetica Neue" font-weight="bold" font-size="22.0" fill="#000000" transform="matrix(1.00, 0.00, -0.00, -1.00, 670.7, 37.1)"> </text><text xml:space="preserve" font-family="HelveticaNeue-Bold,Helvetica Neue" font-weight="bold" font-size="22.0" fill="#000000" transform="matrix(1.00, 0.00, -0.00, -1.00, 676.8, 37.1)">f</text><text xml:space="preserve" font-family="HelveticaNeue-Bold,Helvetica Neue" font-weight="bold" font-size="22.0" fill="#000000" transform="matrix(1.00, 0.00, -0.00, -1.00, 684.1, 37.1)">r</text><text xml:space="preserve" font-family="HelveticaNeue-Bold,Helvetica Neue" font-weight="bold" font-size="22.0" fill="#000000" transform="matrix(1.00, 0.00, -0.00, -1.00, 692.7, 37.1)">i</text><text xml:space="preserve" font-family="HelveticaNeue-Bold,Helvetica Neue" font-weight="bold" font-size="22.0" fill="#000000" transform="matrix(1.00, 0.00, -0.00, -1.00, 698.4, 37.1)">d</text><text xml:space="preserve" font-family="HelveticaNeue-Bold,Helvetica Neue" font-weight="bold" font-size="22.0" fill="#000000" transform="matrix(1.00, 0.00, -0.00, -1.00, 711.8, 37.1)">g</text><text xml:space="preserve" font-family="HelveticaNeue-Bold,Helvetica Neue" font-weight="bold" font-size="22.0" fill="#000000" transform="matrix(1.00, 0.00, -0.00, -1.00, 725.3, 37.1)">e</text><text xml:space="preserve" font-family="HelveticaNeue-Bold,Helvetica Neue" font-weight="bold" font-size="22.0" fill="#000000" transform="matrix(1.00, 0.00, -0.00, -1.00, 737.9, 37.1)"> </text><text xml:space="preserve" font-family="HelveticaNeue-Bold,Helvetica Neue" font-weight="bold" font-size="22.0" fill="#000000" transform="matrix(1.00, 0.00, -0.00, -1.00, 744.0, 37.1)">i</text><text xml:space="preserve" font-family="HelveticaNeue-Bold,Helvetica Neue" font-weight="bold" font-size="22.0" fill="#000000" transform="matrix(1.00, 0.00, -0.00, -1.00, 749.7, 37.1)">s</text><text xml:space="preserve" font-family="HelveticaNeue-Bold,Helvetica Neue" font-weight="bold" font-size="22.0" fill="#000000" transform="matrix(1.00, 0.00, -0.00, -1.00, 761.5, 37.1)"> </text><text xml:space="preserve" font-family="HelveticaNeue-Bold,Helvetica Neue" font-weight="bold" font-size="22.0" fill="#000000" transform="matrix(1.00, 0.00, -0.00, -1.00, 767.6, 37.1)">t</text><text xml:space="preserve" font-family="HelveticaNeue-Bold,Helvetica Neue" font-weight="bold" font-size="22.0" fill="#000000" transform="matrix(1.00, 0.00, -0.00, -1.00, 775.3, 37.1)">i</text><text xml:space="preserve" font-family="HelveticaNeue-Bold,Helvetica Neue" font-weight="bold" font-size="22.0" fill="#000000" transform="matrix(1.00, 0.00, -0.00, -1.00, 781.0, 37.1)">d</text><text xml:space="preserve" font-family="HelveticaNeue-Bold,Helvetica Neue" font-weight="bold" font-size="22.0" fill="#000000" transform="matrix(1.00, 0.00, -0.00, -1.00, 794.5, 37.1)">y</text><text xml:space="preserve" font-family="HelveticaNeue-Bold,Helvetica Neue" font-weight="bold" font-size="22.0" fill="#000000" transform="matrix(1.00, 0.00, -0.00, -1.00, 805.9, 37.1)"> </text><text xml:space="preserve" font-family="HelveticaNeue-Bold,Helvetica Neue" font-weight="bold" font-size="22.0" fill="#000000" transform="matrix(1.00, 0.00, -0.00, -1.00, 812.0, 37.1)">l</text><text xml:space="preserve" font-family="HelveticaNeue-Bold,Helvetica Neue" font-weight="bold" font-size="22.0" fill="#000000" transform="matrix(1.00, 0.00, -0.00, -1.00, 817.7, 37.1)">i</text><text xml:space="preserve" font-family="HelveticaNeue-Bold,Helvetica Neue" font-weight="bold" font-size="22.0" fill="#000000" transform="matrix(1.00, 0.00, -0.00, -1.00, 823.4, 37.1)">k</text><text xml:space="preserve" font-family="HelveticaNeue-Bold,Helvetica Neue" font-weight="bold" font-size="22.0" fill="#000000" transform="matrix(1.00, 0.00, -0.00, -1.00, 836.0, 37.1)">e</text><text xml:space="preserve" font-family="HelveticaNeue-Bold,Helvetica Neue" font-weight="bold" font-size="22.0" fill="#000000" transform="matrix(1.00, 0.00, -0.00, -1.00, 848.6, 37.1)"> </text><text xml:space="preserve" font-family="HelveticaNeue-Bold,Helvetica Neue" font-weight="bold" font-size="22.0" fill="#000000" transform="matrix(1.00, 0.00, -0.00, -1.00, 854.7, 37.1)">n</text><text xml:space="preserve" font-family="HelveticaNeue-Bold,Helvetica Neue" font-weight="bold" font-size="22.0" fill="#000000" transform="matrix(1.00, 0.00, -0.00, -1.00, 867.8, 37.1)">e</text><text xml:space="preserve" font-family="HelveticaNeue-Bold,Helvetica Neue" font-weight="bold" font-size="22.0" fill="#000000" transform="matrix(1.00, 0.00, -0.00, -1.00, 880.4, 37.1)">v</text><text xml:space="preserve" font-family="HelveticaNeue-Bold,Helvetica Neue" font-weight="bold" font-size="22.0" fill="#000000" transform="matrix(1.00, 0.00, -0.00, -1.00, 891.8, 37.1)">e</text><text xml:space="preserve" font-family="HelveticaNeue-Bold,Helvetica Neue" font-weight="bold" font-size="22.0" fill="#000000" transform="matrix(1.00, 0.00, -0.00, -1.00, 904.5, 37.1)">r</text><text xml:space="preserve" font-family="HelveticaNeue-Bold,Helvetica Neue" font-weight="bold" font-size="22.0" fill="#000000" transform="matrix(1.00, 0.00, -0.00, -1.00, 913.0, 37.1)"> </text><text xml:space="preserve" font-family="HelveticaNeue-Bold,Helvetica Neue" font-weight="bold" font-size="22.0" fill="#000000" transform="matrix(1.00, 0.00, -0.00, -1.00, 919.1, 37.1)">b</text><text xml:space="preserve" font-family="HelveticaNeue-Bold,Helvetica Neue" font-weight="bold" font-size="22.0" fill="#000000" transform="matrix(1.00, 0.00, -0.00, -1.00, 932.6, 37.1)">e</text><text xml:space="preserve" font-family="HelveticaNeue-Bold,Helvetica Neue" font-weight="bold" font-size="22.0" fill="#000000" transform="matrix(1.00, 0.00, -0.00, -1.00, 945.2, 37.1)">f</text><text xml:space="preserve" font-family="HelveticaNeue-Bold,Helvetica Neue" font-weight="bold" font-size="22.0" fill="#000000" transform="matrix(1.00, 0.00, -0.00, -1.00, 952.5, 37.1)">o</text><text xml:space="preserve" font-family="HelveticaNeue-Bold,Helvetica Neue" font-weight="bold" font-size="22.0" fill="#000000" transform="matrix(1.00, 0.00, -0.00, -1.00, 966.0, 37.1)">r</text><text xml:space="preserve" font-family="HelveticaNeue-Bold,Helvetica Neue" font-weight="bold" font-size="22.0" fill="#000000" transform="matrix(1.00, 0.00, -0.00, -1.00, 974.1, 37.1)">e</text><text xml:space="preserve" font-family="HelveticaNeue-Bold,Helvetica Neue" font-weight="bold" font-size="22.0" fill="#000000" transform="matrix(1.00, 0.00, -0.00, -1.00, 986.8, 37.1)">.</text></g></svg>