<?xml version="1.0" encoding="UTF-8" standalone="no"?><svg xmlns="http://www.w3.org/2000/svg" xmlns:xlink="http://www.w3.org/1999/xlink" clip-rule="evenodd" stroke-miterlimit="10" viewBox="0 0 1024 768"><desc>SVG generated by Keynote</desc><defs><linearGradient id="gradSh1.3" x1="0.0" y1="0.0" x2="100.0" y2="0.0" gradientUnits="userSpaceOnUse" gradientTransform="matrix(0.71, -5.06, -2.56, -0.36, 279.2, 632.2)"><stop offset="0.00000" stop-color="#E5EAE8"></stop><stop offset="0.01246" stop-color="#E4EAE8"></stop><stop offset="1.00000" stop-color="#C5CFDE"></stop></linearGradient></defs><g transform="matrix(1.00, 0.00, -0.00, -1.00, 0.0, 768.0)"><path d="M 0.0 768.0 L 1024.0 768.0 L 1024.0 0.0 L 0.0 0.0 Z M 0.0 768.0 " fill="#00A6AC"></path><g opacity="0.37"><g><clipPath id="clip0x6080010adf80"><path d="M 103.0 0.0 L 921.0 0.0 L 921.0 768.0 L 103.0 768.0 Z M 103.0 0.0 "></path></clipPath><g clip-path="url(#clip0x6080010adf80)"><path d="M 753.4 651.8 C 912.7 516.0 933.8 275.0 800.5 113.6 C 667.2 -47.8 429.9 -68.6 270.6 67.2 C 111.3 203.0 90.2 444.0 223.5 605.4 C 356.8 766.8 594.1 787.6 753.4 651.8 Z M 753.4 651.8 " fill="#FEFFFE"></path></g></g></g><g><clipPath id="clip0x6080010ae1c0"><path d="M 217.5 148.5 L 157.7 574.4 C 154.6 596.0 169.6 615.8 191.1 618.9 L 367.5 643.6 C 389.0 646.7 408.8 631.7 411.9 610.2 L 471.7 184.2 C 474.8 162.7 459.8 142.8 438.3 139.8 L 261.9 115.0 C 240.4 112.0 220.6 127.0 217.5 148.5 Z M 217.5 148.5 "></path></clipPath><g clip-path="url(#clip0x6080010ae1c0)"><path d="M 217.5 148.5 L 157.7 574.4 C 154.6 596.0 169.6 615.8 191.1 618.9 L 367.5 643.6 C 389.0 646.7 408.8 631.7 411.9 610.2 L 471.7 184.2 C 474.8 162.7 459.8 142.8 438.3 139.8 L 261.9 115.0 C 240.4 112.0 220.6 127.0 217.5 148.5 Z M 217.5 148.5 " fill="url(#gradSh1.3)"></path></g></g><path d="M 845.0 222.5 L 881.0 204.7 L 859.3 185.0 L 481.3 185.0 L 473.0 212.7 L 495.3 237.8 L 845.0 222.5 Z M 845.0 222.5 " fill="#2F8B16"></path><path d="M 493.0 383.0 L 842.0 383.0 L 842.0 208.0 L 493.0 208.0 Z M 493.0 383.1 " fill="#E7A432"></path><path d="M 582.0 376.0 L 753.0 376.0 L 753.0 201.0 L 582.0 201.0 Z M 582.2 376.1 " fill="#00A6AC"></path><path d="M 565.0 536.0 L 790.0 536.0 L 790.0 499.0 L 565.0 499.0 Z M 565.2 536.2 " fill="#00A6AC"></path><path d="M 450.5 394.6 L 506.0 500.9 L 849.9 490.0 L 893.4 408.9 L 880.2 367.6 L 468.1 364.5 L 450.5 394.6 Z M 450.5 394.6 " fill="#D35854"></path><g><clipPath id="clip0x6080012ae820"><path d="M 440.3 541.9 L 895.3 541.9 L 895.3 192.5 L 440.3 192.5 Z M 440.3 541.9 "></path></clipPath><g clip-path="url(#clip0x6080012ae820)"><g><clipPath id="clip0x6080012ae9a0"><path d="M 440.3 192.5 L 895.3 192.5 L 895.3 541.9 L 440.3 541.9 Z M 440.3 192.5 "></path></clipPath><g clip-path="url(#clip0x6080012ae9a0)"><path d="M 888.5 410.0 C 888.6 410.1 888.8 410.3 888.9 410.4 C 888.4 411.3 888.0 412.2 887.4 413.0 C 885.5 415.3 884.1 417.8 882.9 420.5 C 882.6 421.1 882.3 421.7 881.8 422.2 C 878.9 424.9 877.0 428.3 875.4 431.8 C 871.9 439.7 868.5 447.6 865.0 455.5 C 864.5 456.5 863.9 457.4 863.3 458.3 C 861.3 461.1 859.3 463.8 857.3 466.6 C 853.9 471.3 851.2 476.5 847.1 480.6 C 845.8 482.0 844.4 483.3 843.2 484.8 C 842.3 486.1 841.1 486.6 839.6 486.7 C 834.2 487.2 828.9 487.6 823.6 488.2 C 813.0 489.3 802.3 489.7 791.6 489.8 C 787.3 489.8 783.0 489.8 778.7 490.0 C 773.3 490.2 768.0 490.6 762.7 490.9 C 757.2 491.2 751.6 491.3 746.1 491.8 C 733.6 492.9 721.0 493.0 708.4 493.1 C 701.6 493.1 694.8 493.0 688.0 493.3 C 678.4 493.7 668.8 493.4 659.3 493.1 C 652.2 492.8 645.1 492.9 638.1 493.3 C 628.4 494.0 618.7 494.1 608.9 494.2 C 608.5 494.2 608.1 494.1 607.8 494.0 C 607.7 492.7 607.6 491.5 607.4 490.3 C 605.3 480.5 603.3 470.7 601.2 460.8 C 598.9 450.3 597.4 439.6 596.5 428.8 C 596.1 423.8 595.9 418.8 595.7 413.8 C 595.7 412.2 595.2 410.9 594.2 409.8 C 593.2 408.7 592.0 408.7 591.2 409.9 C 590.4 411.0 590.4 412.2 591.0 413.3 C 591.6 414.5 591.7 415.7 591.7 417.0 C 591.8 423.2 592.3 429.3 593.2 435.4 C 594.1 441.1 595.1 446.7 596.2 452.3 C 597.0 456.6 598.0 460.9 599.0 465.1 C 600.3 470.6 601.7 476.1 603.0 481.6 C 604.0 485.8 605.0 490.0 606.9 493.9 C 606.6 494.0 606.3 494.2 606.1 494.2 C 604.4 494.2 602.7 494.2 601.1 494.2 C 592.5 494.3 583.9 494.6 575.4 494.5 C 566.0 494.4 556.7 493.9 547.4 493.4 C 541.7 493.2 536.0 493.4 530.4 493.7 C 524.6 494.1 518.7 494.2 512.9 494.4 C 510.7 494.5 508.5 494.4 506.4 494.6 C 504.6 494.8 504.6 494.9 503.7 493.3 C 502.0 490.6 500.4 487.7 498.6 485.0 C 495.6 480.3 492.3 475.7 490.3 470.3 C 490.1 469.8 489.6 469.4 489.2 469.0 C 487.8 467.6 486.1 466.5 485.2 464.6 C 483.6 461.3 481.7 458.2 480.4 454.8 C 477.6 447.3 474.6 439.8 470.9 432.6 C 464.9 421.0 458.7 409.6 450.9 399.1 C 450.7 399.0 450.7 398.7 450.5 398.2 C 451.7 398.6 452.7 398.8 453.6 399.1 C 458.8 401.0 464.0 402.4 469.4 403.5 C 478.5 405.4 487.8 406.4 497.2 406.3 C 506.2 406.2 515.1 405.8 524.1 405.6 C 532.5 405.4 540.9 405.3 549.3 405.2 C 564.8 405.1 580.3 404.9 595.8 404.8 C 606.0 404.7 616.2 404.8 626.3 404.8 C 635.5 404.8 644.8 404.7 654.0 404.7 C 672.1 404.7 690.2 404.8 708.4 404.9 C 723.3 405.1 738.2 405.5 753.2 405.8 C 761.5 406.0 769.8 406.2 778.2 406.5 C 789.7 406.9 801.1 407.3 812.7 407.6 C 826.6 408.0 840.5 408.2 854.4 408.4 C 862.2 408.5 869.9 408.4 877.7 408.5 C 880.5 408.5 883.3 408.6 886.1 408.7 C 886.4 408.7 886.6 408.8 887.0 408.9 L 887.0 410.5 C 887.5 410.3 888.0 410.1 888.5 410.0 M 440.3 392.8 C 444.3 398.1 448.5 403.3 452.3 408.7 C 456.9 415.2 460.7 422.2 464.4 429.3 C 467.2 434.8 470.0 440.4 472.6 446.0 C 474.7 450.9 476.4 456.0 478.5 460.9 C 480.9 466.6 483.6 472.3 487.2 477.4 C 489.9 481.2 492.3 485.2 495.0 489.0 C 496.9 491.7 498.4 494.7 499.5 497.8 C 500.2 499.7 501.6 500.8 503.7 500.8 C 505.5 500.8 507.2 500.6 509.0 500.5 C 510.0 500.5 510.9 500.5 511.9 500.6 C 515.3 501.0 518.8 500.9 522.3 500.6 C 525.4 500.3 528.5 500.3 531.7 500.2 C 535.1 500.0 538.5 499.6 541.9 499.6 C 547.6 499.6 553.2 500.0 558.9 500.1 C 559.0 500.2 559.1 500.2 559.5 500.5 C 558.7 500.7 558.2 500.8 557.7 500.9 C 556.0 501.2 554.5 501.8 554.0 503.6 C 553.5 505.1 552.8 506.6 552.6 508.1 C 551.4 515.7 550.9 523.4 550.9 531.1 C 550.9 534.1 552.1 535.6 554.4 536.8 C 555.1 537.2 555.9 537.7 556.8 537.9 C 561.6 538.9 566.3 540.0 571.2 540.5 C 575.8 541.0 580.6 540.9 585.3 540.8 C 589.1 540.7 593.0 540.1 596.8 539.8 C 603.3 539.3 609.8 538.7 616.2 538.4 C 621.2 538.2 626.1 538.3 631.1 538.3 C 637.7 538.4 644.3 538.4 650.9 538.7 C 656.6 538.9 662.3 539.5 668.0 540.0 C 674.1 540.4 680.2 541.0 686.3 541.3 C 691.1 541.6 695.9 541.7 700.8 541.6 C 705.3 541.6 709.8 541.0 714.3 540.9 C 718.9 540.7 723.6 540.7 728.2 540.8 C 735.2 540.9 742.3 541.3 749.3 541.4 C 756.7 541.6 764.0 541.8 771.3 541.9 C 776.9 541.9 782.4 541.5 788.0 540.8 C 790.5 540.4 792.9 540.1 795.4 539.8 C 797.6 539.5 799.4 537.6 799.5 534.9 C 799.5 531.8 799.3 528.6 798.9 525.6 C 798.1 518.7 797.9 511.9 798.5 505.0 C 798.6 503.5 798.3 501.9 798.0 500.4 C 797.6 498.9 796.5 498.2 795.4 498.3 C 794.4 498.4 792.7 500.1 792.6 501.2 C 791.9 509.5 791.3 517.8 791.9 526.1 C 792.1 528.5 792.2 530.9 792.3 533.3 C 792.3 533.8 792.3 534.2 792.2 534.8 C 790.3 535.1 788.4 535.3 786.5 535.5 C 780.5 536.2 774.5 536.5 768.5 536.3 C 762.3 536.2 756.1 536.1 750.0 535.9 C 742.5 535.7 735.0 535.5 727.5 535.2 C 721.1 535.0 714.8 535.6 708.4 536.1 C 702.1 536.6 695.9 536.8 689.6 536.3 C 681.3 535.7 673.0 535.1 664.7 534.3 C 654.9 533.4 645.0 533.1 635.2 533.3 C 628.8 533.4 622.5 533.2 616.1 533.4 C 611.5 533.5 607.0 534.0 602.4 534.3 C 596.9 534.7 591.4 535.3 585.9 535.6 C 583.0 535.8 580.2 536.0 577.3 535.7 C 572.8 535.2 568.3 534.3 563.8 533.6 C 562.3 533.4 560.9 533.2 559.5 533.0 C 558.6 532.9 557.9 532.6 557.4 531.9 C 557.4 531.8 557.4 531.6 557.4 531.5 C 559.4 529.2 560.1 526.5 559.9 523.5 C 559.8 522.3 559.7 521.0 559.6 519.7 C 559.3 515.4 559.5 511.1 560.1 506.8 C 560.3 505.5 560.7 504.2 561.3 503.0 C 561.6 502.1 561.9 501.4 560.9 500.4 C 562.4 500.4 563.6 500.4 564.8 500.4 C 573.6 500.5 582.4 500.8 591.3 500.8 C 604.4 500.7 617.6 500.4 630.7 500.0 C 635.9 499.9 641.0 499.4 646.2 499.3 C 652.0 499.1 657.9 499.0 663.7 499.2 C 675.0 499.6 686.3 499.5 697.6 499.3 C 703.2 499.2 708.8 499.3 714.4 499.1 C 723.4 499.0 732.3 498.8 741.3 498.5 C 748.6 498.2 755.9 497.6 763.2 497.1 C 776.0 496.4 788.9 495.7 801.8 495.8 C 808.3 495.9 814.7 495.5 821.1 495.0 C 828.1 494.6 835.0 493.7 842.0 493.1 C 842.8 493.1 843.8 493.5 844.6 493.9 C 846.1 494.5 846.0 494.4 847.1 493.5 C 849.2 491.7 850.6 489.4 852.3 487.2 C 853.9 485.1 855.4 482.8 856.9 480.5 C 860.5 475.3 864.0 470.1 867.4 464.9 C 868.6 463.1 869.6 461.1 870.5 459.2 C 872.7 454.5 874.7 449.7 876.8 444.9 C 877.9 442.3 878.9 439.7 880.0 437.2 C 881.2 434.6 882.6 432.1 884.7 430.0 C 885.8 428.8 886.6 427.4 887.3 425.9 C 888.5 423.6 890.0 421.4 891.3 419.2 C 892.5 417.4 893.7 415.7 894.8 413.8 C 895.2 413.2 895.3 412.2 895.2 411.5 C 895.1 410.0 894.8 408.6 894.6 407.2 C 894.5 406.9 894.6 406.4 894.4 406.3 C 893.0 405.7 892.3 404.0 890.7 403.9 C 888.0 403.6 885.4 403.2 882.7 403.2 C 873.2 403.1 863.6 403.2 854.1 403.2 C 846.8 403.1 839.5 403.0 832.2 402.9 C 828.7 402.8 825.3 402.8 821.9 402.7 C 815.6 402.5 809.4 402.3 803.2 402.1 C 796.1 401.8 789.1 401.6 782.0 401.4 C 772.9 401.2 763.9 401.0 754.8 400.8 C 740.2 400.5 725.7 400.0 711.1 399.8 C 700.9 399.6 690.6 399.7 680.4 399.7 C 672.5 399.6 664.6 399.5 656.7 399.5 C 644.6 399.5 632.6 399.6 620.5 399.7 C 611.9 399.7 603.3 399.5 594.7 399.5 C 575.4 399.6 556.1 399.7 536.7 399.9 C 526.3 400.0 515.9 400.4 505.5 400.6 C 497.9 400.7 490.3 400.7 482.8 400.1 C 472.8 399.2 463.1 397.1 453.7 393.5 C 451.1 392.5 448.3 391.9 445.6 391.2 C 445.1 391.0 444.5 391.1 444.0 390.8 C 442.5 390.0 441.3 390.5 440.3 391.7 C 440.3 392.1 440.3 392.5 440.3 392.8 " fill="#000000"></path><path d="M 564.1 236.7 C 564.3 237.1 564.6 237.6 564.9 237.9 C 566.3 238.9 567.6 240.0 569.1 240.9 C 570.4 241.6 571.1 242.7 571.6 244.0 C 573.9 249.6 570.1 255.4 566.5 257.7 C 565.3 258.5 562.8 258.3 562.1 257.3 C 561.5 256.4 560.8 256.2 559.8 256.3 C 559.3 256.4 558.7 256.3 558.0 256.3 C 557.8 256.8 557.5 257.4 557.2 258.1 C 555.3 258.1 553.5 258.1 551.9 257.2 C 547.4 254.9 543.9 251.6 542.4 246.6 C 542.1 245.8 541.7 244.9 541.4 244.0 C 540.8 244.0 540.2 244.1 539.7 244.0 C 537.8 244.0 537.1 244.8 537.6 246.6 C 537.9 248.0 538.3 249.3 538.8 250.6 C 539.1 251.5 539.2 252.3 538.5 253.1 C 535.1 251.1 532.0 248.9 529.8 245.8 C 528.7 244.3 528.0 242.6 527.4 240.9 C 526.5 238.3 526.5 235.5 526.6 232.8 C 526.6 231.5 526.4 230.1 526.3 228.8 C 525.1 228.7 524.1 228.5 523.1 228.4 C 521.0 230.7 521.9 234.1 519.8 236.6 C 519.2 235.9 518.5 235.4 518.1 234.7 C 515.4 230.8 513.6 226.3 512.5 221.7 C 511.8 218.8 512.9 216.1 514.7 213.6 C 515.4 214.0 515.9 214.3 516.5 214.6 C 517.3 214.9 518.2 215.3 519.0 214.4 C 519.6 213.7 519.4 212.9 519.1 212.1 C 518.7 211.0 518.4 209.9 518.1 208.8 C 517.9 207.9 517.6 207.1 516.3 206.7 C 517.7 204.5 518.9 202.5 520.3 200.6 C 521.0 199.8 522.0 199.1 523.0 198.7 C 525.7 197.6 528.6 197.3 531.5 197.8 C 532.2 198.0 533.2 198.4 533.5 199.0 C 534.4 200.4 535.2 201.9 535.5 203.4 C 535.8 204.9 536.5 205.9 537.6 206.6 C 539.0 207.6 539.3 207.5 540.4 206.2 C 541.6 204.6 542.9 203.1 544.3 201.8 C 545.9 200.3 547.9 199.7 550.1 200.0 C 552.9 200.5 555.4 201.7 557.9 203.0 C 558.7 203.5 559.3 204.2 559.5 205.3 C 559.7 206.9 560.8 207.8 562.1 208.6 C 563.2 209.4 564.5 208.8 564.8 207.4 C 564.8 207.0 564.8 206.7 564.8 206.4 C 564.6 204.0 564.9 203.5 567.2 202.6 C 567.8 202.4 568.4 202.2 569.0 202.1 C 572.1 201.7 575.1 201.5 578.2 201.9 C 581.5 202.3 584.3 203.4 585.8 206.7 C 586.3 207.8 587.0 209.0 587.7 210.3 C 587.1 210.3 586.7 210.5 586.5 210.4 C 584.9 209.7 584.1 210.6 583.5 211.8 C 583.2 212.3 583.2 212.9 583.1 213.4 C 582.8 215.1 582.6 216.8 582.3 218.5 C 581.8 220.5 580.6 221.2 578.6 220.8 C 577.7 220.6 576.7 220.5 575.8 220.4 C 574.9 220.2 574.4 220.6 573.8 221.2 C 572.9 222.4 573.2 223.5 573.6 224.6 C 574.3 226.6 575.3 228.5 575.8 230.5 C 576.2 231.9 576.2 233.5 576.2 235.0 C 576.2 236.0 575.5 236.7 574.5 237.1 C 573.6 237.4 573.0 237.0 572.5 236.4 C 571.1 234.7 569.3 234.5 567.2 234.5 C 565.6 234.6 564.6 234.9 564.1 236.7 M 489.2 358.0 C 490.6 353.3 491.7 348.7 492.2 344.0 C 492.8 338.8 493.2 333.6 493.7 328.4 C 494.4 322.3 495.0 316.3 495.9 310.3 C 497.7 299.0 499.0 287.7 498.8 276.3 C 498.7 270.1 499.2 263.9 499.7 257.7 C 500.3 249.4 500.8 241.2 500.2 232.9 C 500.0 229.2 499.6 225.4 499.2 221.7 C 499.0 219.5 498.9 217.3 499.4 215.1 C 502.1 214.5 504.8 215.8 507.7 214.9 C 507.7 215.6 507.8 216.2 507.7 216.8 C 507.0 220.7 507.6 224.4 509.2 227.9 C 510.4 230.6 511.7 233.2 513.3 235.7 C 514.6 237.5 516.2 239.2 517.8 240.8 C 519.1 242.1 520.8 242.8 522.7 242.3 C 522.9 242.6 523.1 242.9 523.2 243.1 C 525.0 248.2 528.5 251.8 532.8 254.7 C 534.5 255.8 536.4 256.9 538.3 257.7 C 540.0 258.5 541.9 258.6 543.3 256.7 C 543.8 257.0 544.1 257.3 544.5 257.6 C 545.6 258.4 546.6 259.3 547.7 260.0 C 551.3 262.4 555.3 263.0 559.6 262.4 C 560.4 262.3 561.3 262.4 562.2 262.5 C 564.1 262.8 566.1 263.0 568.0 262.7 C 569.4 262.5 570.5 261.7 571.5 260.7 C 575.7 256.2 578.1 251.1 576.6 244.8 C 576.5 244.2 576.5 243.5 576.3 242.8 C 576.4 242.7 576.6 242.6 576.7 242.5 C 579.8 241.2 581.2 238.7 581.2 235.6 C 581.1 233.1 580.6 230.7 580.2 228.3 C 580.1 227.6 579.9 227.1 579.6 226.3 C 580.4 226.2 581.0 226.2 581.6 226.2 C 583.4 226.0 584.8 225.2 585.8 223.6 C 586.8 221.9 587.3 220.0 587.6 218.0 C 587.7 217.4 587.8 216.7 587.9 216.1 C 589.3 215.8 590.6 215.7 591.7 215.2 C 592.9 214.5 592.8 213.0 593.1 211.7 C 594.8 211.5 596.4 211.4 598.1 211.3 C 609.1 211.0 620.1 210.7 631.1 210.4 C 640.2 210.1 649.3 210.0 658.4 209.7 C 662.0 209.6 665.6 209.5 669.3 209.4 C 669.5 209.4 669.7 209.4 670.1 209.5 C 670.0 209.8 670.1 210.2 669.9 210.4 C 666.9 213.9 666.3 218.1 665.9 222.5 C 665.2 231.3 665.2 240.2 665.8 249.1 C 666.0 254.0 665.8 258.9 665.3 263.8 C 664.8 268.8 664.3 273.8 663.9 278.8 C 663.3 286.6 662.8 294.4 662.1 302.2 C 661.8 305.3 661.3 308.3 660.8 311.4 C 660.1 316.1 659.6 320.9 659.7 325.6 C 659.8 331.3 659.2 336.8 658.1 342.3 C 657.9 343.0 657.9 343.8 657.8 344.6 C 657.7 345.8 658.1 346.6 659.2 347.2 C 660.4 347.9 661.4 347.6 661.6 346.3 C 662.4 340.6 663.5 334.8 663.7 329.0 C 663.9 323.6 664.8 318.2 665.3 312.9 C 665.9 307.3 666.6 301.8 667.1 296.2 C 668.0 286.5 668.8 276.8 669.6 267.2 C 670.2 260.3 670.5 253.5 670.2 246.6 C 669.9 239.0 669.9 231.5 670.5 223.9 C 670.7 220.4 671.5 217.1 673.3 214.1 C 674.0 213.0 674.3 211.9 674.0 210.6 C 673.9 210.3 673.9 209.9 673.9 209.5 C 674.4 209.4 674.8 209.3 675.2 209.3 C 679.3 209.1 683.5 209.0 687.6 208.9 C 695.2 208.6 702.8 208.4 710.5 208.1 C 718.8 207.7 727.1 207.1 735.4 206.7 C 737.7 206.6 740.1 206.7 742.6 206.7 C 741.2 210.7 742.2 214.8 742.7 218.7 C 743.5 225.0 743.7 231.3 743.9 237.6 C 744.1 244.6 744.6 251.7 745.1 258.7 C 745.7 265.9 745.9 273.1 746.0 280.4 C 746.1 286.7 746.4 293.1 746.5 299.4 C 746.6 303.6 746.6 307.8 746.5 312.0 C 746.4 318.1 746.1 324.1 746.8 330.1 C 747.0 331.6 747.3 333.1 747.4 334.7 C 747.7 337.1 747.8 339.6 748.0 342.1 C 748.0 342.7 748.2 343.5 748.6 344.0 C 749.2 344.7 750.1 345.0 751.0 344.7 C 752.1 344.3 752.1 343.3 752.0 342.4 C 751.8 338.6 751.7 334.8 751.3 331.0 C 750.8 326.0 750.9 321.0 751.2 316.0 C 751.6 307.8 751.2 299.7 750.9 291.6 C 750.7 287.9 750.6 284.3 750.6 280.7 C 750.7 271.2 750.1 261.8 749.2 252.3 C 748.7 246.9 748.4 241.4 748.6 236.0 C 748.7 230.3 748.2 224.7 747.4 219.1 C 747.1 217.0 746.9 214.9 746.6 212.8 C 746.6 212.5 746.5 212.2 746.6 211.9 C 747.0 210.0 747.0 208.2 744.9 206.6 C 746.1 206.4 746.7 206.3 747.4 206.3 C 750.9 206.2 754.5 206.0 758.0 205.8 C 762.2 205.6 766.4 205.3 770.6 205.1 C 778.4 204.7 786.2 204.2 794.0 203.9 C 802.8 203.6 811.7 203.7 820.5 203.5 C 825.2 203.4 829.9 203.1 834.6 202.8 C 835.0 202.8 835.3 202.8 835.9 202.8 C 836.0 203.7 836.1 204.6 836.0 205.4 C 834.9 215.0 835.8 224.6 835.9 234.3 C 836.1 242.5 835.9 250.7 835.9 258.9 C 835.9 263.9 835.9 268.9 835.8 273.9 C 835.7 279.3 835.4 284.7 835.3 290.1 C 835.2 294.4 835.3 298.7 835.5 302.9 C 835.8 309.7 835.8 316.4 835.5 323.1 C 835.3 326.2 835.3 329.2 835.1 332.3 C 834.7 336.1 834.1 340.0 833.8 343.8 C 833.7 345.2 833.8 346.6 834.0 347.9 C 834.2 349.2 834.6 349.4 835.9 349.4 C 836.9 349.3 837.9 349.1 839.0 348.9 C 839.1 348.1 839.2 347.4 839.3 346.6 C 840.6 339.9 841.0 333.0 841.1 326.2 C 841.3 320.1 841.4 314.0 841.3 307.9 C 841.3 303.1 840.9 298.3 841.0 293.6 C 841.0 287.5 841.4 281.5 841.5 275.5 C 841.6 271.6 841.5 267.7 841.5 263.8 C 841.6 257.9 841.8 251.9 841.8 245.9 C 841.8 240.6 841.6 235.2 841.3 229.9 C 841.0 222.5 840.8 215.2 841.4 207.8 C 841.6 205.5 841.5 203.1 841.4 200.8 C 841.2 198.8 839.7 197.5 838.4 196.1 C 838.1 195.9 837.5 196.0 837.1 196.0 C 829.9 197.3 822.7 197.0 815.4 197.2 C 802.8 197.5 790.1 197.4 777.5 198.3 C 768.5 198.9 759.6 199.5 750.6 200.0 C 744.2 200.3 737.7 200.4 731.2 200.6 C 725.9 200.9 720.6 201.2 715.2 201.5 C 709.2 201.8 703.2 202.2 697.1 202.4 C 691.1 202.7 685.1 202.8 679.0 203.0 C 676.0 203.1 672.9 203.2 669.9 203.3 C 661.9 203.5 654.0 203.8 646.1 204.0 C 637.9 204.2 629.8 204.2 621.6 204.4 C 612.5 204.6 603.3 205.0 594.2 205.4 C 591.4 205.5 591.3 205.6 589.8 203.2 C 589.2 202.4 588.8 201.4 588.3 200.6 C 588.1 200.2 587.8 199.9 587.4 199.7 C 581.0 196.1 574.0 196.1 567.0 197.1 C 565.2 197.4 563.5 198.2 562.1 199.4 C 560.2 198.5 558.4 197.6 556.6 196.7 C 553.9 195.5 551.0 195.1 548.0 194.9 C 545.7 194.8 543.5 195.5 541.7 197.0 C 541.0 197.5 540.4 198.0 539.7 198.6 C 539.3 198.3 539.0 198.1 538.8 197.7 C 536.9 194.5 534.2 192.8 530.4 192.6 C 526.9 192.4 523.4 192.5 520.1 194.0 C 518.7 194.6 517.4 195.6 516.4 196.8 C 514.5 199.2 512.9 201.7 511.8 204.4 C 511.2 205.8 511.0 207.3 510.6 209.1 C 510.0 209.1 509.1 209.2 508.3 209.2 C 505.3 209.0 502.3 208.8 499.3 208.7 C 496.7 208.6 495.5 209.8 495.3 212.4 C 495.2 213.6 495.1 214.7 495.1 215.8 C 495.0 217.3 494.9 218.7 495.1 220.2 C 496.0 228.7 496.7 237.3 496.3 245.9 C 496.2 250.2 495.7 254.5 495.4 258.8 C 494.7 266.1 494.5 273.5 494.6 280.9 C 494.7 288.4 493.9 295.8 492.7 303.3 C 491.5 311.2 490.3 319.1 489.8 327.1 C 489.5 333.9 489.1 340.7 487.7 347.4 C 487.3 349.5 486.7 351.7 486.3 353.9 C 486.2 354.6 486.2 355.4 486.3 356.1 C 486.6 357.6 487.3 358.0 489.2 358.0 " fill="#000000"></path><path d="M 547.8 381.6 C 547.4 381.2 547.2 381.1 547.0 380.9 C 542.3 375.3 536.3 371.2 530.0 367.5 C 524.7 364.3 519.2 364.2 513.4 366.3 C 505.9 368.9 501.1 374.1 498.0 381.2 C 497.7 381.8 497.5 382.4 497.1 383.3 C 496.4 382.4 495.8 381.7 495.2 381.0 C 490.9 376.1 486.2 371.5 480.8 367.8 C 475.7 364.3 470.1 362.7 464.0 364.3 C 460.1 365.3 456.8 367.4 453.9 370.2 C 450.1 374.0 447.7 378.5 447.0 383.9 C 446.8 385.3 446.7 386.8 447.7 388.1 C 448.3 388.8 449.1 389.4 450.0 389.2 C 451.0 389.0 451.3 388.0 451.3 387.1 C 451.2 380.5 458.0 372.8 463.5 370.5 C 467.4 368.9 471.2 368.8 475.2 370.2 C 478.1 371.3 480.8 372.8 483.2 374.9 C 485.7 377.2 488.2 379.6 490.7 381.9 C 493.3 384.5 494.8 387.6 495.3 391.1 C 495.5 392.4 496.2 393.2 497.2 393.9 C 498.1 394.5 499.0 394.3 499.5 393.3 C 499.9 392.6 500.2 391.9 500.3 391.2 C 501.4 386.9 502.9 382.9 505.6 379.4 C 510.2 373.6 516.1 370.4 523.7 370.7 C 524.5 370.7 525.3 370.9 526.1 371.2 C 532.4 374.0 538.1 377.9 542.8 382.9 C 543.3 383.5 543.8 384.1 544.3 384.7 C 545.2 385.8 545.7 386.9 545.2 388.5 C 544.6 390.3 545.4 391.5 547.0 392.2 C 548.1 392.8 548.9 392.7 549.5 391.6 C 550.6 389.7 551.4 387.6 552.3 385.7 C 553.4 383.2 554.2 380.5 555.7 378.3 C 559.7 372.1 565.2 368.2 572.9 368.5 C 574.4 368.5 576.1 368.9 577.5 369.6 C 582.7 372.1 587.3 375.6 591.4 379.7 C 592.2 380.5 592.8 381.4 593.4 382.3 C 594.2 383.4 594.6 384.5 594.3 386.0 C 593.8 388.4 595.0 389.6 596.9 389.8 C 597.8 389.9 598.6 389.8 599.1 388.8 C 600.1 387.1 601.0 385.4 602.0 383.7 C 603.5 380.9 605.3 378.2 607.7 376.2 C 612.9 371.8 618.4 370.5 624.7 373.6 C 628.7 375.7 632.4 378.3 635.5 381.7 C 636.7 383.1 637.7 384.8 638.6 386.4 C 639.6 388.3 640.3 390.2 641.2 392.1 C 641.8 393.6 644.2 394.1 645.4 393.0 C 646.1 392.3 646.7 391.4 647.2 390.6 C 648.5 388.4 649.6 386.2 650.9 384.1 C 653.7 379.5 657.4 375.8 662.0 373.0 C 666.3 370.5 671.0 369.2 676.0 370.4 C 679.3 371.1 682.2 372.8 684.9 374.7 C 689.1 377.7 692.8 381.3 696.0 385.4 C 696.3 385.7 696.5 386.0 696.6 386.3 C 697.7 388.2 700.0 388.5 701.3 386.9 C 702.5 385.5 703.5 384.0 704.5 382.4 C 707.0 378.2 709.8 374.2 714.0 371.3 C 717.2 369.1 720.8 367.6 724.8 367.7 C 726.2 367.7 727.7 368.0 729.1 368.5 C 734.0 370.2 738.4 372.9 741.6 377.1 C 743.6 379.7 744.8 382.7 746.0 385.7 C 746.4 386.7 746.7 387.6 747.2 388.5 C 748.1 390.5 749.9 391.0 751.6 389.7 C 752.6 388.9 753.4 387.9 754.1 386.8 C 755.6 384.8 756.9 382.7 758.3 380.7 C 762.5 375.0 768.1 371.6 775.0 370.1 C 778.5 369.3 781.9 370.1 785.1 371.7 C 790.9 374.7 796.2 378.4 800.9 382.9 C 802.2 384.1 803.0 385.4 803.6 387.0 C 804.0 388.0 804.5 389.0 804.9 390.0 C 805.4 391.2 806.3 392.0 807.6 391.9 C 809.0 391.9 810.0 391.1 810.7 389.8 C 812.1 387.1 813.6 384.5 815.0 381.9 C 815.4 381.2 815.9 380.5 816.4 379.8 C 819.7 374.2 824.7 371.5 831.1 370.6 C 836.1 369.9 840.2 371.4 844.0 374.5 C 845.5 375.7 846.7 377.3 847.4 379.2 C 848.2 381.5 849.1 383.7 850.1 385.9 C 851.0 387.8 852.2 389.5 853.2 391.3 C 853.6 391.9 854.1 392.4 854.4 393.0 C 855.2 394.6 856.5 394.6 857.6 394.4 C 858.8 394.3 859.7 393.3 859.8 391.9 C 860.2 388.5 860.9 385.2 862.1 382.1 C 863.1 379.5 864.6 377.2 866.8 375.4 C 869.0 373.5 871.5 373.0 874.4 373.6 C 876.6 374.1 878.6 375.1 880.4 376.4 C 881.4 377.1 882.0 378.0 882.3 379.2 C 882.5 380.2 882.7 381.1 882.9 382.0 C 883.4 384.9 883.9 387.8 884.5 390.6 C 884.7 391.9 884.6 392.9 883.6 393.9 C 882.0 395.4 882.4 398.3 884.3 399.5 C 884.8 399.8 885.5 399.9 886.1 399.8 C 889.2 399.6 891.5 396.5 891.1 393.5 C 891.0 392.5 890.8 391.6 890.7 390.6 C 890.2 388.0 889.7 385.3 889.3 382.6 C 888.9 380.1 888.0 377.9 886.5 375.9 C 883.2 371.7 879.0 368.6 873.6 367.3 C 868.0 365.9 863.4 367.6 859.8 372.1 C 858.0 374.4 856.6 376.8 855.7 379.4 C 855.4 380.2 855.1 381.0 854.7 382.1 C 854.3 381.4 854.1 381.0 853.9 380.6 C 852.4 377.2 850.8 373.9 848.0 371.4 C 845.3 369.0 842.4 366.9 839.0 365.5 C 831.1 362.1 818.1 364.3 812.1 373.6 C 810.3 376.3 808.6 379.0 806.8 381.9 C 806.5 381.7 806.2 381.6 806.0 381.4 C 802.9 377.5 798.9 374.6 794.8 371.7 C 792.0 369.7 789.0 367.8 785.9 366.2 C 778.8 362.5 771.6 362.9 764.5 366.4 C 759.6 368.8 755.8 372.3 752.8 376.8 C 751.8 378.2 750.8 379.6 749.6 381.3 C 749.0 380.2 748.5 379.3 748.1 378.4 C 743.6 369.9 736.4 364.8 727.4 362.1 C 721.1 360.2 715.2 361.9 710.0 365.8 C 706.5 368.3 703.6 371.4 701.4 375.1 C 700.4 376.8 699.4 378.5 698.2 380.4 C 697.4 379.6 696.7 378.8 696.0 378.1 C 692.3 374.3 688.3 370.8 683.7 368.0 C 680.2 365.8 676.4 364.3 672.3 363.9 C 667.2 363.5 662.5 364.8 658.2 367.6 C 652.6 371.1 648.2 375.8 645.1 381.6 C 644.5 382.7 643.9 383.7 643.2 384.9 C 642.6 383.8 642.1 382.8 641.5 381.9 C 639.0 377.7 635.4 374.8 631.6 372.0 C 628.8 370.0 625.8 368.4 622.5 367.1 C 616.8 365.0 611.5 365.8 606.4 369.2 C 603.5 371.2 601.1 373.7 599.2 376.7 C 598.6 377.5 598.0 378.4 597.4 379.3 C 596.0 377.7 594.6 376.3 593.2 374.9 C 589.4 371.4 585.3 368.2 580.8 365.5 C 573.0 360.8 564.9 362.1 558.2 366.7 C 553.6 369.9 550.6 374.3 548.7 379.5 C 548.4 380.1 548.2 380.8 547.8 381.6 " fill="#000000"></path><path d="M 706.2 524.1 C 703.5 524.3 701.2 524.1 699.0 523.5 C 698.0 523.3 698.2 522.6 698.5 521.8 C 701.0 522.6 703.4 523.3 706.2 524.1 M 748.6 520.7 C 747.2 518.6 746.0 518.4 743.9 519.7 C 743.9 519.7 743.8 519.7 743.8 519.8 C 743.0 520.5 742.2 520.4 741.4 519.8 C 739.1 518.2 737.9 516.0 737.3 513.4 C 737.2 512.3 737.5 512.0 738.5 511.9 C 738.9 511.8 739.3 511.9 739.7 511.9 C 743.7 512.1 746.9 514.1 749.9 516.5 C 752.2 518.3 751.9 519.3 749.2 520.5 C 749.1 520.6 748.9 520.6 748.6 520.7 M 730.7 516.0 C 728.8 518.8 726.4 519.9 723.6 520.1 C 722.6 520.2 721.6 520.3 720.6 520.3 C 720.1 520.4 719.6 520.3 719.2 520.1 C 718.1 519.1 717.2 518.0 717.0 516.4 C 716.7 513.6 717.6 512.2 720.5 512.4 C 722.5 512.5 724.5 513.0 726.4 513.6 C 727.9 514.1 729.1 515.1 730.7 516.0 M 758.3 517.5 C 758.0 517.1 757.8 517.0 757.8 516.9 C 756.3 511.5 746.1 506.5 741.4 506.2 C 737.9 506.0 734.9 507.1 732.2 509.6 C 731.6 509.4 730.9 509.1 730.3 508.8 C 727.1 507.2 723.7 506.1 720.2 506.8 C 714.2 508.0 711.4 510.7 711.2 517.2 C 711.2 517.7 711.2 518.1 711.2 518.7 C 707.0 518.6 703.6 516.9 700.4 514.4 C 700.9 512.8 701.3 511.3 701.9 509.9 C 702.2 509.0 702.2 508.2 701.7 507.5 C 701.1 506.8 700.3 506.9 699.4 507.1 C 697.8 507.4 696.6 508.1 696.2 509.9 C 695.9 511.0 695.4 512.0 694.9 513.0 C 694.6 513.7 694.1 514.3 693.6 514.8 C 692.5 515.8 692.2 516.7 692.6 518.2 C 692.8 518.9 692.9 519.6 692.8 520.4 C 692.7 521.9 692.4 523.5 692.2 525.1 C 692.1 526.1 692.4 527.0 692.9 528.0 C 693.4 528.9 694.0 529.3 694.9 529.5 C 699.6 530.1 704.3 530.3 709.0 530.6 C 711.4 530.7 713.5 529.9 715.3 528.5 C 715.9 528.1 716.2 527.4 716.7 526.8 C 717.1 526.9 717.6 527.0 718.0 527.2 C 720.5 528.3 722.9 527.8 725.1 526.5 C 725.2 526.5 725.4 526.4 725.4 526.3 C 726.4 524.4 728.5 524.2 730.1 523.3 C 731.3 522.5 732.6 521.9 734.1 521.0 C 734.5 521.6 735.1 522.2 735.6 522.8 C 736.9 524.7 738.4 526.3 740.8 526.6 C 743.5 528.4 746.2 527.5 748.8 526.5 C 750.4 525.9 751.9 525.2 753.3 524.5 C 754.9 523.7 756.1 522.5 756.9 520.9 C 757.1 520.5 757.3 520.2 757.9 519.9 C 757.9 520.8 757.9 521.7 757.8 522.6 C 757.6 526.6 759.1 528.7 763.2 529.2 C 767.1 529.7 771.1 530.0 775.1 529.5 C 778.1 529.1 780.4 527.6 782.4 525.6 C 784.5 523.5 784.5 520.6 783.6 517.9 C 781.4 511.2 777.3 505.9 770.9 502.6 C 768.1 501.2 765.0 501.0 761.9 502.1 C 760.0 502.7 758.3 503.4 757.1 504.9 C 756.7 505.3 756.4 505.9 756.4 506.4 C 756.3 507.4 756.9 507.9 757.9 507.8 C 759.2 507.7 760.5 507.6 761.7 507.3 C 764.7 506.6 767.3 507.5 769.8 509.1 C 773.4 511.5 776.0 514.7 777.8 518.6 C 778.0 519.0 778.2 519.4 778.2 519.8 C 778.6 522.0 777.3 523.7 775.2 523.7 C 772.4 523.7 769.6 523.6 766.8 523.5 C 763.5 523.3 764.0 523.2 764.1 520.5 C 764.2 517.0 764.5 513.6 766.9 510.9 C 767.5 510.2 767.4 509.4 767.0 508.7 C 766.6 508.0 766.0 507.7 765.1 507.8 C 763.4 507.9 762.1 508.4 761.1 509.9 C 760.1 511.5 759.5 513.2 759.0 515.0 C 758.8 515.8 758.6 516.5 758.3 517.5 " fill="#000000"></path><path d="M 585.2 346.8 C 585.2 345.4 585.3 344.1 585.2 342.8 C 584.7 336.5 585.2 330.3 586.0 324.1 C 587.3 313.9 588.8 303.6 590.2 293.4 C 591.2 286.7 591.2 279.8 591.6 273.1 C 591.9 268.1 592.4 263.2 592.8 258.3 C 593.3 252.8 593.8 247.4 594.2 241.9 C 594.7 235.9 595.2 229.8 595.7 223.7 C 595.8 222.9 595.7 222.1 595.7 221.3 C 595.7 220.6 595.7 219.8 594.8 219.5 C 594.1 219.3 593.0 219.6 592.5 220.4 C 592.1 221.2 591.6 222.1 591.5 223.0 C 591.0 225.7 590.5 228.4 590.3 231.1 C 589.8 237.2 589.6 243.3 589.1 249.4 C 588.8 253.3 588.2 257.3 587.9 261.3 C 587.5 266.0 587.1 270.8 586.9 275.5 C 586.6 281.8 586.3 288.0 585.4 294.1 C 584.5 300.0 583.8 305.8 583.0 311.7 C 582.0 319.4 581.1 327.2 581.1 335.0 C 581.1 338.3 581.4 341.5 581.7 344.7 C 581.8 346.9 582.7 347.4 585.2 346.8 " fill="#000000"></path><path d="M 678.0 523.6 C 677.8 523.9 677.8 524.1 677.7 524.1 C 675.5 525.4 673.3 524.9 671.1 524.1 C 670.8 524.0 670.6 523.7 670.5 523.4 C 669.8 522.2 669.5 520.9 669.8 519.0 C 670.6 520.5 671.7 520.7 672.7 521.0 C 674.0 521.4 675.2 521.8 676.3 522.3 C 676.9 522.6 677.5 523.2 678.0 523.6 M 670.2 515.2 C 670.2 513.7 670.2 512.2 670.2 510.8 C 670.2 508.5 669.1 507.8 666.9 508.4 C 665.2 508.9 664.6 510.1 664.5 511.6 C 664.1 514.9 663.9 518.2 663.5 521.4 C 662.8 526.9 666.1 529.0 670.0 529.7 C 673.8 530.5 677.5 529.9 680.9 528.0 C 683.0 526.8 684.7 523.4 684.3 521.0 C 684.1 519.7 683.4 518.7 682.4 517.9 C 681.5 517.3 680.6 516.7 679.5 516.0 C 682.2 514.0 684.4 511.6 687.7 510.7 C 688.6 510.5 689.4 510.0 690.3 509.7 C 691.0 509.4 691.2 508.9 691.1 508.2 C 690.9 506.6 689.7 505.7 688.1 505.9 C 685.5 506.2 683.0 507.1 680.7 508.7 C 678.9 509.9 677.1 511.2 675.4 512.6 C 673.9 513.9 672.3 514.9 670.2 515.2 " fill="#000000"></path><path d="M 659.5 522.4 C 658.8 522.3 658.1 522.2 657.4 522.1 C 654.3 521.7 651.3 521.2 648.3 520.7 C 647.6 520.5 646.8 520.1 646.1 519.6 C 645.8 519.4 645.7 518.9 645.5 518.5 C 645.6 518.4 645.7 518.3 645.8 518.2 C 646.2 518.4 646.7 518.5 647.1 518.7 C 647.8 518.9 648.4 519.2 649.1 519.3 C 652.1 519.5 655.2 519.6 658.2 519.7 C 659.0 519.7 659.7 519.4 660.0 518.6 C 660.4 517.7 659.9 517.1 659.3 516.6 C 658.7 516.1 658.1 515.6 657.4 515.4 C 655.9 514.9 654.4 514.5 652.8 514.3 C 651.3 514.1 650.2 513.5 649.4 512.2 C 648.9 511.4 648.2 510.6 647.4 509.5 C 648.2 509.4 648.8 509.2 649.3 509.3 C 650.4 509.5 651.5 509.8 652.6 510.1 C 654.8 510.7 656.9 511.3 659.1 511.7 C 659.6 511.9 660.5 511.8 660.6 511.5 C 660.9 511.0 660.8 510.3 660.7 509.7 C 660.2 508.0 658.9 507.0 657.5 506.1 C 654.9 504.5 652.1 503.1 648.9 503.9 C 645.5 504.7 643.0 506.5 641.8 509.8 C 640.9 512.3 640.5 514.8 640.3 517.4 C 640.2 518.4 639.9 519.4 639.6 520.3 C 638.9 522.1 639.4 523.9 641.1 524.8 C 641.9 525.2 642.8 525.5 643.7 525.8 C 647.0 526.8 650.4 527.3 653.8 527.7 C 655.8 527.9 657.2 526.9 658.7 526.0 C 659.9 525.3 660.2 523.9 659.5 522.4 " fill="#000000"></path><path d="M 628.6 521.4 L 622.4 521.4 C 622.4 520.9 622.3 520.3 622.1 519.7 C 622.0 519.1 621.9 518.5 621.8 517.8 C 624.0 517.8 627.3 519.4 628.6 521.4 M 621.4 511.8 C 621.9 509.6 622.4 507.5 622.9 505.4 C 621.7 504.4 620.6 504.9 619.5 505.1 C 618.5 505.4 618.0 506.1 617.6 507.0 C 616.0 510.8 615.5 514.7 615.7 518.8 C 615.8 519.7 615.9 520.7 615.9 521.6 C 615.9 522.2 615.9 522.9 615.7 523.5 C 615.2 525.3 615.2 525.7 616.6 527.3 C 619.2 527.2 621.7 527.1 624.2 527.0 C 627.0 526.9 629.8 526.4 632.4 525.4 C 634.3 524.6 635.5 523.4 636.2 521.4 C 636.6 520.3 636.5 519.3 635.7 518.4 C 634.8 517.4 633.9 516.4 632.7 515.6 C 629.6 513.4 626.3 511.8 622.3 512.1 C 622.1 512.1 622.0 512.0 621.4 511.8 " fill="#000000"></path><path d="M 584.9 514.2 C 583.3 515.5 582.1 516.5 580.9 517.5 C 578.7 519.3 576.4 521.0 574.3 522.9 C 573.6 523.5 573.0 524.2 572.6 524.9 C 571.6 526.9 572.6 529.0 574.7 529.4 C 576.3 529.7 577.9 529.9 579.5 529.8 C 582.1 529.6 584.1 528.3 585.4 525.9 C 585.9 524.8 585.5 524.1 584.3 524.2 C 583.4 524.3 582.5 524.6 581.7 525.2 C 580.7 525.9 579.9 525.7 578.7 524.9 C 580.2 523.7 581.5 522.7 582.8 521.6 C 584.9 519.8 587.1 517.9 589.2 516.0 C 589.9 515.2 590.5 514.2 590.9 513.2 C 591.8 511.3 591.2 509.8 589.2 509.2 C 585.7 508.0 582.1 507.9 578.6 509.3 C 576.4 510.1 574.6 511.4 572.6 512.6 C 572.0 513.0 571.5 513.6 571.0 514.2 C 570.2 515.2 570.2 516.9 570.9 517.4 C 571.5 517.9 573.6 517.8 574.2 517.0 C 575.4 515.6 577.0 515.0 578.6 514.1 C 580.1 513.3 581.7 513.1 583.4 513.5 C 583.8 513.6 584.1 513.8 584.9 514.2 " fill="#000000"></path><path d="M 600.1 515.3 C 602.4 516.0 603.9 517.3 605.3 518.7 C 605.8 519.2 605.8 519.7 605.5 520.3 C 605.0 521.1 604.5 522.0 603.9 522.8 C 603.0 524.0 603.0 525.0 604.3 526.7 C 606.0 526.7 607.3 526.0 608.3 524.5 C 609.0 523.3 610.0 522.2 610.7 520.9 C 611.3 519.9 611.6 518.7 611.8 517.5 C 612.0 516.3 611.6 515.1 610.6 514.3 C 609.0 512.9 607.4 511.5 605.6 510.5 C 603.1 509.0 600.4 509.2 597.8 510.6 C 597.0 511.1 596.3 512.0 595.8 512.8 C 595.3 513.8 594.9 514.9 594.6 516.0 C 594.2 517.5 593.6 518.7 592.4 519.7 C 592.1 519.9 591.8 520.2 591.6 520.6 C 591.0 521.6 591.3 523.3 592.2 523.9 C 592.8 524.3 594.3 524.0 595.1 523.2 C 596.9 521.5 598.4 519.6 599.2 517.2 C 599.4 516.6 599.8 516.0 600.1 515.3 " fill="#000000"></path><path d="M 815.0 481.1 C 816.2 479.8 817.2 478.7 818.1 477.5 C 821.0 473.0 824.0 468.6 826.8 464.1 C 829.5 459.5 832.2 454.9 834.8 450.3 C 840.0 441.4 845.1 432.5 850.3 423.6 C 851.1 422.2 852.0 420.9 853.9 420.5 C 855.4 420.1 856.2 418.5 856.9 417.2 C 857.4 416.5 857.0 415.5 856.3 414.8 C 855.7 414.1 855.0 414.0 854.3 414.3 C 853.5 414.7 852.7 415.2 852.0 415.6 C 848.3 417.8 845.7 420.8 843.6 424.5 C 839.6 431.6 835.3 438.6 831.3 445.8 C 828.1 451.3 825.1 457.0 822.1 462.6 C 819.8 466.9 817.7 471.2 815.5 475.5 C 814.8 476.8 814.1 478.1 814.4 479.6 C 814.5 480.0 814.7 480.4 815.0 481.1 " fill="#000000"></path><path d="M 772.7 471.1 C 774.2 470.1 775.0 468.8 775.7 467.3 C 777.4 463.3 779.1 459.3 780.8 455.2 C 783.9 447.9 786.9 440.6 790.1 433.4 C 792.3 428.5 794.7 423.8 797.8 419.4 C 798.1 418.8 798.7 418.3 799.2 417.9 C 801.0 416.9 801.9 415.1 802.9 413.4 C 803.5 412.4 802.8 410.8 801.8 410.3 C 800.7 409.8 799.1 410.2 798.7 411.3 C 798.0 413.1 796.5 414.3 795.3 415.6 C 792.6 418.5 790.6 421.8 788.8 425.2 C 784.6 433.6 781.3 442.4 778.2 451.3 C 776.7 455.3 775.3 459.2 773.9 463.3 C 773.3 464.8 772.8 466.4 772.4 468.0 C 772.1 469.0 772.2 470.0 772.7 471.1 " fill="#000000"></path><path d="M 642.2 473.5 C 642.4 472.1 642.6 471.2 642.6 470.3 C 642.7 467.7 642.8 465.1 642.8 462.5 C 642.9 457.9 643.0 453.3 643.0 448.6 C 643.0 439.8 642.9 431.0 642.8 422.1 C 642.8 417.5 642.6 412.9 642.5 408.2 C 642.5 407.1 641.9 406.3 641.1 405.7 C 640.4 405.1 639.2 405.4 638.8 406.1 C 638.4 406.7 638.0 407.5 638.0 408.2 C 637.9 410.3 638.0 412.4 638.0 414.5 C 638.3 423.4 638.5 432.3 638.9 441.2 C 639.1 447.7 639.5 454.2 639.9 460.8 C 640.1 464.0 640.4 467.2 640.6 470.4 C 640.7 471.4 640.9 472.4 642.2 473.5 " fill="#000000"></path><path d="M 721.1 473.1 C 722.2 472.3 722.8 471.4 723.2 470.2 C 725.6 462.2 728.8 454.4 732.2 446.7 C 734.9 440.4 738.2 434.1 740.3 427.5 C 741.4 424.0 742.4 420.4 743.5 416.9 C 743.9 415.6 744.3 414.2 744.8 412.9 C 745.3 411.7 745.2 410.8 744.5 410.3 C 743.7 409.8 742.0 409.8 741.4 410.6 C 740.7 411.5 740.2 412.4 739.9 413.4 C 738.6 417.4 737.7 421.5 736.3 425.5 C 734.7 430.3 732.9 435.0 730.9 439.7 C 727.5 447.9 724.2 456.2 721.7 464.7 C 721.0 467.1 720.3 469.5 720.6 472.0 C 720.6 472.3 720.6 472.5 720.7 472.8 C 720.7 472.9 720.9 472.9 721.1 473.1 " fill="#000000"></path><path d="M 565.8 482.9 C 566.1 481.6 565.9 480.5 565.6 479.5 C 564.5 475.3 563.2 471.1 562.2 466.8 C 560.7 460.3 559.5 453.6 557.9 447.1 C 555.8 438.2 553.4 429.3 551.1 420.3 C 550.4 417.6 549.7 414.8 548.9 412.1 C 548.7 411.3 548.3 410.7 547.9 410.1 C 547.1 408.9 546.1 408.9 545.3 410.0 C 544.7 410.9 544.4 411.9 544.8 412.9 C 545.3 414.6 545.9 416.3 546.3 418.0 C 548.2 424.5 550.0 430.9 551.7 437.4 C 554.0 446.0 556.1 454.5 558.4 463.0 C 559.7 467.9 561.1 472.7 562.6 477.5 C 563.1 479.0 564.0 480.5 564.7 481.9 C 564.9 482.3 565.3 482.5 565.8 482.9 " fill="#000000"></path><path d="M 684.8 470.4 C 685.9 468.8 686.2 467.5 686.4 466.1 C 686.8 462.3 687.1 458.4 687.6 454.5 C 687.9 451.9 688.4 449.3 688.8 446.6 C 689.4 443.2 690.0 439.8 690.7 436.3 C 692.3 429.0 694.0 421.7 695.8 414.4 C 696.0 413.6 696.5 412.8 696.9 412.0 C 697.4 411.0 697.1 409.7 696.4 409.2 C 695.4 408.5 693.9 408.7 693.1 409.7 C 691.5 411.7 690.7 414.1 690.2 416.5 C 688.9 423.0 687.6 429.6 686.5 436.1 C 685.0 444.6 684.3 453.2 684.1 461.7 C 684.0 463.6 684.1 465.6 684.2 467.5 C 684.3 468.3 684.5 469.1 684.8 470.4 " fill="#000000"></path><path d="M 536.8 486.5 C 537.3 485.7 537.0 485.1 536.7 484.6 C 535.7 482.2 534.6 479.8 533.5 477.5 C 530.3 470.9 526.9 464.4 523.9 457.8 C 521.0 451.1 517.6 444.6 514.2 438.1 C 512.1 434.1 509.7 430.2 507.5 426.2 C 506.6 424.6 505.8 422.9 504.9 421.3 C 504.5 420.6 504.1 419.7 503.0 420.1 C 502.2 420.5 501.9 421.5 502.3 422.6 C 503.3 425.2 504.2 427.8 505.6 430.1 C 511.8 440.8 517.9 451.6 523.5 462.7 C 526.9 469.5 530.4 476.2 533.9 483.0 C 534.6 484.4 535.6 485.4 536.8 486.5 " fill="#000000"></path></g></g></g></g><g><clipPath id="clip0x6080012af180"><path d="M 128.7 618.2 L 414.0 662.3 L 494.8 139.5 L 209.5 95.5 Z M 128.7 618.2 "></path></clipPath><g clip-path="url(#clip0x6080012af180)"><g><clipPath id="clip0x6080012af300"><path d="M 209.5 95.5 L 494.8 139.5 L 414.0 662.3 L 128.7 618.2 Z M 209.5 95.5 "></path></clipPath><g clip-path="url(#clip0x6080012af300)"><g><clipPath id="clip0x6080012af480"><path d="M 128.7 618.2 L 414.0 662.3 L 494.8 139.5 L 209.5 95.5 Z M 128.7 618.2 "></path></clipPath><g clip-path="url(#clip0x6080012af480)"><path d="M 407.2 579.7 C 407.1 579.7 407.1 579.7 407.0 579.7 C 406.3 584.6 405.6 589.5 404.7 594.3 C 403.6 600.5 400.9 606.0 397.4 611.1 C 395.2 614.3 393.0 617.5 390.6 620.5 C 388.2 623.3 385.7 626.0 383.0 628.4 C 380.7 630.3 377.8 631.5 375.4 633.3 C 369.1 637.9 361.9 638.3 354.6 637.2 C 349.5 636.4 344.4 635.1 339.3 634.2 C 332.1 632.9 324.9 631.7 317.8 630.4 C 310.7 629.1 303.7 627.6 296.6 626.5 C 290.6 625.7 284.6 625.5 278.6 624.8 C 271.2 623.9 263.9 622.8 256.5 622.0 C 250.1 621.2 243.7 620.5 237.3 620.0 C 229.3 619.2 221.2 618.5 213.1 618.0 C 204.3 617.4 195.4 617.1 186.7 615.1 C 183.5 614.4 180.2 613.7 178.7 610.4 C 176.6 605.6 174.6 600.8 172.6 596.0 C 172.3 595.4 172.2 594.7 172.2 594.0 C 172.8 588.6 173.3 583.2 174.1 577.9 C 175.2 569.8 176.6 561.7 177.8 553.7 C 179.0 545.4 180.0 537.0 181.1 528.7 C 182.2 519.8 183.1 510.9 184.2 502.0 C 185.6 491.2 187.3 480.5 188.5 469.6 C 189.8 457.4 190.6 445.0 191.9 432.7 C 193.3 418.3 194.8 403.8 196.5 389.4 C 198.2 373.9 200.4 358.4 202.0 342.8 C 202.9 333.2 203.3 323.5 203.8 313.8 C 204.3 302.4 204.8 290.9 205.3 279.4 C 205.9 267.0 206.7 254.6 207.3 242.2 C 207.8 233.3 208.0 224.4 208.6 215.6 C 209.4 203.6 214.4 177.4 216.5 165.6 C 217.2 161.4 218.0 157.2 219.3 153.1 C 220.7 148.5 222.5 144.0 224.4 139.6 C 225.6 136.8 227.1 134.2 228.7 131.7 C 231.5 127.2 236.1 125.7 240.8 124.4 C 243.7 123.6 246.7 122.7 249.7 122.6 C 254.0 122.4 258.3 122.9 262.6 123.0 C 271.8 123.2 280.9 123.1 290.0 123.5 C 295.9 123.7 301.8 124.3 307.6 124.9 C 316.0 125.7 324.5 126.4 332.8 127.4 C 342.3 128.4 351.7 129.6 361.2 130.8 C 368.9 131.7 376.7 132.8 384.5 133.8 C 391.2 134.7 398.0 135.4 404.7 136.2 C 410.4 136.9 416.1 137.4 421.7 138.6 C 426.8 139.6 431.7 141.4 436.6 143.2 C 444.3 146.1 452.3 147.8 459.8 151.3 C 466.8 154.5 470.5 162.4 469.6 168.9 C 468.4 178.0 467.0 187.2 465.4 196.2 C 463.5 206.8 461.4 217.4 459.2 228.0 C 457.5 236.3 455.7 244.6 453.7 252.8 C 452.0 259.7 452.7 260.1 451.3 267.0 C 450.0 273.4 448.1 279.7 447.2 286.2 C 445.7 296.9 444.9 307.7 443.6 318.4 C 441.9 331.0 440.0 343.5 438.2 356.0 C 436.6 366.9 434.9 377.7 433.5 388.5 C 432.2 398.6 431.2 408.6 430.0 418.7 C 429.2 425.6 428.3 432.6 427.5 439.5 C 426.5 448.3 425.6 457.2 424.6 466.0 C 423.6 474.8 422.7 483.6 421.6 492.4 C 420.8 498.6 419.8 504.8 419.0 511.1 C 417.7 520.4 416.7 529.8 415.3 539.0 C 414.3 545.9 412.7 552.7 411.3 559.6 C 410.0 566.3 408.6 573.0 407.2 579.7 M 191.4 627.9 L 192.9 628.1 C 193.5 628.1 194.2 628.0 194.9 628.1 C 196.8 628.3 198.6 628.6 200.5 628.8 C 207.1 629.2 213.6 629.5 220.1 630.0 C 224.0 630.3 227.8 630.7 231.6 631.0 C 238.0 631.6 244.4 632.0 250.8 632.8 C 258.9 633.7 266.9 635.1 275.0 636.2 C 281.7 637.0 288.4 637.4 295.1 638.3 C 300.6 639.1 306.1 640.5 311.6 641.5 C 319.8 643.1 328.0 644.5 336.2 646.0 C 342.6 647.2 348.8 648.6 355.2 649.5 C 364.3 650.7 373.0 648.5 381.4 645.3 C 385.3 643.8 388.9 641.2 392.7 639.1 C 397.1 636.5 401.1 633.4 404.3 629.3 C 407.1 625.8 409.6 622.1 412.3 618.5 C 418.6 609.8 422.4 600.2 424.0 589.6 C 425.1 582.3 426.3 574.9 427.7 567.6 C 428.6 562.7 430.1 557.8 430.9 552.8 C 432.9 540.5 434.7 528.2 436.4 515.9 C 438.0 503.5 439.5 491.0 441.1 478.6 C 441.7 473.3 442.2 467.9 442.7 462.5 C 443.6 454.0 444.3 445.4 445.3 436.9 C 446.6 426.3 448.1 415.8 449.3 405.2 C 450.3 396.8 450.7 388.4 451.9 380.0 C 453.8 366.2 456.1 352.5 458.2 338.7 C 459.4 330.9 460.4 323.1 461.3 315.2 C 462.3 307.3 462.8 299.4 463.7 291.4 C 463.9 289.6 464.5 287.8 464.9 286.0 C 465.4 283.3 465.7 280.5 466.3 277.8 C 467.9 270.5 470.1 263.2 471.2 255.8 C 473.3 242.8 474.6 238.0 477.2 225.1 C 479.2 215.7 480.9 206.3 482.5 196.9 C 484.0 188.6 485.4 180.4 486.7 172.1 C 488.0 164.0 485.7 156.9 479.8 151.3 C 477.2 148.9 473.9 147.3 470.8 145.4 C 465.5 142.2 459.8 139.9 453.8 138.1 C 447.4 136.1 441.0 133.9 434.6 131.8 C 427.3 129.5 419.8 127.7 412.1 126.9 C 401.7 125.7 391.2 124.6 380.8 123.4 C 374.2 122.6 367.6 121.8 361.0 121.0 C 353.6 120.1 346.2 119.3 338.8 118.5 C 331.5 117.7 324.3 116.7 317.1 116.1 C 308.6 115.3 300.1 114.6 291.6 114.1 C 282.3 113.6 272.9 113.3 263.6 113.0 C 258.3 112.8 253.0 112.8 247.7 112.7 C 244.6 112.7 241.5 112.1 238.5 112.6 C 234.5 113.1 230.6 114.2 226.7 115.4 C 220.2 117.4 215.2 121.4 211.8 127.3 C 209.8 130.7 208.1 134.3 206.7 137.9 C 204.7 143.2 202.7 148.5 201.5 153.9 C 199.7 161.4 198.6 169.0 197.3 176.5 C 196.0 183.6 192.0 206.6 191.6 213.7 C 191.1 223.5 190.8 233.3 190.3 243.1 C 190.0 249.6 189.7 256.2 189.4 262.7 C 189.0 269.3 188.7 275.9 188.4 282.5 C 188.0 288.6 187.5 294.7 187.2 300.8 C 186.6 312.9 186.4 325.1 185.5 337.2 C 184.6 348.9 183.0 360.5 181.6 372.2 C 179.8 387.5 177.7 402.7 175.9 418.0 C 174.5 430.9 173.4 443.9 172.0 456.9 C 171.4 463.5 170.7 470.1 169.8 476.6 C 168.1 489.6 166.2 502.5 164.4 515.5 C 162.4 529.2 160.5 542.9 158.5 556.6 C 157.7 561.9 156.9 567.1 156.0 572.4 C 155.9 573.2 155.3 574.7 155.0 574.7 C 152.6 574.6 152.1 576.8 151.0 578.0 C 150.2 578.9 149.3 580.0 149.3 581.0 C 149.2 583.5 149.0 586.3 149.8 588.6 C 152.0 595.6 154.5 602.5 157.1 609.4 C 159.9 616.6 164.9 621.6 172.5 623.5 C 177.8 624.8 183.1 625.9 188.4 627.0 C 189.4 627.3 190.4 627.6 191.4 627.9 " fill="#000000"></path><path d="M 339.6 165.3 C 340.2 162.3 340.6 161.8 343.7 161.4 C 347.7 160.9 351.8 160.3 354.9 163.8 C 356.3 165.4 357.7 167.1 358.8 168.9 C 361.9 173.7 363.6 178.9 363.1 184.7 C 362.9 186.3 362.6 187.5 360.4 187.7 C 358.3 187.9 356.1 188.3 354.5 190.1 C 353.7 190.9 352.8 190.9 351.9 190.1 C 349.9 188.3 347.9 186.7 346.0 184.8 C 340.8 179.7 337.7 173.7 339.6 165.3 M 323.9 166.5 C 322.6 172.9 322.8 177.9 325.6 182.6 C 330.2 190.0 336.5 195.7 344.1 199.7 C 346.9 201.2 350.7 201.6 354.0 201.5 C 356.2 201.4 358.3 199.4 360.5 198.3 C 361.3 197.9 362.1 197.7 362.9 197.3 C 363.2 197.2 363.6 197.2 363.9 197.1 C 366.7 195.7 369.5 194.3 372.3 192.9 C 376.0 190.9 377.6 187.5 378.2 183.6 C 378.5 181.4 378.8 179.0 378.5 176.8 C 377.4 167.9 374.0 160.2 366.4 155.0 C 362.5 152.2 358.0 151.8 353.3 151.7 C 347.2 151.6 341.2 152.0 335.3 153.8 C 331.5 155.0 328.7 157.3 326.7 160.6 C 325.4 162.8 324.5 165.2 323.9 166.5 " fill="#000000"></path><path d="M 320.3 589.5 C 320.9 585.7 320.1 583.5 318.5 581.6 C 318.0 581.0 317.0 580.4 316.3 580.5 C 311.4 581.4 307.1 579.4 302.6 578.4 C 295.4 576.7 288.3 574.6 281.1 573.6 C 276.1 572.9 270.9 573.5 265.9 574.3 C 260.5 575.1 259.2 581.0 261.0 585.0 C 261.2 585.5 261.7 586.1 262.1 586.2 C 264.4 586.7 266.6 587.7 269.1 586.9 C 270.3 586.6 271.8 586.9 273.1 587.2 C 277.6 588.3 282.2 589.6 286.7 590.7 C 291.0 591.7 295.3 592.8 299.7 593.4 C 302.9 593.9 305.9 594.4 309.0 595.5 C 310.8 596.1 313.4 595.1 315.3 594.3 C 317.9 593.2 320.1 591.4 320.3 589.5 " fill="#000000"></path><path d="M 443.8 223.5 L 234.4 195.8 C 232.0 195.4 229.7 197.2 229.4 199.6 L 185.4 532.1 C 185.0 534.5 186.8 536.7 189.2 537.1 L 398.6 564.8 C 401.0 565.1 403.3 563.4 403.6 561.0 L 447.6 228.5 C 448.0 226.1 446.2 223.8 443.8 223.5 " fill="#2F2F39"></path></g></g></g></g></g></g><g><clipPath id="clip0x6080012af7e0"><path d="M 128.7 618.2 L 414.0 662.3 L 494.8 139.5 L 209.5 95.5 Z M 128.7 618.2 "></path></clipPath><g clip-path="url(#clip0x6080012af7e0)"><g><clipPath id="clip0x6080012af960"><path d="M 209.5 95.5 L 494.8 139.5 L 414.0 662.3 L 128.7 618.2 Z M 209.5 95.5 "></path></clipPath><g clip-path="url(#clip0x6080012af960)"><text xml:space="preserve" font-family="NixieOne-Regular,Nixie One" font-size="70.0" fill="#F1F1F1" transform="matrix(0.37, 0.05, 0.05, -0.37, 205.8, 502.0)">M</text><text xml:space="preserve" font-family="NixieOne-Regular,Nixie One" font-size="70.0" fill="#F1F1F1" transform="matrix(0.37, 0.05, 0.05, -0.37, 230.6, 505.8)">i</text><text xml:space="preserve" font-family="NixieOne-Regular,Nixie One" font-size="70.0" fill="#F1F1F1" transform="matrix(0.37, 0.05, 0.05, -0.37, 237.9, 506.9)">l</text><text xml:space="preserve" font-family="NixieOne-Regular,Nixie One" font-size="70.0" fill="#F1F1F1" transform="matrix(0.37, 0.05, 0.05, -0.37, 244.8, 508.0)">k</text><text xml:space="preserve" font-family="NixieOne-Regular,Nixie One" font-size="70.0" fill="#F1F1F1" transform="matrix(0.37, 0.05, 0.05, -0.37, 211.1, 461.5)">B</text><text xml:space="preserve" font-family="NixieOne-Regular,Nixie One" font-size="70.0" fill="#F1F1F1" transform="matrix(0.37, 0.05, 0.05, -0.37, 227.5, 464.0)">r</text><text xml:space="preserve" font-family="NixieOne-Regular,Nixie One" font-size="70.0" fill="#F1F1F1" transform="matrix(0.37, 0.05, 0.05, -0.37, 240.5, 466.0)">e</text><text xml:space="preserve" font-family="NixieOne-Regular,Nixie One" font-size="70.0" fill="#F1F1F1" transform="matrix(0.37, 0.05, 0.05, -0.37, 255.1, 468.3)">a</text><text xml:space="preserve" font-family="NixieOne-Regular,Nixie One" font-size="70.0" fill="#F1F1F1" transform="matrix(0.37, 0.05, 0.05, -0.37, 269.8, 470.5)">d</text><text xml:space="preserve" font-family="NixieOne-Regular,Nixie One" font-size="70.0" fill="#F1F1F1" transform="matrix(0.37, 0.05, 0.05, -0.37, 216.5, 421.0)">B</text><text xml:space="preserve" font-family="NixieOne-Regular,Nixie One" font-size="70.0" fill="#F1F1F1" transform="matrix(0.37, 0.05, 0.05, -0.37, 232.9, 423.5)">r</text><text xml:space="preserve" font-family="NixieOne-Regular,Nixie One" font-size="70.0" fill="#F1F1F1" transform="matrix(0.37, 0.05, 0.05, -0.37, 245.9, 425.5)">o</text><text xml:space="preserve" font-family="NixieOne-Regular,Nixie One" font-size="70.0" fill="#F1F1F1" transform="matrix(0.37, 0.05, 0.05, -0.37, 261.1, 427.9)">c</text><text xml:space="preserve" font-family="NixieOne-Regular,Nixie One" font-size="70.0" fill="#F1F1F1" transform="matrix(0.37, 0.05, 0.05, -0.37, 275.2, 430.1)">c</text><text xml:space="preserve" font-family="NixieOne-Regular,Nixie One" font-size="70.0" fill="#F1F1F1" transform="matrix(0.37, 0.05, 0.05, -0.37, 289.3, 432.2)">o</text><text xml:space="preserve" font-family="NixieOne-Regular,Nixie One" font-size="70.0" fill="#F1F1F1" transform="matrix(0.37, 0.05, 0.05, -0.37, 304.3, 434.6)">l</text><text xml:space="preserve" font-family="NixieOne-Regular,Nixie One" font-size="70.0" fill="#F1F1F1" transform="matrix(0.37, 0.05, 0.05, -0.37, 311.2, 435.6)">i</text><text xml:space="preserve" font-family="NixieOne-Regular,Nixie One" font-size="70.0" fill="#F1F1F1" transform="matrix(0.37, 0.05, 0.05, -0.37, 221.9, 380.5)">C</text><text xml:space="preserve" font-family="NixieOne-Regular,Nixie One" font-size="70.0" fill="#F1F1F1" transform="matrix(0.37, 0.05, 0.05, -0.37, 239.7, 383.3)">h</text><text xml:space="preserve" font-family="NixieOne-Regular,Nixie One" font-size="70.0" fill="#F1F1F1" transform="matrix(0.37, 0.05, 0.05, -0.37, 256.5, 385.9)">i</text><text xml:space="preserve" font-family="NixieOne-Regular,Nixie One" font-size="70.0" fill="#F1F1F1" transform="matrix(0.37, 0.05, 0.05, -0.37, 263.7, 387.0)">c</text><text xml:space="preserve" font-family="NixieOne-Regular,Nixie One" font-size="70.0" fill="#F1F1F1" transform="matrix(0.37, 0.05, 0.05, -0.37, 277.8, 389.1)">k</text><text xml:space="preserve" font-family="NixieOne-Regular,Nixie One" font-size="70.0" fill="#F1F1F1" transform="matrix(0.37, 0.05, 0.05, -0.37, 291.7, 391.3)">e</text><text xml:space="preserve" font-family="NixieOne-Regular,Nixie One" font-size="70.0" fill="#F1F1F1" transform="matrix(0.37, 0.05, 0.05, -0.37, 306.3, 393.5)">n</text><text xml:space="preserve" font-family="NixieOne-Regular,Nixie One" font-size="70.0" fill="#F1F1F1" transform="matrix(0.37, 0.05, 0.05, -0.37, 227.3, 340.0)">P</text><text xml:space="preserve" font-family="NixieOne-Regular,Nixie One" font-size="70.0" fill="#F1F1F1" transform="matrix(0.37, 0.05, 0.05, -0.37, 243.2, 342.5)">e</text><text xml:space="preserve" font-family="NixieOne-Regular,Nixie One" font-size="70.0" fill="#F1F1F1" transform="matrix(0.37, 0.05, 0.05, -0.37, 257.7, 344.7)">a</text><text xml:space="preserve" font-family="NixieOne-Regular,Nixie One" font-size="70.0" fill="#F1F1F1" transform="matrix(0.37, 0.05, 0.05, -0.37, 272.4, 347.0)">r</text><text xml:space="preserve" font-family="NixieOne-Regular,Nixie One" font-size="70.0" fill="#F1F1F1" transform="matrix(0.37, 0.05, 0.05, -0.37, 232.6, 299.5)">S</text><text xml:space="preserve" font-family="NixieOne-Regular,Nixie One" font-size="70.0" fill="#F1F1F1" transform="matrix(0.37, 0.05, 0.05, -0.37, 249.2, 302.1)">a</text><text xml:space="preserve" font-family="NixieOne-Regular,Nixie One" font-size="70.0" fill="#F1F1F1" transform="matrix(0.37, 0.05, 0.05, -0.37, 263.9, 304.4)">l</text><text xml:space="preserve" font-family="NixieOne-Regular,Nixie One" font-size="70.0" fill="#F1F1F1" transform="matrix(0.37, 0.05, 0.05, -0.37, 270.8, 305.4)">l</text><text xml:space="preserve" font-family="NixieOne-Regular,Nixie One" font-size="70.0" fill="#F1F1F1" transform="matrix(0.37, 0.05, 0.05, -0.37, 277.7, 306.5)">a</text><text xml:space="preserve" font-family="NixieOne-Regular,Nixie One" font-size="70.0" fill="#F1F1F1" transform="matrix(0.37, 0.05, 0.05, -0.37, 292.4, 308.8)">t</text><text xml:space="preserve" font-family="NixieOne-Regular,Nixie One" font-size="70.0" fill="#F1F1F1" transform="matrix(0.37, 0.05, 0.05, -0.37, 238.0, 259.1)">P</text><text xml:space="preserve" font-family="NixieOne-Regular,Nixie One" font-size="70.0" fill="#F1F1F1" transform="matrix(0.37, 0.05, 0.05, -0.37, 253.9, 261.5)">e</text><text xml:space="preserve" font-family="NixieOne-Regular,Nixie One" font-size="70.0" fill="#F1F1F1" transform="matrix(0.37, 0.05, 0.05, -0.37, 268.5, 263.8)">p</text><text xml:space="preserve" font-family="NixieOne-Regular,Nixie One" font-size="70.0" fill="#F1F1F1" transform="matrix(0.37, 0.05, 0.05, -0.37, 284.3, 266.2)">p</text><text xml:space="preserve" font-family="NixieOne-Regular,Nixie One" font-size="70.0" fill="#F1F1F1" transform="matrix(0.37, 0.05, 0.05, -0.37, 300.3, 268.7)">e</text><text xml:space="preserve" font-family="NixieOne-Regular,Nixie One" font-size="70.0" fill="#F1F1F1" transform="matrix(0.37, 0.05, 0.05, -0.37, 314.9, 270.9)">r</text><text xml:space="preserve" font-family="NixieOne-Regular,Nixie One" font-size="70.0" fill="#F1F1F1" transform="matrix(0.37, 0.05, 0.05, -0.37, 243.4, 218.6)">P</text><text xml:space="preserve" font-family="NixieOne-Regular,Nixie One" font-size="70.0" fill="#F1F1F1" transform="matrix(0.37, 0.05, 0.05, -0.37, 259.2, 221.0)">a</text><text xml:space="preserve" font-family="NixieOne-Regular,Nixie One" font-size="70.0" fill="#F1F1F1" transform="matrix(0.37, 0.05, 0.05, -0.37, 273.9, 223.3)">s</text><text xml:space="preserve" font-family="NixieOne-Regular,Nixie One" font-size="70.0" fill="#F1F1F1" transform="matrix(0.37, 0.05, 0.05, -0.37, 288.2, 225.5)">t</text><text xml:space="preserve" font-family="NixieOne-Regular,Nixie One" font-size="70.0" fill="#F1F1F1" transform="matrix(0.37, 0.05, 0.05, -0.37, 298.5, 227.1)">a</text></g></g></g></g><text xml:space="preserve" font-family="HelveticaNeue-Bold,Helvetica Neue" font-weight="bold" font-size="36.0" fill="#FEFFFF" transform="matrix(1.00, 0.00, -0.00, -1.00, 95.0, 694.0)">W</text><text xml:space="preserve" font-family="HelveticaNeue-Bold,Helvetica Neue" font-weight="bold" font-size="36.0" fill="#FEFFFF" transform="matrix(1.00, 0.00, -0.00, -1.00, 129.0, 694.0)">h</text><text xml:space="preserve" font-family="HelveticaNeue-Bold,Helvetica Neue" font-weight="bold" font-size="36.0" fill="#FEFFFF" transform="matrix(1.00, 0.00, -0.00, -1.00, 150.3, 694.0)">e</text><text xml:space="preserve" font-family="HelveticaNeue-Bold,Helvetica Neue" font-weight="bold" font-size="36.0" fill="#FEFFFF" transform="matrix(1.00, 0.00, -0.00, -1.00, 171.0, 694.0)">n</text><text xml:space="preserve" font-family="HelveticaNeue-Bold,Helvetica Neue" font-weight="bold" font-size="36.0" fill="#FEFFFF" transform="matrix(1.00, 0.00, -0.00, -1.00, 192.3, 694.0)"> </text><text xml:space="preserve" font-family="HelveticaNeue-Bold,Helvetica Neue" font-weight="bold" font-size="36.0" fill="#FEFFFF" transform="matrix(1.00, 0.00, -0.00, -1.00, 202.3, 694.0)">s</text><text xml:space="preserve" font-family="HelveticaNeue-Bold,Helvetica Neue" font-weight="bold" font-size="36.0" fill="#FEFFFF" transform="matrix(1.00, 0.00, -0.00, -1.00, 221.7, 694.0)">h</text><text xml:space="preserve" font-family="HelveticaNeue-Bold,Helvetica Neue" font-weight="bold" font-size="36.0" fill="#FEFFFF" transform="matrix(1.00, 0.00, -0.00, -1.00, 243.0, 694.0)">o</text><text xml:space="preserve" font-family="HelveticaNeue-Bold,Helvetica Neue" font-weight="bold" font-size="36.0" fill="#FEFFFF" transform="matrix(1.00, 0.00, -0.00, -1.00, 265.0, 694.0)">p</text><text xml:space="preserve" font-family="HelveticaNeue-Bold,Helvetica Neue" font-weight="bold" font-size="36.0" fill="#FEFFFF" transform="matrix(1.00, 0.00, -0.00, -1.00, 287.0, 694.0)">p</text><text xml:space="preserve" font-family="HelveticaNeue-Bold,Helvetica Neue" font-weight="bold" font-size="36.0" fill="#FEFFFF" transform="matrix(1.00, 0.00, -0.00, -1.00, 309.0, 694.0)">i</text><text xml:space="preserve" font-family="HelveticaNeue-Bold,Helvetica Neue" font-weight="bold" font-size="36.0" fill="#FEFFFF" transform="matrix(1.00, 0.00, -0.00, -1.00, 318.3, 694.0)">n</text><text xml:space="preserve" font-family="HelveticaNeue-Bold,Helvetica Neue" font-weight="bold" font-size="36.0" fill="#FEFFFF" transform="matrix(1.00, 0.00, -0.00, -1.00, 339.6, 694.0)">g</text><text xml:space="preserve" font-family="HelveticaNeue-Bold,Helvetica Neue" font-weight="bold" font-size="36.0" fill="#FEFFFF" transform="matrix(1.00, 0.00, -0.00, -1.00, 361.6, 694.0)"> </text><text xml:space="preserve" font-family="HelveticaNeue-Bold,Helvetica Neue" font-weight="bold" font-size="36.0" fill="#FEFFFF" transform="matrix(1.00, 0.00, -0.00, -1.00, 371.7, 694.0)">i</text><text xml:space="preserve" font-family="HelveticaNeue-Bold,Helvetica Neue" font-weight="bold" font-size="36.0" fill="#FEFFFF" transform="matrix(1.00, 0.00, -0.00, -1.00, 380.9, 694.0)">t</text><text xml:space="preserve" font-family="HelveticaNeue-Bold,Helvetica Neue" font-weight="bold" font-size="36.0" fill="#FEFFFF" transform="matrix(1.00, 0.00, -0.00, -1.00, 393.6, 694.0)"> </text><text xml:space="preserve" font-family="HelveticaNeue-Bold,Helvetica Neue" font-weight="bold" font-size="36.0" fill="#FEFFFF" transform="matrix(1.00, 0.00, -0.00, -1.00, 403.6, 694.0)">k</text><text xml:space="preserve" font-family="HelveticaNeue-Bold,Helvetica Neue" font-weight="bold" font-size="36.0" fill="#FEFFFF" transform="matrix(1.00, 0.00, -0.00, -1.00, 424.3, 694.0)">e</text><text xml:space="preserve" font-family="HelveticaNeue-Bold,Helvetica Neue" font-weight="bold" font-size="36.0" fill="#FEFFFF" transform="matrix(1.00, 0.00, -0.00, -1.00, 444.9, 694.0)">e</text><text xml:space="preserve" font-family="HelveticaNeue-Bold,Helvetica Neue" font-weight="bold" font-size="36.0" fill="#FEFFFF" transform="matrix(1.00, 0.00, -0.00, -1.00, 465.6, 694.0)">p</text><text xml:space="preserve" font-family="HelveticaNeue-Bold,Helvetica Neue" font-weight="bold" font-size="36.0" fill="#FEFFFF" transform="matrix(1.00, 0.00, -0.00, -1.00, 487.6, 694.0)">s</text><text xml:space="preserve" font-family="HelveticaNeue-Bold,Helvetica Neue" font-weight="bold" font-size="36.0" fill="#FEFFFF" transform="matrix(1.00, 0.00, -0.00, -1.00, 506.9, 694.0)"> </text><text xml:space="preserve" font-family="HelveticaNeue-Bold,Helvetica Neue" font-weight="bold" font-size="36.0" fill="#FEFFFF" transform="matrix(1.00, 0.00, -0.00, -1.00, 516.9, 694.0)">t</text><text xml:space="preserve" font-family="HelveticaNeue-Bold,Helvetica Neue" font-weight="bold" font-size="36.0" fill="#FEFFFF" transform="matrix(1.00, 0.00, -0.00, -1.00, 529.6, 694.0)">r</text><text xml:space="preserve" font-family="HelveticaNeue-Bold,Helvetica Neue" font-weight="bold" font-size="36.0" fill="#FEFFFF" transform="matrix(1.00, 0.00, -0.00, -1.00, 543.6, 694.0)">a</text><text xml:space="preserve" font-family="HelveticaNeue-Bold,Helvetica Neue" font-weight="bold" font-size="36.0" fill="#FEFFFF" transform="matrix(1.00, 0.00, -0.00, -1.00, 564.3, 694.0)">c</text><text xml:space="preserve" font-family="HelveticaNeue-Bold,Helvetica Neue" font-weight="bold" font-size="36.0" fill="#FEFFFF" transform="matrix(1.00, 0.00, -0.00, -1.00, 585.0, 694.0)">k</text><text xml:space="preserve" font-family="HelveticaNeue-Bold,Helvetica Neue" font-weight="bold" font-size="36.0" fill="#FEFFFF" transform="matrix(1.00, 0.00, -0.00, -1.00, 605.6, 694.0)"> </text><text xml:space="preserve" font-family="HelveticaNeue-Bold,Helvetica Neue" font-weight="bold" font-size="36.0" fill="#FEFFFF" transform="matrix(1.00, 0.00, -0.00, -1.00, 615.6, 694.0)">o</text><text xml:space="preserve" font-family="HelveticaNeue-Bold,Helvetica Neue" font-weight="bold" font-size="36.0" fill="#FEFFFF" transform="matrix(1.00, 0.00, -0.00, -1.00, 637.6, 694.0)">n</text><text xml:space="preserve" font-family="HelveticaNeue-Bold,Helvetica Neue" font-weight="bold" font-size="36.0" fill="#FEFFFF" transform="matrix(1.00, 0.00, -0.00, -1.00, 659.0, 694.0)"> </text><text xml:space="preserve" font-family="HelveticaNeue-Bold,Helvetica Neue" font-weight="bold" font-size="36.0" fill="#FEFFFF" transform="matrix(1.00, 0.00, -0.00, -1.00, 669.0, 694.0)">w</text><text xml:space="preserve" font-family="HelveticaNeue-Bold,Helvetica Neue" font-weight="bold" font-size="36.0" fill="#FEFFFF" transform="matrix(1.00, 0.00, -0.00, -1.00, 698.3, 694.0)">h</text><text xml:space="preserve" font-family="HelveticaNeue-Bold,Helvetica Neue" font-weight="bold" font-size="36.0" fill="#FEFFFF" transform="matrix(1.00, 0.00, -0.00, -1.00, 719.6, 694.0)">a</text><text xml:space="preserve" font-family="HelveticaNeue-Bold,Helvetica Neue" font-weight="bold" font-size="36.0" fill="#FEFFFF" transform="matrix(1.00, 0.00, -0.00, -1.00, 740.3, 694.0)">t</text><text xml:space="preserve" font-family="HelveticaNeue-Bold,Helvetica Neue" font-weight="bold" font-size="36.0" fill="#FEFFFF" transform="matrix(1.00, 0.00, -0.00, -1.00, 753.0, 694.0)"> </text><text xml:space="preserve" font-family="HelveticaNeue-Bold,Helvetica Neue" font-weight="bold" font-size="36.0" fill="#FEFFFF" transform="matrix(1.00, 0.00, -0.00, -1.00, 763.0, 694.0)">h</text><text xml:space="preserve" font-family="HelveticaNeue-Bold,Helvetica Neue" font-weight="bold" font-size="36.0" fill="#FEFFFF" transform="matrix(1.00, 0.00, -0.00, -1.00, 784.3, 694.0)">e</text><text xml:space="preserve" font-family="HelveticaNeue-Bold,Helvetica Neue" font-weight="bold" font-size="36.0" fill="#FEFFFF" transform="matrix(1.00, 0.00, -0.00, -1.00, 805.0, 694.0)"> </text><text xml:space="preserve" font-family="HelveticaNeue-Bold,Helvetica Neue" font-weight="bold" font-size="36.0" fill="#FEFFFF" transform="matrix(1.00, 0.00, -0.00, -1.00, 815.0, 694.0)">n</text><text xml:space="preserve" font-family="HelveticaNeue-Bold,Helvetica Neue" font-weight="bold" font-size="36.0" fill="#FEFFFF" transform="matrix(1.00, 0.00, -0.00, -1.00, 836.3, 694.0)">e</text><text xml:space="preserve" font-family="HelveticaNeue-Bold,Helvetica Neue" font-weight="bold" font-size="36.0" fill="#FEFFFF" transform="matrix(1.00, 0.00, -0.00, -1.00, 857.0, 694.0)">e</text><text xml:space="preserve" font-family="HelveticaNeue-Bold,Helvetica Neue" font-weight="bold" font-size="36.0" fill="#FEFFFF" transform="matrix(1.00, 0.00, -0.00, -1.00, 877.7, 694.0)">d</text><text xml:space="preserve" font-family="HelveticaNeue-Bold,Helvetica Neue" font-weight="bold" font-size="36.0" fill="#FEFFFF" transform="matrix(1.00, 0.00, -0.00, -1.00, 899.7, 694.0)">s</text><text xml:space="preserve" font-family="HelveticaNeue-Bold,Helvetica Neue" font-weight="bold" font-size="36.0" fill="#FEFFFF" transform="matrix(1.00, 0.00, -0.00, -1.00, 919.0, 694.0)">.</text><text xml:space="preserve" font-family="HelveticaNeue-Light,Helvetica Neue" font-size="36.0" fill="#FEFFFF" transform="matrix(1.00, 0.00, -0.00, -1.00, 444.5, 79.4)">A</text><text xml:space="preserve" font-family="HelveticaNeue-Light,Helvetica Neue" font-size="36.0" fill="#FEFFFF" transform="matrix(1.00, 0.00, -0.00, -1.00, 467.2, 79.4)">n</text><text xml:space="preserve" font-family="HelveticaNeue-Light,Helvetica Neue" font-size="36.0" fill="#FEFFFF" transform="matrix(1.00, 0.00, -0.00, -1.00, 486.5, 79.4)">d</text><text xml:space="preserve" font-family="HelveticaNeue-Light,Helvetica Neue" font-size="36.0" fill="#FEFFFF" transform="matrix(1.00, 0.00, -0.00, -1.00, 507.2, 79.4)"> </text><text xml:space="preserve" font-family="HelveticaNeue-Light,Helvetica Neue" font-size="36.0" fill="#FEFFFF" transform="matrix(1.00, 0.00, -0.00, -1.00, 517.2, 79.4)">w</text><text xml:space="preserve" font-family="HelveticaNeue-Light,Helvetica Neue" font-size="36.0" fill="#FEFFFF" transform="matrix(1.00, 0.00, -0.00, -1.00, 543.9, 79.4)">h</text><text xml:space="preserve" font-family="HelveticaNeue-Light,Helvetica Neue" font-size="36.0" fill="#FEFFFF" transform="matrix(1.00, 0.00, -0.00, -1.00, 563.2, 79.4)">e</text><text xml:space="preserve" font-family="HelveticaNeue-Light,Helvetica Neue" font-size="36.0" fill="#FEFFFF" transform="matrix(1.00, 0.00, -0.00, -1.00, 581.9, 79.4)">n</text><text xml:space="preserve" font-family="HelveticaNeue-Light,Helvetica Neue" font-size="36.0" fill="#FEFFFF" transform="matrix(1.00, 0.00, -0.00, -1.00, 601.2, 79.4)"> </text><text xml:space="preserve" font-family="HelveticaNeue-Light,Helvetica Neue" font-size="36.0" fill="#FEFFFF" transform="matrix(1.00, 0.00, -0.00, -1.00, 611.2, 79.4)">h</text><text xml:space="preserve" font-family="HelveticaNeue-Light,Helvetica Neue" font-size="36.0" fill="#FEFFFF" transform="matrix(1.00, 0.00, -0.00, -1.00, 630.5, 79.4)">e</text><text xml:space="preserve" font-family="HelveticaNeue-Light,Helvetica Neue" font-size="36.0" fill="#FEFFFF" transform="matrix(1.00, 0.00, -0.00, -1.00, 649.2, 79.4)"> </text><text xml:space="preserve" font-family="HelveticaNeue-Light,Helvetica Neue" font-size="36.0" fill="#FEFFFF" transform="matrix(1.00, 0.00, -0.00, -1.00, 659.2, 79.4)">t</text><text xml:space="preserve" font-family="HelveticaNeue-Light,Helvetica Neue" font-size="36.0" fill="#FEFFFF" transform="matrix(1.00, 0.00, -0.00, -1.00, 669.9, 79.4)">i</text><text xml:space="preserve" font-family="HelveticaNeue-Light,Helvetica Neue" font-size="36.0" fill="#FEFFFF" transform="matrix(1.00, 0.00, -0.00, -1.00, 676.5, 79.4)">c</text><text xml:space="preserve" font-family="HelveticaNeue-Light,Helvetica Neue" font-size="36.0" fill="#FEFFFF" transform="matrix(1.00, 0.00, -0.00, -1.00, 695.2, 79.4)">k</text><text xml:space="preserve" font-family="HelveticaNeue-Light,Helvetica Neue" font-size="36.0" fill="#FEFFFF" transform="matrix(1.00, 0.00, -0.00, -1.00, 713.2, 79.4)">s</text><text xml:space="preserve" font-family="HelveticaNeue-Light,Helvetica Neue" font-size="36.0" fill="#FEFFFF" transform="matrix(1.00, 0.00, -0.00, -1.00, 730.5, 79.4)"> </text><text xml:space="preserve" font-family="HelveticaNeue-Light,Helvetica Neue" font-size="36.0" fill="#FEFFFF" transform="matrix(1.00, 0.00, -0.00, -1.00, 740.6, 79.4)">i</text><text xml:space="preserve" font-family="HelveticaNeue-Light,Helvetica Neue" font-size="36.0" fill="#FEFFFF" transform="matrix(1.00, 0.00, -0.00, -1.00, 747.2, 79.4)">t</text><text xml:space="preserve" font-family="HelveticaNeue-Light,Helvetica Neue" font-size="36.0" fill="#FEFFFF" transform="matrix(1.00, 0.00, -0.00, -1.00, 757.9, 79.4)"> </text><text xml:space="preserve" font-family="HelveticaNeue-Light,Helvetica Neue" font-size="36.0" fill="#FEFFFF" transform="matrix(1.00, 0.00, -0.00, -1.00, 767.9, 79.4)">o</text><text xml:space="preserve" font-family="HelveticaNeue-Light,Helvetica Neue" font-size="36.0" fill="#FEFFFF" transform="matrix(1.00, 0.00, -0.00, -1.00, 787.9, 79.4)">f</text><text xml:space="preserve" font-family="HelveticaNeue-Light,Helvetica Neue" font-size="36.0" fill="#FEFFFF" transform="matrix(1.00, 0.00, -0.00, -1.00, 796.6, 79.4)">f</text><text xml:space="preserve" font-family="HelveticaNeue-Light,Helvetica Neue" font-size="36.0" fill="#FEFFFF" transform="matrix(1.00, 0.00, -0.00, -1.00, 805.9, 79.4)">,</text><text xml:space="preserve" font-family="HelveticaNeue-Light,Helvetica Neue" font-size="36.0" fill="#FEFFFF" transform="matrix(1.00, 0.00, -0.00, -1.00, 815.9, 79.4)"> </text><text xml:space="preserve" font-family="HelveticaNeue-Light,Helvetica Neue" font-size="36.0" fill="#FEFFFF" transform="matrix(1.00, 0.00, -0.00, -1.00, 825.9, 79.4)">t</text><text xml:space="preserve" font-family="HelveticaNeue-Light,Helvetica Neue" font-size="36.0" fill="#FEFFFF" transform="matrix(1.00, 0.00, -0.00, -1.00, 836.6, 79.4)">h</text><text xml:space="preserve" font-family="HelveticaNeue-Light,Helvetica Neue" font-size="36.0" fill="#FEFFFF" transform="matrix(1.00, 0.00, -0.00, -1.00, 855.9, 79.4)">e</text><text xml:space="preserve" font-family="HelveticaNeue-Light,Helvetica Neue" font-size="36.0" fill="#FEFFFF" transform="matrix(1.00, 0.00, -0.00, -1.00, 874.6, 79.4)"> </text><text xml:space="preserve" font-family="HelveticaNeue-Light,Helvetica Neue" font-size="36.0" fill="#FEFFFF" transform="matrix(1.00, 0.00, -0.00, -1.00, 884.6, 79.4)">a</text><text xml:space="preserve" font-family="HelveticaNeue-Light,Helvetica Neue" font-size="36.0" fill="#FEFFFF" transform="matrix(1.00, 0.00, -0.00, -1.00, 903.3, 79.4)">p</text><text xml:space="preserve" font-family="HelveticaNeue-Light,Helvetica Neue" font-size="36.0" fill="#FEFFFF" transform="matrix(1.00, 0.00, -0.00, -1.00, 923.9, 79.4)">p</text><text xml:space="preserve" font-family="HelveticaNeue-Light,Helvetica Neue" font-size="36.0" fill="#FEFFFF" transform="matrix(1.00, 0.00, -0.00, -1.00, 944.6, 79.4)"> </text><text xml:space="preserve" font-family="HelveticaNeue-Light,Helvetica Neue" font-size="36.0" fill="#FEFFFF" transform="matrix(1.00, 0.00, -0.00, -1.00, 444.5, 35.4)">a</text><text xml:space="preserve" font-family="HelveticaNeue-Light,Helvetica Neue" font-size="36.0" fill="#FEFFFF" transform="matrix(1.00, 0.00, -0.00, -1.00, 463.2, 35.4)">u</text><text xml:space="preserve" font-family="HelveticaNeue-Light,Helvetica Neue" font-size="36.0" fill="#FEFFFF" transform="matrix(1.00, 0.00, -0.00, -1.00, 482.5, 35.4)">t</text><text xml:space="preserve" font-family="HelveticaNeue-Light,Helvetica Neue" font-size="36.0" fill="#FEFFFF" transform="matrix(1.00, 0.00, -0.00, -1.00, 493.2, 35.4)">o</text><text xml:space="preserve" font-family="HelveticaNeue-Light,Helvetica Neue" font-size="36.0" fill="#FEFFFF" transform="matrix(1.00, 0.00, -0.00, -1.00, 513.2, 35.4)">m</text><text xml:space="preserve" font-family="HelveticaNeue-Light,Helvetica Neue" font-size="36.0" fill="#FEFFFF" transform="matrix(1.00, 0.00, -0.00, -1.00, 543.2, 35.4)">a</text><text xml:space="preserve" font-family="HelveticaNeue-Light,Helvetica Neue" font-size="36.0" fill="#FEFFFF" transform="matrix(1.00, 0.00, -0.00, -1.00, 561.9, 35.4)">t</text><text xml:space="preserve" font-family="HelveticaNeue-Light,Helvetica Neue" font-size="36.0" fill="#FEFFFF" transform="matrix(1.00, 0.00, -0.00, -1.00, 572.5, 35.4)">i</text><text xml:space="preserve" font-family="HelveticaNeue-Light,Helvetica Neue" font-size="36.0" fill="#FEFFFF" transform="matrix(1.00, 0.00, -0.00, -1.00, 579.2, 35.4)">c</text><text xml:space="preserve" font-family="HelveticaNeue-Light,Helvetica Neue" font-size="36.0" fill="#FEFFFF" transform="matrix(1.00, 0.00, -0.00, -1.00, 597.9, 35.4)">a</text><text xml:space="preserve" font-family="HelveticaNeue-Light,Helvetica Neue" font-size="36.0" fill="#FEFFFF" transform="matrix(1.00, 0.00, -0.00, -1.00, 616.5, 35.4)">l</text><text xml:space="preserve" font-family="HelveticaNeue-Light,Helvetica Neue" font-size="36.0" fill="#FEFFFF" transform="matrix(1.00, 0.00, -0.00, -1.00, 623.2, 35.4)">l</text><text xml:space="preserve" font-family="HelveticaNeue-Light,Helvetica Neue" font-size="36.0" fill="#FEFFFF" transform="matrix(1.00, 0.00, -0.00, -1.00, 629.9, 35.4)">y</text><text xml:space="preserve" font-family="HelveticaNeue-Light,Helvetica Neue" font-size="36.0" fill="#FEFFFF" transform="matrix(1.00, 0.00, -0.00, -1.00, 646.5, 35.4)"> </text><text xml:space="preserve" font-family="HelveticaNeue-Light,Helvetica Neue" font-size="36.0" fill="#FEFFFF" transform="matrix(1.00, 0.00, -0.00, -1.00, 656.5, 35.4)">u</text><text xml:space="preserve" font-family="HelveticaNeue-Light,Helvetica Neue" font-size="36.0" fill="#FEFFFF" transform="matrix(1.00, 0.00, -0.00, -1.00, 675.9, 35.4)">p</text><text xml:space="preserve" font-family="HelveticaNeue-Light,Helvetica Neue" font-size="36.0" fill="#FEFFFF" transform="matrix(1.00, 0.00, -0.00, -1.00, 696.5, 35.4)">d</text><text xml:space="preserve" font-family="HelveticaNeue-Light,Helvetica Neue" font-size="36.0" fill="#FEFFFF" transform="matrix(1.00, 0.00, -0.00, -1.00, 717.2, 35.4)">a</text><text xml:space="preserve" font-family="HelveticaNeue-Light,Helvetica Neue" font-size="36.0" fill="#FEFFFF" transform="matrix(1.00, 0.00, -0.00, -1.00, 735.9, 35.4)">t</text><text xml:space="preserve" font-family="HelveticaNeue-Light,Helvetica Neue" font-size="36.0" fill="#FEFFFF" transform="matrix(1.00, 0.00, -0.00, -1.00, 746.5, 35.4)">e</text><text xml:space="preserve" font-family="HelveticaNeue-Light,Helvetica Neue" font-size="36.0" fill="#FEFFFF" transform="matrix(1.00, 0.00, -0.00, -1.00, 765.2, 35.4)">s</text><text xml:space="preserve" font-family="HelveticaNeue-Light,Helvetica Neue" font-size="36.0" fill="#FEFFFF" transform="matrix(1.00, 0.00, -0.00, -1.00, 782.5, 35.4)"> </text><text xml:space="preserve" font-family="HelveticaNeue-Light,Helvetica Neue" font-size="36.0" fill="#FEFFFF" transform="matrix(1.00, 0.00, -0.00, -1.00, 792.5, 35.4)">h</text><text xml:space="preserve" font-family="HelveticaNeue-Light,Helvetica Neue" font-size="36.0" fill="#FEFFFF" transform="matrix(1.00, 0.00, -0.00, -1.00, 811.9, 35.4)">i</text><text xml:space="preserve" font-family="HelveticaNeue-Light,Helvetica Neue" font-size="36.0" fill="#FEFFFF" transform="matrix(1.00, 0.00, -0.00, -1.00, 818.5, 35.4)">s</text><text xml:space="preserve" font-family="HelveticaNeue-Light,Helvetica Neue" font-size="36.0" fill="#FEFFFF" transform="matrix(1.00, 0.00, -0.00, -1.00, 835.8, 35.4)"> </text><text xml:space="preserve" font-family="HelveticaNeue-Light,Helvetica Neue" font-size="36.0" fill="#FEFFFF" transform="matrix(1.00, 0.00, -0.00, -1.00, 845.9, 35.4)">i</text><text xml:space="preserve" font-family="HelveticaNeue-Light,Helvetica Neue" font-size="36.0" fill="#FEFFFF" transform="matrix(1.00, 0.00, -0.00, -1.00, 852.5, 35.4)">n</text><text xml:space="preserve" font-family="HelveticaNeue-Light,Helvetica Neue" font-size="36.0" fill="#FEFFFF" transform="matrix(1.00, 0.00, -0.00, -1.00, 871.8, 35.4)">v</text><text xml:space="preserve" font-family="HelveticaNeue-Light,Helvetica Neue" font-size="36.0" fill="#FEFFFF" transform="matrix(1.00, 0.00, -0.00, -1.00, 888.5, 35.4)">e</text><text xml:space="preserve" font-family="HelveticaNeue-Light,Helvetica Neue" font-size="36.0" fill="#FEFFFF" transform="matrix(1.00, 0.00, -0.00, -1.00, 907.2, 35.4)">n</text><text xml:space="preserve" font-family="HelveticaNeue-Light,Helvetica Neue" font-size="36.0" fill="#FEFFFF" transform="matrix(1.00, 0.00, -0.00, -1.00, 926.5, 35.4)">t</text><text xml:space="preserve" font-family="HelveticaNeue-Light,Helvetica Neue" font-size="36.0" fill="#FEFFFF" transform="matrix(1.00, 0.00, -0.00, -1.00, 937.2, 35.4)">o</text><text xml:space="preserve" font-family="HelveticaNeue-Light,Helvetica Neue" font-size="36.0" fill="#FEFFFF" transform="matrix(1.00, 0.00, -0.00, -1.00, 957.2, 35.4)">r</text><text xml:space="preserve" font-family="HelveticaNeue-Light,Helvetica Neue" font-size="36.0" fill="#FEFFFF" transform="matrix(1.00, 0.00, -0.00, -1.00, 968.5, 35.4)">y</text><text xml:space="preserve" font-family="HelveticaNeue-Light,Helvetica Neue" font-size="36.0" fill="#FEFFFF" transform="matrix(1.00, 0.00, -0.00, -1.00, 981.9, 35.4)">.</text></g></svg>