<?xml version="1.0" encoding="UTF-8" standalone="no"?><svg xmlns="http://www.w3.org/2000/svg" xmlns:xlink="http://www.w3.org/1999/xlink" clip-rule="evenodd" stroke-miterlimit="10" viewBox="0 0 1024 768"><desc>SVG generated by Keynote</desc><defs></defs><g transform="matrix(1.00, 0.00, -0.00, -1.00, 0.0, 768.0)"><path d="M 0.0 768.0 L 1024.0 768.0 L 1024.0 0.0 L 0.0 0.0 Z M 0.0 768.0 " fill="#303038"></path><g><clipPath id="clip0x618000abdf40"><path d="M 325.0 266.2 L 699.0 266.2 L 699.0 646.0 L 325.0 646.0 Z M 325.0 266.2 "></path></clipPath><g clip-path="url(#clip0x618000abdf40)"><path d="M 643.5 589.7 C 716.2 515.9 716.2 396.3 643.5 322.5 C 570.9 248.8 453.1 248.8 380.5 322.5 C 307.8 396.3 307.8 515.9 380.5 589.7 C 453.1 663.5 570.9 663.5 643.5 589.7 Z M 643.5 589.7 " fill="#000000" fill-opacity="0.37"></path></g></g><g><clipPath id="clip0x618000abe180"><path d="M 403.1 591.0 L 620.9 591.0 L 620.9 321.2 L 403.1 321.2 Z M 403.1 591.0 "></path></clipPath><g clip-path="url(#clip0x618000abe180)"><g><clipPath id="clip0x618000abe300"><path d="M 403.1 321.2 L 620.9 321.2 L 620.9 591.0 L 403.1 591.0 Z M 403.1 321.2 "></path></clipPath><g clip-path="url(#clip0x618000abe300)"><path d="M 585.5 566.7 C 584.1 566.2 582.6 565.6 581.1 565.0 C 581.1 564.9 581.1 564.8 581.2 564.6 C 583.7 565.2 584.8 562.9 586.5 562.0 C 587.6 562.7 587.9 563.5 586.9 564.5 C 586.3 565.1 586.0 565.8 585.5 566.7 M 585.5 550.4 C 584.6 552.6 583.8 554.7 582.8 556.6 C 582.3 557.5 581.4 558.1 580.7 558.9 C 579.9 559.9 579.0 560.9 578.0 562.1 C 578.9 562.9 579.8 563.6 580.6 564.3 C 580.6 564.4 580.5 564.6 580.5 564.7 C 580.0 564.6 579.5 564.6 579.1 564.5 C 572.4 562.2 565.8 559.8 559.1 557.6 C 551.3 555.0 543.5 552.6 535.8 550.1 C 528.1 547.7 520.4 545.3 512.7 542.9 C 507.4 541.3 502.2 539.6 496.9 537.9 C 493.4 536.8 489.8 535.6 486.3 534.4 C 478.6 531.7 470.8 529.0 463.2 526.1 C 456.2 523.5 449.2 520.8 442.3 517.9 C 438.2 516.2 434.3 514.2 430.3 512.4 C 426.3 510.6 422.2 508.9 418.1 507.3 C 416.8 506.8 415.3 506.9 414.1 508.0 C 412.6 509.5 412.6 511.3 414.2 513.3 C 415.4 514.8 416.9 515.8 418.9 516.1 C 426.3 517.5 433.2 520.6 440.2 523.2 C 451.6 527.5 463.0 531.8 474.5 535.9 C 484.8 539.5 495.1 542.8 505.4 546.3 C 509.8 547.7 514.2 549.0 518.6 550.3 C 528.8 553.5 539.1 556.5 549.2 559.7 C 559.3 563.0 569.3 566.6 579.3 570.0 C 580.0 570.2 580.1 570.6 579.8 571.3 C 578.6 574.1 577.5 577.0 576.3 579.8 C 576.0 580.6 575.9 581.4 575.6 582.4 C 574.0 581.5 572.5 580.6 570.9 579.8 C 569.5 579.0 568.6 579.5 568.1 581.1 C 568.1 581.3 567.3 581.6 566.9 581.6 C 564.3 581.0 561.6 580.3 559.0 579.6 C 551.0 577.4 543.1 575.2 535.2 573.0 C 529.6 571.4 524.1 569.7 518.5 568.0 C 511.7 566.0 504.9 564.0 498.2 561.9 C 490.5 559.5 482.8 556.9 475.1 554.4 C 469.3 552.4 463.6 550.4 458.0 548.4 C 452.8 546.5 447.6 544.6 442.4 542.6 C 438.5 541.0 434.7 539.4 430.8 537.8 C 428.7 536.9 426.6 536.2 424.5 535.3 C 424.0 535.0 423.7 534.2 423.1 534.0 C 422.1 533.5 422.7 532.9 422.7 532.3 C 422.7 528.9 423.6 525.7 425.1 522.7 C 425.2 522.5 425.2 522.2 425.2 522.0 C 424.9 521.3 420.8 519.2 420.0 519.4 C 419.6 519.5 419.2 519.8 419.0 520.1 C 416.8 523.3 415.5 526.8 414.6 530.5 C 414.1 532.6 414.1 534.7 415.9 536.2 C 417.2 537.2 417.7 538.7 418.5 540.0 C 419.4 541.4 420.3 543.4 422.6 543.4 C 423.1 543.4 423.6 543.8 424.1 543.9 C 425.1 544.2 426.1 544.4 427.0 544.7 C 429.3 545.4 431.5 545.9 433.8 546.7 C 439.1 548.5 444.4 550.3 449.7 552.2 C 455.6 554.2 461.4 556.2 467.3 558.2 C 471.7 559.7 476.3 561.2 480.8 562.6 C 487.5 564.7 494.2 566.7 500.9 568.7 C 510.8 571.7 520.6 574.7 530.6 577.6 C 540.8 580.5 551.0 583.4 561.2 586.2 C 565.4 587.4 569.6 588.3 573.9 589.3 C 575.1 589.6 576.3 589.7 577.5 589.8 C 578.4 589.9 579.0 589.4 579.2 588.6 C 579.5 587.5 579.9 587.0 581.2 586.6 C 583.0 586.1 583.8 584.3 584.6 582.7 C 586.0 580.0 586.2 577.0 586.8 574.2 C 586.9 573.7 587.0 573.3 587.2 572.8 C 590.6 573.9 594.0 575.0 597.4 576.1 C 598.8 576.5 600.3 576.9 601.8 577.3 C 603.6 577.7 605.0 579.4 605.2 581.2 C 605.4 583.5 605.7 585.7 606.1 588.0 C 606.4 589.6 609.0 591.2 610.9 591.0 C 612.4 590.9 614.2 589.2 614.4 587.7 C 614.7 585.0 613.7 582.6 612.5 580.4 C 612.3 580.0 612.0 579.7 612.0 579.4 C 612.1 576.4 610.1 574.9 608.0 573.6 C 600.9 569.2 594.8 563.8 589.9 557.4 C 590.3 555.7 590.8 554.1 591.3 552.5 C 591.4 552.2 591.8 552.0 592.1 551.7 C 592.5 551.3 593.1 551.1 593.5 550.6 C 594.3 549.7 594.0 548.3 592.9 547.8 C 591.9 547.4 591.0 546.9 590.0 546.6 C 580.8 544.1 571.6 541.6 562.4 539.1 C 554.2 536.8 546.0 534.6 537.9 532.2 C 530.7 530.0 523.5 527.7 516.3 525.4 C 511.5 523.8 506.7 522.1 501.9 520.5 C 497.4 519.0 493.0 517.6 488.5 516.1 C 485.8 515.1 483.0 514.2 480.3 513.2 C 475.9 511.5 471.5 509.9 467.1 508.2 C 464.3 507.1 461.5 505.8 458.7 504.5 C 452.6 501.7 446.6 498.8 440.5 495.9 C 438.2 494.8 435.9 493.6 433.7 492.5 C 432.8 492.1 430.8 492.3 430.2 492.9 C 428.5 494.9 426.7 496.8 425.2 498.9 C 423.6 501.1 422.8 503.5 424.0 506.3 C 424.9 508.5 427.9 509.3 429.4 507.3 C 430.2 506.3 430.6 504.9 431.1 503.6 C 431.5 502.5 431.8 501.4 432.2 500.3 C 432.8 499.2 433.7 499.0 434.8 499.6 C 438.1 501.2 441.5 502.9 444.9 504.5 C 450.9 507.2 457.0 509.9 463.2 512.3 C 469.4 514.8 475.8 516.9 482.2 519.1 C 490.6 522.0 499.0 524.8 507.5 527.6 C 519.3 531.4 531.1 535.4 543.0 538.8 C 555.2 542.4 567.5 545.5 579.8 548.8 C 581.7 549.2 583.5 549.8 585.5 550.4 " fill="#FFFFFF"></path><path d="M 417.9 452.7 C 417.6 453.3 417.3 453.8 417.1 454.2 C 418.1 456.8 420.4 458.0 422.5 459.5 C 425.5 461.5 428.3 463.8 431.2 465.9 C 432.3 466.7 433.7 467.1 435.2 467.9 C 435.0 470.3 434.8 473.2 434.6 476.0 C 434.4 478.1 434.9 479.9 436.5 481.4 C 436.7 481.7 436.9 482.1 436.9 482.5 C 437.2 485.5 438.8 487.1 441.8 487.0 C 446.3 486.8 450.7 486.3 455.2 486.2 C 459.9 486.0 464.7 485.9 469.4 485.9 C 472.7 485.8 476.1 485.9 479.4 485.9 C 485.8 485.8 492.2 485.8 498.6 485.7 C 503.9 485.6 509.2 485.4 514.6 485.2 C 519.7 485.1 524.8 485.1 529.8 484.9 C 535.5 484.8 541.1 484.6 546.7 484.3 C 553.2 484.0 559.6 483.6 566.0 482.9 C 570.6 482.5 575.1 481.6 579.7 480.8 C 581.3 480.5 582.5 478.7 582.8 477.1 C 583.1 475.4 583.8 473.8 584.3 472.1 C 585.2 468.9 585.3 465.7 585.1 462.4 C 585.1 462.2 585.1 462.1 585.1 462.0 C 584.8 461.4 584.3 460.5 584.5 460.2 C 584.9 459.6 585.7 459.1 586.4 458.8 C 589.3 457.5 592.4 456.4 595.2 454.9 C 597.0 453.9 598.4 454.0 599.6 455.6 C 599.7 455.7 599.8 455.8 599.8 455.8 C 603.0 456.4 603.9 459.3 605.5 461.5 C 606.9 463.5 607.8 465.8 609.1 467.8 C 610.0 469.2 611.2 470.3 612.4 471.5 C 613.0 472.0 613.5 471.8 614.0 471.1 C 615.8 468.4 615.2 465.9 613.8 463.4 C 612.2 460.4 610.3 457.5 608.5 454.6 C 608.0 453.9 607.8 453.3 608.4 452.5 C 609.4 451.3 608.7 450.0 608.0 448.9 C 607.4 448.1 607.5 447.6 608.1 446.9 C 611.8 442.0 615.3 436.9 617.3 431.0 C 619.2 425.6 620.7 420.1 620.8 414.4 C 621.0 411.1 620.3 407.7 618.1 404.9 C 617.1 403.7 615.9 402.5 614.8 401.3 C 614.1 400.5 613.2 400.5 612.3 401.1 C 611.5 401.6 611.0 403.4 611.4 404.2 C 612.2 405.9 613.2 407.5 613.8 409.3 C 614.8 412.2 615.0 415.3 614.3 418.2 C 613.2 422.4 611.8 426.5 610.2 430.5 C 608.3 435.3 604.8 438.9 600.7 442.0 C 598.6 443.6 596.9 445.6 595.7 448.0 C 595.5 448.4 594.9 448.7 594.4 448.9 C 588.2 450.3 582.2 452.3 576.7 455.6 C 575.7 456.3 574.6 457.1 573.9 458.0 C 572.5 460.1 574.1 463.1 576.6 463.3 C 577.0 463.4 577.5 463.4 578.3 463.5 C 577.8 466.2 577.5 468.7 576.9 471.2 C 576.6 472.7 575.8 474.1 577.0 475.8 C 575.2 476.1 573.7 476.4 572.2 476.5 C 562.3 477.4 552.4 478.3 542.5 478.9 C 536.3 479.2 530.0 479.1 523.7 479.2 C 517.0 479.4 510.2 479.5 503.4 479.6 C 497.2 479.6 491.0 479.5 484.8 479.5 C 478.1 479.5 471.4 479.4 464.7 479.3 C 460.0 479.3 455.3 479.1 450.6 479.0 C 448.3 479.0 446.1 479.1 443.9 479.1 C 442.3 479.2 442.2 478.9 442.3 477.4 C 442.4 475.5 442.4 473.6 442.4 471.7 C 442.4 468.4 440.8 466.2 437.4 465.3 C 438.7 463.2 437.4 462.0 435.8 461.0 C 432.0 458.7 428.2 456.4 424.4 454.0 C 423.3 453.3 421.9 453.0 421.1 451.4 C 422.6 451.5 423.9 451.7 425.1 451.7 C 433.0 452.1 440.9 452.7 448.8 452.9 C 456.3 453.1 463.7 453.0 471.1 453.0 C 477.5 453.1 483.9 453.0 490.3 453.1 C 496.8 453.2 503.3 453.6 509.8 453.8 C 515.5 454.0 521.1 454.1 526.7 454.0 C 532.1 454.0 537.5 454.0 542.9 453.6 C 549.8 453.2 556.8 452.4 563.7 451.8 C 566.1 451.5 568.5 451.4 570.7 450.4 C 571.2 450.1 571.7 449.6 572.2 449.2 C 572.1 449.0 572.0 448.9 572.0 448.7 C 570.7 448.6 569.4 448.4 568.1 448.4 C 560.0 448.8 551.8 449.2 543.7 449.5 C 530.8 450.0 517.9 449.9 505.0 449.4 C 494.3 449.0 483.5 448.9 472.8 448.7 C 461.7 448.5 450.6 448.6 439.5 448.2 C 433.8 448.0 428.1 447.1 422.3 446.5 C 421.3 446.4 420.3 446.2 419.1 446.1 C 421.0 443.0 420.1 439.9 420.3 436.9 C 420.6 431.2 420.8 425.5 420.7 419.8 C 420.5 412.4 419.9 405.1 419.4 397.7 C 419.2 394.8 419.0 391.8 418.7 388.8 C 418.4 385.5 417.9 382.2 417.6 378.9 C 416.6 370.4 415.7 361.8 414.8 353.2 C 414.6 351.5 414.6 349.8 414.6 348.1 C 414.6 347.6 414.9 346.9 415.3 346.7 C 418.6 344.5 420.7 341.3 422.9 338.2 C 423.5 337.3 424.0 336.3 424.4 335.3 C 425.3 333.6 426.4 332.1 427.9 330.9 C 428.9 330.0 429.8 328.9 430.3 327.7 C 430.6 327.1 430.3 326.0 430.0 325.3 C 429.6 324.6 429.2 323.6 427.8 324.2 C 427.0 324.5 426.0 324.2 425.2 324.5 C 421.8 325.8 419.8 328.6 418.2 331.7 C 417.4 333.4 416.4 334.9 415.4 336.4 C 414.7 337.4 413.9 338.3 412.4 337.9 C 411.9 337.8 411.2 338.2 410.8 338.6 C 409.6 339.8 408.6 341.2 408.7 343.0 C 408.7 348.9 408.7 354.7 409.0 360.6 C 409.4 366.1 410.4 371.5 410.9 376.9 C 411.7 386.0 412.6 395.1 413.2 404.2 C 413.6 410.3 413.7 416.5 413.6 422.6 C 413.6 427.4 413.0 432.3 412.7 437.2 C 412.6 439.6 412.8 442.0 413.0 444.4 C 413.0 445.1 413.7 445.7 414.1 446.3 C 414.2 446.5 414.5 446.7 414.6 446.9 C 414.8 447.5 413.0 450.7 412.4 451.1 C 411.2 451.8 410.0 452.5 408.9 453.4 C 407.5 454.7 407.5 456.7 408.8 458.1 C 410.1 459.5 412.2 459.6 413.6 458.3 C 414.7 457.3 415.6 456.4 415.5 454.6 C 415.4 452.9 416.2 452.3 417.9 452.7 " fill="#FFFFFF"></path><path d="M 526.8 323.3 C 519.1 323.7 511.3 324.2 503.5 324.4 C 496.8 324.6 490.1 324.7 483.4 324.6 C 477.3 324.5 471.3 324.0 465.2 323.7 C 460.8 323.5 456.3 323.3 451.9 323.2 C 448.2 323.1 444.6 323.0 441.0 323.2 C 438.7 323.3 436.5 323.9 434.2 324.3 C 432.7 324.6 431.7 325.7 431.0 326.9 C 430.2 328.5 432.1 331.6 434.1 331.8 C 434.7 331.9 435.4 331.6 436.1 331.6 C 437.9 331.3 439.7 331.0 441.5 330.9 C 448.3 330.7 455.1 330.5 462.0 330.5 C 467.7 330.5 473.3 331.0 479.0 331.1 C 484.6 331.2 490.3 331.3 495.9 331.2 C 503.1 331.0 510.3 330.6 517.4 330.3 C 523.4 330.1 529.3 329.9 535.2 329.9 C 539.8 329.9 544.4 330.3 549.1 330.4 C 556.3 330.7 563.6 331.0 570.8 329.9 C 573.0 329.6 575.2 329.6 577.4 329.5 C 577.9 329.5 578.7 329.7 579.1 330.1 C 580.6 331.5 582.0 332.9 583.4 334.3 C 584.8 335.9 585.3 337.8 585.6 339.9 C 585.7 341.2 587.1 342.7 588.5 342.9 C 589.8 343.1 591.5 342.2 591.9 340.8 C 592.9 337.8 592.9 335.6 590.4 333.0 C 588.6 331.2 586.9 329.2 585.3 327.4 C 585.1 327.2 585.0 326.8 585.0 326.6 C 584.8 325.0 583.9 324.2 582.3 323.9 C 581.6 323.8 580.9 323.4 580.2 323.2 C 580.0 323.0 579.7 322.8 579.5 322.7 C 575.9 320.6 575.9 320.6 573.4 323.5 C 573.1 323.9 572.6 324.1 572.2 324.1 C 567.1 324.2 561.9 324.3 556.7 324.2 C 550.8 324.1 544.9 323.7 538.9 323.5 C 534.9 323.4 530.9 323.5 526.8 323.5 C 526.8 323.5 526.8 323.4 526.8 323.3 " fill="#FFFFFF"></path><path d="M 586.1 356.2 C 586.2 360.2 586.4 364.2 586.6 368.2 C 586.8 374.8 587.1 381.5 587.3 388.1 C 587.4 392.2 587.3 396.2 587.4 400.2 C 587.5 404.3 587.7 408.4 587.8 412.5 C 587.8 415.2 587.8 417.9 587.8 420.6 C 587.9 424.5 588.0 428.5 588.1 432.4 C 588.2 436.1 588.2 439.9 588.4 443.7 C 588.4 445.5 589.9 447.2 591.5 447.7 C 593.4 448.2 595.0 447.3 595.8 445.6 C 596.6 443.9 596.8 442.1 596.7 440.1 C 596.2 433.8 595.8 427.5 595.4 421.1 C 595.0 416.5 594.7 411.8 594.4 407.1 C 594.1 402.7 593.8 398.3 593.6 393.8 C 593.4 388.1 593.4 382.3 593.2 376.5 C 592.9 371.4 592.5 366.3 592.2 361.2 C 592.1 358.1 592.2 355.1 592.0 352.1 C 591.9 351.0 592.0 349.8 591.0 349.0 C 590.2 348.3 589.5 348.3 588.7 349.0 C 586.8 350.6 586.4 352.7 586.3 355.0 C 586.3 355.4 586.3 355.8 586.3 356.2 C 586.2 356.2 586.2 356.2 586.1 356.2 " fill="#FFFFFF"></path><path d="M 498.1 424.2 C 498.1 424.3 498.0 424.5 498.0 424.6 C 497.4 424.9 496.7 425.3 496.0 425.5 C 493.6 426.3 491.0 427.0 488.5 427.7 C 485.1 428.6 481.6 428.8 478.0 428.1 C 476.1 427.8 476.1 427.7 476.2 425.7 C 476.2 425.6 476.2 425.5 476.2 425.4 C 476.0 421.8 477.3 418.6 478.1 415.3 C 478.3 414.6 478.7 414.4 479.5 414.7 C 484.7 416.8 490.0 419.0 494.8 421.9 C 495.9 422.6 497.0 423.4 498.1 424.2 M 479.1 410.9 C 480.1 409.4 481.0 408.1 481.9 406.9 C 482.4 406.3 483.2 405.8 483.4 405.1 C 484.1 403.2 482.4 401.2 480.4 401.7 C 479.4 402.0 478.3 402.7 477.5 403.4 C 474.6 406.0 473.0 409.4 471.9 413.1 C 471.0 416.2 469.9 419.3 468.9 422.4 C 468.8 422.7 468.7 422.9 468.5 423.2 C 467.1 421.9 465.5 421.4 463.8 421.6 C 461.2 421.8 459.6 425.0 460.9 427.2 C 462.7 430.1 465.6 431.2 468.7 432.0 C 474.2 433.4 479.8 434.4 485.5 433.6 C 489.0 433.1 492.3 432.1 495.7 431.1 C 497.7 430.5 499.7 429.6 501.7 428.7 C 502.3 428.5 502.8 428.0 503.4 427.5 C 502.5 430.2 504.3 433.0 507.4 433.5 C 510.0 434.0 512.7 434.0 515.3 434.2 C 518.1 434.3 520.9 434.4 523.7 434.4 C 524.7 434.4 525.7 434.2 526.7 434.1 C 528.6 433.9 530.5 433.7 532.4 433.5 C 533.0 433.5 533.5 433.2 533.9 432.9 C 534.2 432.7 534.4 432.2 534.3 431.9 C 534.2 431.5 533.8 431.1 533.4 431.0 C 529.8 430.3 526.2 429.7 522.6 429.1 C 519.7 428.6 516.7 428.3 513.8 427.8 C 512.9 427.7 512.4 427.1 512.5 426.2 C 512.5 425.2 512.5 424.2 512.6 423.1 C 512.7 422.2 513.3 421.9 514.2 421.9 C 517.7 422.2 521.2 422.6 524.8 422.9 C 528.6 423.1 532.4 423.3 536.2 422.0 C 536.2 422.9 536.4 423.7 536.3 424.5 C 536.0 427.6 537.9 429.4 540.2 430.5 C 542.2 431.6 544.3 430.9 546.2 429.7 C 549.1 427.8 551.2 425.0 553.2 422.1 C 554.0 421.0 554.8 419.9 555.7 418.7 C 555.8 418.8 555.9 418.8 556.0 418.9 C 556.0 419.2 556.1 419.7 556.0 420.0 C 554.9 422.6 553.9 425.2 552.8 427.7 C 552.3 428.8 552.4 429.7 553.6 430.4 C 553.8 430.5 554.0 430.5 554.3 430.6 C 556.3 431.7 557.9 431.2 558.8 429.1 C 560.6 425.1 562.3 421.0 563.9 416.9 C 565.0 413.9 565.7 410.9 566.6 407.9 C 567.1 406.2 566.9 405.9 565.5 404.9 C 563.0 403.4 562.7 403.5 560.3 405.2 C 556.0 408.3 552.5 412.2 549.4 416.5 C 548.4 417.7 547.4 419.0 546.2 420.4 C 546.0 419.9 545.8 419.6 545.8 419.3 C 545.4 415.6 545.1 411.8 544.6 408.1 C 544.5 406.9 544.3 405.6 543.7 404.6 C 543.2 403.5 542.2 402.6 541.2 402.0 C 540.5 401.7 539.4 402.2 538.6 402.5 C 538.0 402.7 537.1 404.9 537.3 405.4 C 539.0 410.2 538.2 414.8 536.7 419.5 C 534.7 418.0 532.5 417.9 530.2 417.5 C 525.3 416.5 520.4 415.4 515.6 414.2 C 514.2 413.9 514.1 413.3 514.7 412.1 C 516.3 408.6 519.7 406.8 523.4 407.4 C 525.6 407.7 527.7 408.4 529.9 407.9 C 530.8 407.7 531.2 407.4 531.1 406.6 C 531.1 405.5 530.9 404.5 529.8 403.8 C 524.9 400.8 519.7 400.3 514.6 403.1 C 511.5 404.8 509.6 407.6 508.3 410.9 C 508.0 411.5 507.5 412.1 506.9 412.5 C 505.0 413.9 504.3 415.2 505.3 417.5 C 506.6 420.4 505.1 422.9 504.8 425.6 C 505.2 422.9 503.3 421.5 501.6 420.3 C 496.2 416.2 490.1 413.7 483.6 411.9 C 482.3 411.6 480.9 411.3 479.1 410.9 " fill="#FFFFFF"></path><path d="M 515.9 368.6 C 515.1 372.6 514.1 376.0 512.2 379.2 C 510.0 382.8 506.6 384.5 502.6 384.2 C 497.4 383.8 493.0 381.4 489.3 377.8 C 487.1 375.6 486.7 372.8 486.5 369.8 C 486.5 368.6 487.0 368.0 488.1 368.0 C 489.6 368.0 491.1 368.1 492.6 368.1 C 498.9 368.3 505.2 368.4 511.5 368.6 C 512.9 368.6 514.3 368.6 515.9 368.6 M 517.0 363.2 C 514.8 363.2 512.9 363.3 511.0 363.2 C 505.7 362.9 500.4 362.5 495.2 362.1 C 492.7 361.9 490.3 361.4 487.8 361.1 C 486.9 361.0 486.4 360.4 486.4 359.5 C 486.3 357.3 486.2 355.1 486.1 352.8 C 486.1 352.5 486.0 352.2 485.9 351.9 C 485.0 350.3 483.1 349.2 481.5 349.7 C 480.6 350.1 479.5 351.3 479.3 352.2 C 479.0 354.6 479.1 357.1 479.0 359.5 C 479.0 360.5 478.8 361.4 478.7 362.4 C 478.6 362.7 478.6 362.9 478.6 363.2 C 478.9 365.9 479.4 368.5 479.6 371.3 C 480.3 377.6 483.9 381.9 488.9 385.3 C 492.8 387.9 497.0 389.7 501.7 390.0 C 508.5 390.4 514.1 388.0 518.1 382.3 C 520.5 378.8 521.5 374.8 522.3 370.7 C 522.6 369.4 522.9 368.5 524.4 368.2 C 525.7 367.8 526.2 366.1 524.9 365.1 C 522.9 363.6 523.5 361.7 523.6 359.9 C 523.8 356.7 523.6 353.6 522.3 350.6 C 521.7 349.4 520.8 348.6 519.6 348.4 C 519.0 348.3 518.3 348.7 517.7 349.0 C 517.1 349.2 516.6 349.6 516.0 349.9 C 516.4 352.0 517.1 354.2 517.3 356.4 C 517.5 358.7 517.1 361.0 517.0 363.2 " fill="#FFFFFF"></path><path d="M 534.4 376.4 C 534.7 375.2 535.0 373.9 535.3 372.7 C 535.5 371.7 536.1 371.5 537.0 371.8 C 541.4 373.6 545.6 375.8 549.2 379.0 C 550.3 379.9 551.3 381.2 551.9 382.5 C 552.4 383.4 552.4 384.8 552.0 385.7 C 551.5 386.7 550.2 386.7 548.9 386.5 C 545.8 385.9 542.6 385.2 539.7 383.7 C 536.7 382.2 534.2 380.4 534.4 376.4 M 546.2 369.4 C 547.4 369.0 548.3 368.7 549.2 368.3 C 554.7 366.1 560.2 363.8 565.7 361.5 C 567.6 360.7 569.4 360.4 571.4 360.6 C 574.4 360.9 575.5 359.1 575.2 356.6 C 575.0 355.2 574.0 354.8 572.8 354.6 C 569.3 353.9 565.9 354.1 562.5 355.7 C 555.6 359.1 548.3 361.7 540.8 363.7 C 540.1 363.8 539.3 363.8 538.3 363.9 C 538.9 362.4 539.4 361.2 539.8 360.0 C 540.2 359.0 540.5 357.9 540.9 356.8 C 541.6 354.9 540.9 353.4 539.2 352.7 C 538.5 352.3 537.2 352.7 536.4 353.2 C 535.0 354.0 534.5 355.4 533.9 356.9 C 533.0 359.5 531.5 361.9 530.5 364.5 C 529.7 366.6 529.2 368.9 528.4 371.1 C 528.0 372.3 527.3 373.4 526.5 374.4 C 525.5 376.0 525.6 377.6 526.3 379.2 C 526.5 379.5 526.8 379.9 527.0 380.2 C 527.9 381.3 528.9 382.2 529.6 383.4 C 531.8 386.7 535.1 388.8 538.8 389.9 C 542.1 390.9 545.6 391.6 549.1 392.1 C 551.4 392.5 553.7 392.0 555.7 390.7 C 559.0 388.7 560.0 384.5 558.3 380.7 C 556.5 376.9 553.4 374.4 550.1 372.1 C 548.9 371.2 547.7 370.4 546.2 369.4 " fill="#FFFFFF"></path><path d="M 473.3 360.7 C 473.3 356.1 471.2 351.7 466.8 348.3 C 461.4 344.2 455.5 343.9 449.4 346.0 C 446.9 346.8 444.5 348.0 442.3 349.4 C 440.3 350.7 438.6 352.5 436.9 354.1 C 436.2 354.7 436.0 355.6 436.3 356.5 C 437.5 360.5 440.9 362.4 444.9 361.9 C 445.4 361.8 446.2 361.3 446.3 360.8 C 446.6 359.9 446.4 359.0 445.5 358.5 C 444.8 358.1 444.1 357.7 443.4 357.3 C 442.8 356.8 442.8 356.3 443.5 355.8 C 445.6 354.3 447.6 352.7 450.2 352.1 C 452.0 351.7 453.7 351.1 455.5 350.8 C 461.4 349.7 466.8 354.0 467.0 360.0 C 467.2 363.2 466.4 366.3 465.3 369.3 C 463.6 373.6 461.8 377.9 460.1 382.1 C 459.7 383.1 459.3 383.3 458.3 382.9 C 454.9 381.7 451.6 380.5 448.2 379.6 C 446.3 379.1 444.1 379.4 442.0 379.4 C 441.1 379.4 439.2 381.2 439.1 381.8 C 439.1 382.8 440.6 384.9 441.7 385.1 C 443.1 385.4 444.6 385.6 446.0 385.7 C 450.2 386.2 454.1 387.7 458.0 389.3 C 458.9 389.7 459.9 390.0 460.8 390.5 C 463.9 392.0 464.9 390.4 465.7 388.1 C 467.3 383.7 468.7 379.2 470.3 374.8 C 471.9 370.5 473.1 366.2 473.3 360.7 " fill="#FFFFFF"></path><path d="M 442.0 425.1 C 441.8 424.7 441.3 424.0 441.1 423.3 C 439.6 418.8 439.9 414.2 441.5 409.8 C 442.0 408.5 443.0 407.2 444.1 406.4 C 448.1 403.4 452.6 402.8 457.2 404.6 C 458.2 405.0 459.3 405.7 459.7 406.6 C 461.1 409.2 461.2 412.1 459.5 414.7 C 456.6 419.1 452.0 420.9 447.5 422.9 C 445.8 423.6 444.0 424.3 442.0 425.1 M 451.6 397.4 C 445.2 397.8 439.5 399.8 436.0 405.8 C 433.4 410.2 432.8 415.1 433.4 420.2 C 433.7 423.1 434.4 426.0 436.5 428.2 C 439.3 431.3 443.8 432.7 447.9 429.5 C 449.5 428.2 451.7 427.7 453.7 426.8 C 458.0 424.8 462.2 422.5 465.0 418.5 C 467.4 415.0 468.8 411.3 467.3 407.2 C 466.1 404.1 463.8 401.7 461.0 399.9 C 458.2 398.1 455.1 397.5 451.6 397.4 " fill="#FFFFFF"></path><path d="M 411.8 475.0 C 411.6 476.7 411.6 478.3 411.3 479.9 C 410.7 482.2 411.2 483.9 413.1 485.1 C 414.5 486.0 416.5 485.6 417.0 484.0 C 417.5 481.8 417.9 479.5 418.1 477.3 C 418.3 475.4 418.0 473.5 416.9 471.8 C 415.2 468.9 411.3 468.0 408.5 469.5 C 402.4 472.8 402.6 479.0 403.9 483.9 C 404.4 485.6 405.4 487.2 406.0 488.9 C 406.2 489.5 406.5 490.3 406.2 490.8 C 405.4 492.3 405.5 493.8 405.9 495.3 C 406.2 496.4 406.6 497.4 407.0 498.4 C 407.7 500.2 409.4 500.8 411.0 501.4 C 412.5 502.0 413.7 500.7 413.3 499.1 C 412.8 496.9 412.3 494.8 413.8 492.7 C 414.1 492.2 414.0 491.2 413.7 490.6 C 412.7 488.4 411.3 486.4 410.5 484.2 C 409.7 481.6 409.6 478.9 410.5 476.3 C 410.6 475.8 411.0 475.4 411.3 474.9 C 411.5 474.9 411.6 475.0 411.8 475.0 " fill="#FFFFFF"></path></g></g></g></g><text xml:space="preserve" font-family="HelveticaNeue-Thin,Helvetica Neue" font-size="40.0" fill="#FEFFFF" transform="matrix(1.00, 0.00, -0.00, -1.00, 297.2, 193.7)">L</text><text xml:space="preserve" font-family="HelveticaNeue-Thin,Helvetica Neue" font-size="40.0" fill="#FEFFFF" transform="matrix(1.00, 0.00, -0.00, -1.00, 316.5, 193.7)">e</text><text xml:space="preserve" font-family="HelveticaNeue-Thin,Helvetica Neue" font-size="40.0" fill="#FEFFFF" transform="matrix(1.00, 0.00, -0.00, -1.00, 337.3, 193.7)">t</text><text xml:space="preserve" font-family="HelveticaNeue-Thin,Helvetica Neue" font-size="40.0" fill="#FEFFFF" transform="matrix(1.00, 0.00, -0.00, -1.00, 347.6, 193.7)">’</text><text xml:space="preserve" font-family="HelveticaNeue-Thin,Helvetica Neue" font-size="40.0" fill="#FEFFFF" transform="matrix(1.00, 0.00, -0.00, -1.00, 353.9, 193.7)">s</text><text xml:space="preserve" font-family="HelveticaNeue-Thin,Helvetica Neue" font-size="40.0" fill="#FEFFFF" transform="matrix(1.00, 0.00, -0.00, -1.00, 373.1, 193.7)"> </text><text xml:space="preserve" font-family="HelveticaNeue-Thin,Helvetica Neue" font-size="40.0" fill="#FEFFFF" transform="matrix(1.00, 0.00, -0.00, -1.00, 384.2, 193.7)">c</text><text xml:space="preserve" font-family="HelveticaNeue-Thin,Helvetica Neue" font-size="40.0" fill="#FEFFFF" transform="matrix(1.00, 0.00, -0.00, -1.00, 405.0, 193.7)">o</text><text xml:space="preserve" font-family="HelveticaNeue-Thin,Helvetica Neue" font-size="40.0" fill="#FEFFFF" transform="matrix(1.00, 0.00, -0.00, -1.00, 426.5, 193.7)">o</text><text xml:space="preserve" font-family="HelveticaNeue-Thin,Helvetica Neue" font-size="40.0" fill="#FEFFFF" transform="matrix(1.00, 0.00, -0.00, -1.00, 447.9, 193.7)">k</text><text xml:space="preserve" font-family="HelveticaNeue-Thin,Helvetica Neue" font-size="40.0" fill="#FEFFFF" transform="matrix(1.00, 0.00, -0.00, -1.00, 466.5, 193.7)"> </text><text xml:space="preserve" font-family="HelveticaNeue-Thin,Helvetica Neue" font-size="40.0" fill="#FEFFFF" transform="matrix(1.00, 0.00, -0.00, -1.00, 477.6, 193.7)">i</text><text xml:space="preserve" font-family="HelveticaNeue-Thin,Helvetica Neue" font-size="40.0" fill="#FEFFFF" transform="matrix(1.00, 0.00, -0.00, -1.00, 484.3, 193.7)">t</text><text xml:space="preserve" font-family="HelveticaNeue-Thin,Helvetica Neue" font-size="40.0" fill="#FEFFFF" transform="matrix(1.00, 0.00, -0.00, -1.00, 494.7, 193.7)"> </text><text xml:space="preserve" font-family="HelveticaNeue-Thin,Helvetica Neue" font-size="40.0" fill="#FEFFFF" transform="matrix(1.00, 0.00, -0.00, -1.00, 505.8, 193.7)">–</text><text xml:space="preserve" font-family="HelveticaNeue-Thin,Helvetica Neue" font-size="40.0" fill="#FEFFFF" transform="matrix(1.00, 0.00, -0.00, -1.00, 525.8, 193.7)"> </text><text xml:space="preserve" font-family="HelveticaNeue-Thin,Helvetica Neue" font-size="40.0" fill="#FEFFFF" transform="matrix(1.00, 0.00, -0.00, -1.00, 536.9, 193.7)">n</text><text xml:space="preserve" font-family="HelveticaNeue-Thin,Helvetica Neue" font-size="40.0" fill="#FEFFFF" transform="matrix(1.00, 0.00, -0.00, -1.00, 557.7, 193.7)">o</text><text xml:space="preserve" font-family="HelveticaNeue-Thin,Helvetica Neue" font-size="40.0" fill="#FEFFFF" transform="matrix(1.00, 0.00, -0.00, -1.00, 579.1, 193.7)">t</text><text xml:space="preserve" font-family="HelveticaNeue-Thin,Helvetica Neue" font-size="40.0" fill="#FEFFFF" transform="matrix(1.00, 0.00, -0.00, -1.00, 589.5, 193.7)"> </text><text xml:space="preserve" font-family="HelveticaNeue-Thin,Helvetica Neue" font-size="40.0" fill="#FEFFFF" transform="matrix(1.00, 0.00, -0.00, -1.00, 600.6, 193.7)">w</text><text xml:space="preserve" font-family="HelveticaNeue-Thin,Helvetica Neue" font-size="40.0" fill="#FEFFFF" transform="matrix(1.00, 0.00, -0.00, -1.00, 628.8, 193.7)">a</text><text xml:space="preserve" font-family="HelveticaNeue-Thin,Helvetica Neue" font-size="40.0" fill="#FEFFFF" transform="matrix(1.00, 0.00, -0.00, -1.00, 648.8, 193.7)">s</text><text xml:space="preserve" font-family="HelveticaNeue-Thin,Helvetica Neue" font-size="40.0" fill="#FEFFFF" transform="matrix(1.00, 0.00, -0.00, -1.00, 668.0, 193.7)">t</text><text xml:space="preserve" font-family="HelveticaNeue-Thin,Helvetica Neue" font-size="40.0" fill="#FEFFFF" transform="matrix(1.00, 0.00, -0.00, -1.00, 677.8, 193.7)">e</text><text xml:space="preserve" font-family="HelveticaNeue-Thin,Helvetica Neue" font-size="40.0" fill="#FEFFFF" transform="matrix(1.00, 0.00, -0.00, -1.00, 698.6, 193.7)"> </text><text xml:space="preserve" font-family="HelveticaNeue-Thin,Helvetica Neue" font-size="40.0" fill="#FEFFFF" transform="matrix(1.00, 0.00, -0.00, -1.00, 709.7, 193.7)">i</text><text xml:space="preserve" font-family="HelveticaNeue-Thin,Helvetica Neue" font-size="40.0" fill="#FEFFFF" transform="matrix(1.00, 0.00, -0.00, -1.00, 716.4, 193.7)">t</text><text xml:space="preserve" font-family="HelveticaNeue-Bold,Helvetica Neue" font-weight="bold" font-size="25.0" fill="#FEFFFF" transform="matrix(1.00, 0.00, -0.00, -1.00, 358.1, 135.6)">o</text><text xml:space="preserve" font-family="HelveticaNeue-Bold,Helvetica Neue" font-weight="bold" font-size="25.0" fill="#FEFFFF" transform="matrix(1.00, 0.00, -0.00, -1.00, 373.3, 135.6)">p</text><text xml:space="preserve" font-family="HelveticaNeue-Bold,Helvetica Neue" font-weight="bold" font-size="25.0" fill="#FEFFFF" transform="matrix(1.00, 0.00, -0.00, -1.00, 388.6, 135.6)">e</text><text xml:space="preserve" font-family="HelveticaNeue-Bold,Helvetica Neue" font-weight="bold" font-size="25.0" fill="#FEFFFF" transform="matrix(1.00, 0.00, -0.00, -1.00, 403.0, 135.6)">n</text><text xml:space="preserve" font-family="HelveticaNeue-Bold,Helvetica Neue" font-weight="bold" font-size="25.0" fill="#FEFFFF" transform="matrix(1.00, 0.00, -0.00, -1.00, 417.8, 135.6)">j</text><text xml:space="preserve" font-family="HelveticaNeue-Bold,Helvetica Neue" font-weight="bold" font-size="25.0" fill="#FEFFFF" transform="matrix(1.00, 0.00, -0.00, -1.00, 424.7, 135.6)">a</text><text xml:space="preserve" font-family="HelveticaNeue-Bold,Helvetica Neue" font-weight="bold" font-size="25.0" fill="#FEFFFF" transform="matrix(1.00, 0.00, -0.00, -1.00, 439.1, 135.6)">r</text><text xml:space="preserve" font-family="HelveticaNeue-Bold,Helvetica Neue" font-weight="bold" font-size="25.0" fill="#FEFFFF" transform="matrix(1.00, 0.00, -0.00, -1.00, 446.5, 135.6)">.</text><text xml:space="preserve" font-family="HelveticaNeue-Bold,Helvetica Neue" font-weight="bold" font-size="25.0" fill="#FEFFFF" transform="matrix(1.00, 0.00, -0.00, -1.00, 453.5, 135.6)">s</text><text xml:space="preserve" font-family="HelveticaNeue-Bold,Helvetica Neue" font-weight="bold" font-size="25.0" fill="#FEFFFF" transform="matrix(1.00, 0.00, -0.00, -1.00, 466.9, 135.6)">q</text><text xml:space="preserve" font-family="HelveticaNeue-Bold,Helvetica Neue" font-weight="bold" font-size="25.0" fill="#FEFFFF" transform="matrix(1.00, 0.00, -0.00, -1.00, 482.2, 135.6)">u</text><text xml:space="preserve" font-family="HelveticaNeue-Bold,Helvetica Neue" font-weight="bold" font-size="25.0" fill="#FEFFFF" transform="matrix(1.00, 0.00, -0.00, -1.00, 497.0, 135.6)">a</text><text xml:space="preserve" font-family="HelveticaNeue-Bold,Helvetica Neue" font-weight="bold" font-size="25.0" fill="#FEFFFF" transform="matrix(1.00, 0.00, -0.00, -1.00, 511.3, 135.6)">r</text><text xml:space="preserve" font-family="HelveticaNeue-Bold,Helvetica Neue" font-weight="bold" font-size="25.0" fill="#FEFFFF" transform="matrix(1.00, 0.00, -0.00, -1.00, 520.6, 135.6)">e</text><text xml:space="preserve" font-family="HelveticaNeue-Bold,Helvetica Neue" font-weight="bold" font-size="25.0" fill="#FEFFFF" transform="matrix(1.00, 0.00, -0.00, -1.00, 535.0, 135.6)">s</text><text xml:space="preserve" font-family="HelveticaNeue-Bold,Helvetica Neue" font-weight="bold" font-size="25.0" fill="#FEFFFF" transform="matrix(1.00, 0.00, -0.00, -1.00, 548.4, 135.6)">p</text><text xml:space="preserve" font-family="HelveticaNeue-Bold,Helvetica Neue" font-weight="bold" font-size="25.0" fill="#FEFFFF" transform="matrix(1.00, 0.00, -0.00, -1.00, 563.7, 135.6)">a</text><text xml:space="preserve" font-family="HelveticaNeue-Bold,Helvetica Neue" font-weight="bold" font-size="25.0" fill="#FEFFFF" transform="matrix(1.00, 0.00, -0.00, -1.00, 578.0, 135.6)">c</text><text xml:space="preserve" font-family="HelveticaNeue-Bold,Helvetica Neue" font-weight="bold" font-size="25.0" fill="#FEFFFF" transform="matrix(1.00, 0.00, -0.00, -1.00, 592.4, 135.6)">e</text><text xml:space="preserve" font-family="HelveticaNeue-Bold,Helvetica Neue" font-weight="bold" font-size="25.0" fill="#FEFFFF" transform="matrix(1.00, 0.00, -0.00, -1.00, 606.7, 135.6)">.</text><text xml:space="preserve" font-family="HelveticaNeue-Bold,Helvetica Neue" font-weight="bold" font-size="25.0" fill="#FEFFFF" transform="matrix(1.00, 0.00, -0.00, -1.00, 613.7, 135.6)">c</text><text xml:space="preserve" font-family="HelveticaNeue-Bold,Helvetica Neue" font-weight="bold" font-size="25.0" fill="#FEFFFF" transform="matrix(1.00, 0.00, -0.00, -1.00, 628.0, 135.6)">o</text><text xml:space="preserve" font-family="HelveticaNeue-Bold,Helvetica Neue" font-weight="bold" font-size="25.0" fill="#FEFFFF" transform="matrix(1.00, 0.00, -0.00, -1.00, 643.3, 135.6)">m</text></g></svg>