<?xml version="1.0" encoding="UTF-8" standalone="no"?><svg xmlns="http://www.w3.org/2000/svg" xmlns:xlink="http://www.w3.org/1999/xlink" clip-rule="evenodd" stroke-miterlimit="10" viewBox="0 0 1024 768"><desc>SVG generated by Keynote</desc><defs></defs><g transform="matrix(1.00, 0.00, -0.00, -1.00, 0.0, 768.0)"><path d="M 0.0 768.0 L 1024.0 768.0 L 1024.0 0.0 L 0.0 0.0 Z M 0.0 768.0 " fill="#303038"></path><g><clipPath id="clip0x6180006a8580"><path d="M 481.9 57.8 L 542.1 57.8 L 542.1 132.3 L 481.9 132.3 Z M 481.9 57.8 "></path></clipPath><g clip-path="url(#clip0x6180006a8580)"><path d="M 492.4 59.5 L 488.1 59.5 L 484.0 64.5 L 485.4 79.1 L 485.6 92.3 L 486.7 94.8 L 491.7 98.7 L 492.3 102.8 L 506.6 102.3 L 523.9 102.1 L 530.2 101.2 L 531.2 95.8 L 534.3 93.7 L 534.3 90.1 L 533.4 66.0 L 533.4 62.4 L 530.4 59.1 L 507.9 59.5 Z M 492.4 59.5 " fill="#B63E70"></path><path d="M 490.0 106.2 L 505.0 112.4 L 521.7 117.5 L 533.4 120.8 L 532.3 123.7 L 533.7 124.9 L 531.7 127.5 L 529.4 131.4 L 487.2 118.1 L 486.2 116.2 L 486.9 113.2 L 488.2 108.6 Z M 490.0 106.2 " fill="#B63E70"></path></g></g><g><clipPath id="clip0x6180008aa140"><path d="M 481.9 132.3 L 542.1 132.3 L 542.1 57.8 L 481.9 57.8 Z M 481.9 132.3 "></path></clipPath><g clip-path="url(#clip0x6180008aa140)"><g><clipPath id="clip0x6180006bcf80"><path d="M 481.9 57.8 L 542.1 57.8 L 542.1 132.3 L 481.9 132.3 Z M 481.9 57.8 "></path></clipPath><g clip-path="url(#clip0x6180006bcf80)"><path d="M 532.3 125.6 C 531.9 125.5 531.5 125.3 531.1 125.1 C 531.1 125.1 531.1 125.1 531.1 125.0 C 531.8 125.2 532.1 124.6 532.6 124.3 C 532.9 124.5 533.0 124.7 532.7 125.0 C 532.5 125.2 532.4 125.4 532.3 125.6 M 532.3 121.1 C 532.0 121.7 531.8 122.3 531.5 122.8 C 531.4 123.1 531.2 123.2 531.0 123.5 C 530.7 123.7 530.5 124.0 530.2 124.3 C 530.5 124.6 530.7 124.7 530.9 124.9 C 530.9 125.0 530.9 125.0 530.9 125.0 C 530.8 125.0 530.6 125.0 530.5 125.0 C 528.7 124.4 526.8 123.7 525.0 123.1 C 522.9 122.4 520.7 121.7 518.6 121.0 C 516.4 120.4 514.3 119.7 512.2 119.0 C 510.7 118.6 509.3 118.1 507.8 117.7 C 506.9 117.4 505.9 117.0 504.9 116.7 C 502.8 115.9 500.6 115.2 498.5 114.4 C 496.6 113.7 494.7 112.9 492.8 112.1 C 491.6 111.7 490.6 111.1 489.4 110.6 C 488.3 110.1 487.2 109.7 486.1 109.2 C 485.7 109.1 485.3 109.1 485.0 109.4 C 484.5 109.8 484.6 110.3 485.0 110.9 C 485.3 111.3 485.7 111.5 486.3 111.6 C 488.3 112.0 490.2 112.9 492.2 113.6 C 495.3 114.8 498.5 116.0 501.6 117.1 C 504.5 118.1 507.3 119.0 510.2 120.0 C 511.4 120.4 512.6 120.7 513.8 121.1 C 516.6 122.0 519.5 122.8 522.3 123.7 C 525.1 124.6 527.8 125.6 530.6 126.5 C 530.8 126.6 530.8 126.7 530.7 126.9 C 530.4 127.7 530.1 128.4 529.8 129.2 C 529.7 129.4 529.6 129.7 529.6 129.9 C 529.1 129.7 528.7 129.4 528.3 129.2 C 527.9 129.0 527.6 129.1 527.5 129.6 C 527.5 129.6 527.3 129.7 527.2 129.7 C 526.4 129.5 525.7 129.4 525.0 129.2 C 522.8 128.6 520.6 128.0 518.4 127.3 C 516.9 126.9 515.3 126.4 513.8 126.0 C 511.9 125.4 510.1 124.9 508.2 124.3 C 506.1 123.6 503.9 122.9 501.8 122.2 C 500.2 121.7 498.7 121.1 497.1 120.5 C 495.6 120.0 494.2 119.5 492.8 118.9 C 491.7 118.5 490.7 118.1 489.6 117.6 C 489.0 117.4 488.4 117.2 487.9 116.9 C 487.7 116.9 487.6 116.6 487.5 116.6 C 487.2 116.4 487.3 116.3 487.4 116.1 C 487.4 115.2 487.6 114.3 488.0 113.5 C 488.0 113.4 488.0 113.3 488.0 113.3 C 487.9 113.1 486.8 112.5 486.6 112.5 C 486.5 112.6 486.4 112.7 486.3 112.8 C 485.7 113.6 485.4 114.6 485.1 115.6 C 485.0 116.2 485.0 116.8 485.5 117.2 C 485.8 117.5 486.0 117.9 486.2 118.2 C 486.4 118.6 486.7 119.2 487.3 119.2 C 487.5 119.2 487.6 119.3 487.7 119.3 C 488.0 119.4 488.3 119.5 488.5 119.5 C 489.2 119.7 489.8 119.9 490.4 120.1 C 491.9 120.6 493.3 121.1 494.8 121.6 C 496.4 122.2 498.0 122.7 499.6 123.3 C 500.9 123.7 502.1 124.1 503.4 124.5 C 505.2 125.0 507.1 125.6 508.9 126.2 C 511.7 127.0 514.4 127.8 517.1 128.6 C 519.9 129.4 522.8 130.2 525.6 131.0 C 526.7 131.3 527.9 131.6 529.1 131.9 C 529.4 131.9 529.8 131.9 530.1 132.0 C 530.3 132.0 530.5 131.9 530.6 131.7 C 530.6 131.4 530.8 131.2 531.1 131.1 C 531.6 131.0 531.8 130.5 532.0 130.0 C 532.4 129.3 532.5 128.5 532.7 127.7 C 532.7 127.5 532.7 127.4 532.8 127.3 C 533.7 127.6 534.6 127.9 535.6 128.2 C 536.0 128.3 536.4 128.4 536.8 128.5 C 537.3 128.6 537.7 129.1 537.7 129.6 C 537.8 130.2 537.9 130.9 538.0 131.5 C 538.1 131.9 538.8 132.4 539.3 132.3 C 539.7 132.3 540.2 131.8 540.3 131.4 C 540.4 130.7 540.1 130.0 539.7 129.4 C 539.7 129.3 539.6 129.2 539.6 129.1 C 539.6 128.3 539.1 127.9 538.5 127.5 C 536.5 126.3 534.9 124.8 533.5 123.0 C 533.6 122.6 533.7 122.1 533.9 121.7 C 533.9 121.6 534.0 121.5 534.1 121.5 C 534.2 121.4 534.4 121.3 534.5 121.2 C 534.7 120.9 534.6 120.5 534.3 120.4 C 534.1 120.3 533.8 120.1 533.5 120.1 C 531.0 119.4 528.4 118.7 525.9 118.0 C 523.6 117.4 521.4 116.7 519.1 116.1 C 517.1 115.5 515.2 114.8 513.2 114.2 C 511.9 113.8 510.5 113.3 509.2 112.8 C 508.0 112.4 506.7 112.0 505.5 111.6 C 504.8 111.4 504.0 111.1 503.3 110.8 C 502.0 110.4 500.8 109.9 499.6 109.5 C 498.8 109.1 498.1 108.8 497.3 108.4 C 495.6 107.7 493.9 106.9 492.3 106.1 C 491.6 105.8 491.0 105.4 490.4 105.1 C 490.1 105.0 489.6 105.1 489.4 105.2 C 489.0 105.8 488.5 106.3 488.0 106.9 C 487.6 107.5 487.4 108.2 487.7 108.9 C 488.0 109.5 488.8 109.7 489.2 109.2 C 489.4 108.9 489.5 108.5 489.7 108.2 C 489.8 107.9 489.8 107.6 490.0 107.3 C 490.1 107.0 490.4 106.9 490.7 107.1 C 491.6 107.5 492.5 108.0 493.5 108.4 C 495.1 109.2 496.8 109.9 498.5 110.6 C 500.2 111.3 502.0 111.9 503.8 112.5 C 506.1 113.3 508.4 114.0 510.7 114.8 C 514.0 115.9 517.3 117.0 520.6 117.9 C 523.9 118.9 527.3 119.7 530.7 120.7 C 531.2 120.8 531.7 121.0 532.3 121.1 " fill="#000000"></path><path d="M 486.0 94.1 C 485.9 94.3 485.9 94.4 485.8 94.5 C 486.1 95.3 486.7 95.6 487.3 96.0 C 488.1 96.6 488.9 97.2 489.7 97.8 C 490.0 98.0 490.4 98.1 490.8 98.3 C 490.7 99.0 490.7 99.8 490.6 100.6 C 490.6 101.2 490.7 101.7 491.1 102.1 C 491.2 102.1 491.3 102.3 491.3 102.4 C 491.3 103.2 491.8 103.6 492.6 103.6 C 493.9 103.5 495.1 103.4 496.3 103.4 C 497.6 103.3 498.9 103.3 500.2 103.3 C 501.2 103.3 502.1 103.3 503.0 103.3 C 504.8 103.3 506.5 103.3 508.3 103.2 C 509.8 103.2 511.2 103.2 512.7 103.1 C 514.1 103.1 515.5 103.1 516.9 103.0 C 518.5 103.0 520.0 102.9 521.6 102.9 C 523.4 102.8 525.1 102.7 526.9 102.5 C 528.2 102.4 529.4 102.1 530.7 101.9 C 531.1 101.8 531.5 101.3 531.5 100.9 C 531.6 100.4 531.8 100.0 532.0 99.5 C 532.2 98.6 532.2 97.7 532.2 96.8 C 532.2 96.8 532.2 96.7 532.2 96.7 C 532.1 96.5 531.9 96.3 532.0 96.2 C 532.1 96.0 532.3 95.9 532.6 95.8 C 533.4 95.4 534.2 95.2 535.0 94.7 C 535.5 94.5 535.8 94.5 536.2 94.9 C 536.2 95.0 536.2 95.0 536.3 95.0 C 537.1 95.2 537.4 96.0 537.8 96.6 C 538.2 97.1 538.4 97.7 538.8 98.3 C 539.1 98.7 539.4 99.0 539.7 99.3 C 539.9 99.5 540.0 99.4 540.2 99.2 C 540.6 98.5 540.5 97.8 540.1 97.1 C 539.7 96.3 539.1 95.5 538.6 94.7 C 538.5 94.5 538.4 94.3 538.6 94.1 C 538.9 93.7 538.7 93.4 538.5 93.1 C 538.3 92.9 538.4 92.7 538.5 92.5 C 539.6 91.2 540.5 89.8 541.1 88.1 C 541.6 86.6 542.0 85.1 542.1 83.6 C 542.1 82.6 541.9 81.7 541.3 80.9 C 541.0 80.6 540.7 80.3 540.4 79.9 C 540.2 79.7 539.9 79.7 539.7 79.9 C 539.5 80.0 539.3 80.5 539.4 80.7 C 539.7 81.2 540.0 81.7 540.1 82.1 C 540.4 82.9 540.4 83.8 540.2 84.6 C 539.9 85.8 539.6 86.9 539.1 88.0 C 538.6 89.3 537.6 90.3 536.5 91.2 C 535.9 91.6 535.4 92.2 535.1 92.8 C 535.0 93.0 534.9 93.0 534.7 93.1 C 533.0 93.5 531.4 94.0 529.9 94.9 C 529.6 95.1 529.3 95.3 529.1 95.6 C 528.7 96.2 529.1 97.0 529.8 97.1 C 530.0 97.1 530.1 97.1 530.3 97.1 C 530.2 97.9 530.1 98.6 529.9 99.3 C 529.8 99.7 529.6 100.0 529.9 100.5 C 529.5 100.6 529.0 100.7 528.6 100.7 C 525.9 100.9 523.2 101.2 520.4 101.4 C 518.7 101.5 517.0 101.4 515.2 101.5 C 513.4 101.5 511.5 101.5 509.6 101.5 C 507.9 101.6 506.2 101.5 504.5 101.5 C 502.6 101.5 500.8 101.5 498.9 101.5 C 497.6 101.5 496.3 101.4 495.0 101.4 C 494.4 101.4 493.8 101.4 493.2 101.4 C 492.7 101.4 492.7 101.4 492.7 100.9 C 492.8 100.4 492.8 99.9 492.8 99.4 C 492.8 98.5 492.4 97.9 491.4 97.6 C 491.8 97.0 491.4 96.7 491.0 96.4 C 489.9 95.8 488.9 95.1 487.8 94.5 C 487.5 94.3 487.1 94.2 486.9 93.8 C 487.3 93.8 487.7 93.8 488.0 93.9 C 490.2 94.0 492.4 94.1 494.6 94.2 C 496.6 94.2 498.7 94.2 500.7 94.2 C 502.5 94.2 504.2 94.2 506.0 94.2 C 507.8 94.3 509.6 94.4 511.4 94.4 C 513.0 94.5 514.5 94.5 516.1 94.5 C 517.6 94.5 519.0 94.5 520.5 94.4 C 522.4 94.3 524.4 94.0 526.3 93.9 C 526.9 93.8 527.6 93.8 528.2 93.5 C 528.4 93.4 528.5 93.3 528.6 93.2 C 528.6 93.1 528.6 93.1 528.6 93.0 C 528.2 93.0 527.8 92.9 527.5 93.0 C 525.2 93.0 523.0 93.2 520.8 93.3 C 517.2 93.4 513.6 93.4 510.1 93.2 C 507.1 93.1 504.1 93.1 501.2 93.0 C 498.1 93.0 495.1 93.0 492.0 92.9 C 490.4 92.8 488.8 92.6 487.2 92.4 C 487.0 92.4 486.7 92.3 486.4 92.3 C 486.9 91.5 486.6 90.6 486.7 89.8 C 486.8 88.2 486.8 86.6 486.8 85.0 C 486.7 83.0 486.6 81.0 486.4 79.0 C 486.4 78.1 486.3 77.3 486.2 76.5 C 486.2 75.6 486.0 74.7 485.9 73.8 C 485.7 71.4 485.4 69.0 485.2 66.7 C 485.1 66.2 485.1 65.7 485.1 65.2 C 485.1 65.1 485.2 64.9 485.3 64.9 C 486.2 64.3 486.8 63.4 487.4 62.5 C 487.6 62.3 487.7 62.0 487.8 61.7 C 488.1 61.2 488.4 60.8 488.8 60.5 C 489.1 60.3 489.3 60.0 489.4 59.6 C 489.5 59.5 489.5 59.2 489.3 59.0 C 489.2 58.8 489.1 58.5 488.8 58.6 C 488.5 58.7 488.3 58.7 488.0 58.7 C 487.1 59.1 486.5 59.9 486.1 60.7 C 485.9 61.2 485.6 61.6 485.3 62.0 C 485.1 62.3 484.9 62.6 484.5 62.4 C 484.4 62.4 484.2 62.5 484.1 62.6 C 483.7 63.0 483.5 63.3 483.5 63.8 C 483.5 65.5 483.5 67.1 483.6 68.7 C 483.7 70.2 483.9 71.7 484.1 73.2 C 484.3 75.7 484.5 78.2 484.7 80.7 C 484.8 82.4 484.9 84.1 484.8 85.8 C 484.8 87.2 484.7 88.5 484.6 89.8 C 484.6 90.5 484.6 91.2 484.7 91.8 C 484.7 92.0 484.9 92.2 485.0 92.4 C 485.0 92.4 485.1 92.5 485.1 92.5 C 485.2 92.7 484.7 93.6 484.5 93.7 C 484.2 93.9 483.8 94.1 483.5 94.3 C 483.1 94.7 483.1 95.2 483.5 95.6 C 483.9 96.0 484.4 96.0 484.8 95.7 C 485.1 95.4 485.4 95.1 485.4 94.7 C 485.3 94.2 485.5 94.0 486.0 94.1 " fill="#000000"></path><path d="M 516.1 58.4 C 514.0 58.5 511.8 58.6 509.7 58.7 C 507.8 58.8 505.9 58.8 504.1 58.8 C 502.4 58.7 500.8 58.6 499.1 58.5 C 497.9 58.5 496.6 58.4 495.4 58.4 C 494.4 58.4 493.4 58.3 492.4 58.4 C 491.8 58.4 491.1 58.6 490.5 58.7 C 490.1 58.8 489.8 59.1 489.6 59.4 C 489.4 59.9 489.9 60.7 490.5 60.8 C 490.7 60.8 490.9 60.7 491.0 60.7 C 491.5 60.6 492.0 60.5 492.5 60.5 C 494.4 60.5 496.3 60.4 498.2 60.4 C 499.8 60.4 501.3 60.5 502.9 60.6 C 504.4 60.6 506.0 60.6 507.6 60.6 C 509.5 60.5 511.5 60.4 513.5 60.3 C 515.1 60.3 516.8 60.2 518.4 60.2 C 519.7 60.2 521.0 60.3 522.2 60.4 C 524.2 60.4 526.2 60.5 528.2 60.2 C 528.8 60.1 529.4 60.1 530.0 60.1 C 530.2 60.1 530.4 60.2 530.5 60.3 C 530.9 60.7 531.3 61.0 531.7 61.5 C 532.1 61.9 532.2 62.4 532.3 63.0 C 532.4 63.4 532.7 63.8 533.1 63.8 C 533.5 63.9 533.9 63.6 534.1 63.2 C 534.3 62.4 534.3 61.8 533.6 61.1 C 533.1 60.6 532.7 60.0 532.2 59.5 C 532.2 59.5 532.2 59.4 532.1 59.3 C 532.1 58.9 531.9 58.7 531.4 58.6 C 531.2 58.5 531.0 58.4 530.8 58.4 C 530.8 58.3 530.7 58.3 530.6 58.2 C 529.6 57.7 529.7 57.7 528.9 58.5 C 528.9 58.6 528.7 58.6 528.6 58.6 C 527.2 58.7 525.8 58.7 524.3 58.7 C 522.7 58.6 521.1 58.5 519.4 58.5 C 518.3 58.4 517.2 58.5 516.1 58.5 C 516.1 58.5 516.1 58.4 516.1 58.4 " fill="#000000"></path><path d="M 532.5 67.5 C 532.5 68.6 532.5 69.7 532.6 70.8 C 532.7 72.6 532.7 74.5 532.8 76.3 C 532.8 77.4 532.8 78.5 532.8 79.6 C 532.8 80.8 532.9 81.9 532.9 83.0 C 532.9 83.8 532.9 84.5 532.9 85.3 C 533.0 86.4 533.0 87.4 533.0 88.5 C 533.0 89.6 533.0 90.6 533.1 91.6 C 533.1 92.1 533.5 92.6 534.0 92.7 C 534.5 92.9 534.9 92.7 535.1 92.2 C 535.3 91.7 535.4 91.2 535.4 90.7 C 535.2 88.9 535.1 87.2 535.0 85.4 C 534.9 84.1 534.8 82.8 534.8 81.6 C 534.7 80.3 534.6 79.1 534.5 77.9 C 534.5 76.3 534.5 74.7 534.4 73.1 C 534.3 71.7 534.2 70.3 534.2 68.9 C 534.1 68.0 534.1 67.2 534.1 66.4 C 534.1 66.1 534.1 65.7 533.8 65.5 C 533.6 65.3 533.4 65.3 533.2 65.5 C 532.6 65.9 532.6 66.5 532.5 67.2 C 532.5 67.3 532.5 67.4 532.5 67.5 C 532.5 67.5 532.5 67.5 532.5 67.5 " fill="#000000"></path><path d="M 484.3 100.3 C 484.3 100.8 484.3 101.2 484.2 101.7 C 484.0 102.3 484.2 102.7 484.7 103.1 C 485.1 103.3 485.6 103.2 485.8 102.8 C 485.9 102.2 486.0 101.5 486.1 100.9 C 486.1 100.4 486.0 99.9 485.7 99.4 C 485.3 98.6 484.2 98.4 483.4 98.8 C 481.7 99.7 481.8 101.4 482.2 102.8 C 482.3 103.2 482.6 103.7 482.7 104.1 C 482.8 104.3 482.9 104.5 482.8 104.6 C 482.6 105.1 482.6 105.5 482.7 105.9 C 482.8 106.2 482.9 106.5 483.0 106.7 C 483.2 107.2 483.7 107.4 484.1 107.6 C 484.5 107.7 484.8 107.4 484.7 106.9 C 484.6 106.3 484.5 105.7 484.9 105.2 C 485.0 105.0 484.9 104.8 484.9 104.6 C 484.6 104.0 484.2 103.4 484.0 102.8 C 483.8 102.1 483.7 101.4 484.0 100.6 C 484.0 100.5 484.1 100.4 484.2 100.3 C 484.2 100.3 484.3 100.3 484.3 100.3 " fill="#000000"></path></g></g></g></g><text xml:space="preserve" font-family="HelveticaNeue-Thin,Helvetica Neue" font-size="82.8" fill="#FEFFFF" transform="matrix(1.00, 0.00, -0.00, -1.00, 117.3, 433.0)">H</text><text xml:space="preserve" font-family="HelveticaNeue-Thin,Helvetica Neue" font-size="82.8" fill="#FEFFFF" transform="matrix(1.00, 0.00, -0.00, -1.00, 172.8, 433.0)">o</text><text xml:space="preserve" font-family="HelveticaNeue-Thin,Helvetica Neue" font-size="82.8" fill="#FEFFFF" transform="matrix(1.00, 0.00, -0.00, -1.00, 217.2, 433.0)">w</text><text xml:space="preserve" font-family="HelveticaNeue-Thin,Helvetica Neue" font-size="82.8" fill="#FEFFFF" transform="matrix(1.00, 0.00, -0.00, -1.00, 275.5, 433.0)"> </text><text xml:space="preserve" font-family="HelveticaNeue-Thin,Helvetica Neue" font-size="82.8" fill="#FEFFFF" transform="matrix(1.00, 0.00, -0.00, -1.00, 298.5, 433.0)">d</text><text xml:space="preserve" font-family="HelveticaNeue-Thin,Helvetica Neue" font-size="82.8" fill="#FEFFFF" transform="matrix(1.00, 0.00, -0.00, -1.00, 344.6, 433.0)">o</text><text xml:space="preserve" font-family="HelveticaNeue-Thin,Helvetica Neue" font-size="82.8" fill="#FEFFFF" transform="matrix(1.00, 0.00, -0.00, -1.00, 389.0, 433.0)"> </text><text xml:space="preserve" font-family="HelveticaNeue-Thin,Helvetica Neue" font-size="82.8" fill="#FEFFFF" transform="matrix(1.00, 0.00, -0.00, -1.00, 412.1, 433.0)">w</text><text xml:space="preserve" font-family="HelveticaNeue-Thin,Helvetica Neue" font-size="82.8" fill="#FEFFFF" transform="matrix(1.00, 0.00, -0.00, -1.00, 470.4, 433.0)">e</text><text xml:space="preserve" font-family="HelveticaNeue-Thin,Helvetica Neue" font-size="82.8" fill="#FEFFFF" transform="matrix(1.00, 0.00, -0.00, -1.00, 513.3, 433.0)"> </text><text xml:space="preserve" font-family="HelveticaNeue-Thin,Helvetica Neue" font-size="82.8" fill="#FEFFFF" transform="matrix(1.00, 0.00, -0.00, -1.00, 536.3, 433.0)">r</text><text xml:space="preserve" font-family="HelveticaNeue-Thin,Helvetica Neue" font-size="82.8" fill="#FEFFFF" transform="matrix(1.00, 0.00, -0.00, -1.00, 558.4, 433.0)">e</text><text xml:space="preserve" font-family="HelveticaNeue-Thin,Helvetica Neue" font-size="82.8" fill="#FEFFFF" transform="matrix(1.00, 0.00, -0.00, -1.00, 601.3, 433.0)">d</text><text xml:space="preserve" font-family="HelveticaNeue-Thin,Helvetica Neue" font-size="82.8" fill="#FEFFFF" transform="matrix(1.00, 0.00, -0.00, -1.00, 647.4, 433.0)">u</text><text xml:space="preserve" font-family="HelveticaNeue-Thin,Helvetica Neue" font-size="82.8" fill="#FEFFFF" transform="matrix(1.00, 0.00, -0.00, -1.00, 690.4, 433.0)">c</text><text xml:space="preserve" font-family="HelveticaNeue-Thin,Helvetica Neue" font-size="82.8" fill="#FEFFFF" transform="matrix(1.00, 0.00, -0.00, -1.00, 733.3, 433.0)">e</text><text xml:space="preserve" font-family="HelveticaNeue-Thin,Helvetica Neue" font-size="82.8" fill="#FEFFFF" transform="matrix(1.00, 0.00, -0.00, -1.00, 776.3, 433.0)"> </text><text xml:space="preserve" font-family="HelveticaNeue-Thin,Helvetica Neue" font-size="82.8" fill="#FEFFFF" transform="matrix(1.00, 0.00, -0.00, -1.00, 799.3, 433.0)">t</text><text xml:space="preserve" font-family="HelveticaNeue-Thin,Helvetica Neue" font-size="82.8" fill="#FEFFFF" transform="matrix(1.00, 0.00, -0.00, -1.00, 820.8, 433.0)">h</text><text xml:space="preserve" font-family="HelveticaNeue-Thin,Helvetica Neue" font-size="82.8" fill="#FEFFFF" transform="matrix(1.00, 0.00, -0.00, -1.00, 863.7, 433.0)">e</text><text xml:space="preserve" font-family="HelveticaNeue-Thin,Helvetica Neue" font-size="82.8" fill="#FEFFFF" transform="matrix(1.00, 0.00, -0.00, -1.00, 906.7, 433.0)"> </text><text xml:space="preserve" font-family="HelveticaNeue-Thin,Helvetica Neue" font-size="82.8" fill="#FEFFFF" transform="matrix(1.00, 0.00, -0.00, -1.00, 106.0, 333.0)">f</text><text xml:space="preserve" font-family="HelveticaNeue-Thin,Helvetica Neue" font-size="82.8" fill="#FEFFFF" transform="matrix(1.00, 0.00, -0.00, -1.00, 125.9, 333.0)">o</text><text xml:space="preserve" font-family="HelveticaNeue-Thin,Helvetica Neue" font-size="82.8" fill="#FEFFFF" transform="matrix(1.00, 0.00, -0.00, -1.00, 170.4, 333.0)">o</text><text xml:space="preserve" font-family="HelveticaNeue-Thin,Helvetica Neue" font-size="82.8" fill="#FEFFFF" transform="matrix(1.00, 0.00, -0.00, -1.00, 214.9, 333.0)">d</text><text xml:space="preserve" font-family="HelveticaNeue-Thin,Helvetica Neue" font-size="82.8" fill="#FEFFFF" transform="matrix(1.00, 0.00, -0.00, -1.00, 260.9, 333.0)"> </text><text xml:space="preserve" font-family="HelveticaNeue-Thin,Helvetica Neue" font-size="82.8" fill="#FEFFFF" transform="matrix(1.00, 0.00, -0.00, -1.00, 283.9, 333.0)">w</text><text xml:space="preserve" font-family="HelveticaNeue-Thin,Helvetica Neue" font-size="82.8" fill="#FEFFFF" transform="matrix(1.00, 0.00, -0.00, -1.00, 342.2, 333.0)">a</text><text xml:space="preserve" font-family="HelveticaNeue-Thin,Helvetica Neue" font-size="82.8" fill="#FEFFFF" transform="matrix(1.00, 0.00, -0.00, -1.00, 383.6, 333.0)">s</text><text xml:space="preserve" font-family="HelveticaNeue-Thin,Helvetica Neue" font-size="82.8" fill="#FEFFFF" transform="matrix(1.00, 0.00, -0.00, -1.00, 423.4, 333.0)">t</text><text xml:space="preserve" font-family="HelveticaNeue-Thin,Helvetica Neue" font-size="82.8" fill="#FEFFFF" transform="matrix(1.00, 0.00, -0.00, -1.00, 443.7, 333.0)">e</text><text xml:space="preserve" font-family="HelveticaNeue-Thin,Helvetica Neue" font-size="82.8" fill="#FEFFFF" transform="matrix(1.00, 0.00, -0.00, -1.00, 486.7, 333.0)"> </text><text xml:space="preserve" font-family="HelveticaNeue-Thin,Helvetica Neue" font-size="82.8" fill="#FEFFFF" transform="matrix(1.00, 0.00, -0.00, -1.00, 509.7, 333.0)">i</text><text xml:space="preserve" font-family="HelveticaNeue-Thin,Helvetica Neue" font-size="82.8" fill="#FEFFFF" transform="matrix(1.00, 0.00, -0.00, -1.00, 523.6, 333.0)">n</text><text xml:space="preserve" font-family="HelveticaNeue-Thin,Helvetica Neue" font-size="82.8" fill="#FEFFFF" transform="matrix(1.00, 0.00, -0.00, -1.00, 566.6, 333.0)"> </text><text xml:space="preserve" font-family="HelveticaNeue-Thin,Helvetica Neue" font-size="82.8" fill="#FEFFFF" transform="matrix(1.00, 0.00, -0.00, -1.00, 589.6, 333.0)">S</text><text xml:space="preserve" font-family="HelveticaNeue-Thin,Helvetica Neue" font-size="82.8" fill="#FEFFFF" transform="matrix(1.00, 0.00, -0.00, -1.00, 641.8, 333.0)">w</text><text xml:space="preserve" font-family="HelveticaNeue-Thin,Helvetica Neue" font-size="82.8" fill="#FEFFFF" transform="matrix(1.00, 0.00, -0.00, -1.00, 700.1, 333.0)">e</text><text xml:space="preserve" font-family="HelveticaNeue-Thin,Helvetica Neue" font-size="82.8" fill="#FEFFFF" transform="matrix(1.00, 0.00, -0.00, -1.00, 743.1, 333.0)">d</text><text xml:space="preserve" font-family="HelveticaNeue-Thin,Helvetica Neue" font-size="82.8" fill="#FEFFFF" transform="matrix(1.00, 0.00, -0.00, -1.00, 789.1, 333.0)">e</text><text xml:space="preserve" font-family="HelveticaNeue-Thin,Helvetica Neue" font-size="82.8" fill="#FEFFFF" transform="matrix(1.00, 0.00, -0.00, -1.00, 832.1, 333.0)">n</text><text xml:space="preserve" font-family="HelveticaNeue-Thin,Helvetica Neue" font-size="82.8" fill="#FEFFFF" transform="matrix(1.00, 0.00, -0.00, -1.00, 875.0, 333.0)">?</text></g></svg>